<?xml version="1.0" standalone="no"?>
<!DOCTYPE svg PUBLIC "-//W3C//DTD SVG 20010904//EN"
 "http://www.w3.org/TR/2001/REC-SVG-20010904/DTD/svg10.dtd">
<svg version="1.0" xmlns="http://www.w3.org/2000/svg"
 width="300.000000pt" height="300.000000pt" viewBox="0 0 300.000000 300.000000"
 preserveAspectRatio="xMidYMid meet">
<metadata>
Created by potrace 1.11, written by Peter Selinger 2001-2013
</metadata>
<g transform="translate(0.000000,300.000000) scale(0.100000,-0.100000)"
fill="#000000" stroke="none">
<path d="M230 1806 c0 -540 3 -658 16 -712 55 -239 233 -448 450 -530 79 -30
181 -51 239 -50 l40 1 1 165 c0 91 -1 171 -4 177 -2 7 -15 13 -28 13 -37 0
-141 37 -187 68 -73 47 -127 122 -154 212 -19 66 -27 476 -9 488 6 4 90 7 186
7 96 0 181 4 189 9 9 6 17 3 23 -8 5 -9 16 -16 25 -16 8 0 44 -14 78 -30 75
-36 143 -107 183 -189 26 -55 26 -61 29 -271 3 -314 8 -364 38 -427 52 -106
170 -191 271 -196 l49 -2 5 420 5 420 26 55 c52 111 152 193 270 223 201 52
434 -101 464 -306 4 -27 8 -159 9 -295 2 -244 2 -248 28 -304 57 -122 194
-222 298 -215 l25 2 0 445 0 445 -33 88 c-84 226 -206 360 -401 442 -140 59
-307 82 -431 61 -47 -9 -157 -44 -195 -63 -40 -21 -146 -92 -165 -112 -9 -9
-30 -29 -48 -45 l-32 -30 -38 35 c-104 99 -215 164 -332 194 -83 22 -135 26
-348 27 -117 0 -175 4 -180 12 -4 6 -8 45 -8 86 -3 177 -134 327 -303 347
l-51 6 0 -647z m757 125 c0 -11 -5 -18 -9 -15 -4 3 -5 11 -1 19 7 21 12 19 10
-4z m-1 -116 c0 -76 -9 -78 -11 -2 -2 45 1 67 8 67 1 0 2 -29 3 -65z m1 -124
c0 -11 -5 -18 -9 -15 -4 3 -5 11 -1 19 7 21 12 19 10 -4z"/>
</g>
</svg>
