<?xml version="1.0" encoding="utf-8"?>
<!-- Generator: Adobe Illustrator 23.0.3, SVG Export Plug-In . SVG Version: 6.00 Build 0)  -->
<svg version="1.1" id="b46bdb45-05c7-43e7-afee-243a50499326"
	 xmlns="http://www.w3.org/2000/svg" xmlns:xlink="http://www.w3.org/1999/xlink" x="0px" y="0px" viewBox="0 0 1130 852.6"
	 style="enable-background:new 0 0 1130 852.6;" xml:space="preserve">
<style type="text/css">
	.st0{opacity:0.1;fill:#F2768A;enable-background:new    ;}
	.st1{opacity:0.1;enable-background:new    ;}
	.st2{fill:#F2768A;}
	.st3{opacity:0.1;fill:#FFC107;enable-background:new    ;}
	.st4{fill:#D0D2D5;}
	.st5{fill:#444053;}
	.st6{fill:#FFFFFF;}
	.st7{opacity:0.1;fill:#444053;enable-background:new    ;}
	.st8{opacity:0.3;fill:#F2768A;enable-background:new    ;}
	.st9{fill:#454B69;}
	.st10{fill:url(#SVGID_1_);}
	.st11{fill:#2F2E41;}
	.st12{opacity:0.1;}
	.st13{fill:#A1616A;}
	.st14{fill:#3F3D56;}
</style>
<title>stripe payments</title>
<path class="st0" d="M656.5,163.7c-72.4-2.6-141.4-26.5-207.3-52.7S318.1,55.7,247.4,41.8c-45.5-8.9-97.5-10.2-134.1,14.8
	c-35.3,24-46.7,65.5-52.8,104c-4.6,29-7.3,59.4,5.3,86.6c8.8,18.8,24.3,34.6,35.1,52.7c37.4,62.8,11,140.1-29.6,201.4
	c-19,28.7-41.1,56.2-55.8,86.8s-21.5,65.7-8.6,96.9c12.8,30.9,43.1,54.2,76,70.5c66.8,33.2,145.5,42.7,222.3,48.1
	c169.9,11.9,340.8,6.8,511.2,1.6c63.1-1.9,126.4-3.8,188.4-13.8c34.4-5.5,70-14.3,95-35.6c31.8-27,39.6-72.7,18.3-106.5
	c-35.6-56.7-134.3-70.8-159.3-131.7c-13.7-33.5,0.4-70.9,20.3-102c42.8-66.7,114.5-125.2,118.3-201.4
	c2.6-52.4-31.9-104.8-85.2-129.6c-55.9-26-133.4-22.7-174.6,20.3C795.1,148.9,720.5,165.9,656.5,163.7z"/>
<path class="st1" d="M460,159.8c-1.5-5.1,2.1-8.3,9.1-10.3c11.4-3.1,23.4-3.5,35-1.1l-9-30.8c-11.5-1.1-23.2,0.1-34.3,3.5
	c-26.6,7.8-40.2,26.8-33.5,50c10.5,36.2,58.6,15.9,63.2,31.5c1.8,6-2.9,9.5-10.2,11.7c-10.9,3.2-26.1,2.8-38.9,0l9.1,31.2
	c12.7,1.6,25.7,0.6,38-3c27.3-8,42.1-26.9,35.2-50.4C512.3,153,464.4,174.5,460,159.8L460,159.8z M530.6,72.2l-30,16.2l30.5,105
	c5.7,19.4,24.4,29.4,43.8,23.8c10.8-3.1,18-7.4,21.7-11l-7.8-26.6c-3.7,2.9-22.7,15-28.3-4.4L547,128.6l24.9-7.3l-8.2-27.9
	l-24.9,7.3L530.6,72.2z M607.3,91.2l-4.9-9.1l-28.3,8.3l33.5,114.7l32.8-9.6l-22.7-77.7c4.8-12.4,18.4-14.3,22.9-14.1l-8.8-30.2
	C627.1,73.2,610.9,74.8,607.3,91.2L607.3,91.2z M639.7,71.2l32.9-9.6l33.5,114.7l-32.9,9.6L639.7,71.2L639.7,71.2z M636.8,61.2
	l30.8-16.7L659.9,18L629,34.6L636.8,61.2L636.8,61.2z M740.4,39.4c-9.6,2.8-17.7,9.1-22.7,17.7l-4.1-7.6L684.8,58l44.6,152.8
	l30.7-16.5l-10.7-37.1c5.7,2,14.1,4.9,25.6,1.5c23.5-6.9,39.3-32,27.2-73.5C791,47.2,763.3,32.8,740.4,39.4L740.4,39.4z M758.9,132
	c-7.7,2.3-13.1,0.9-17.3-1.6l-14.3-48.6c2.3-4.8,6.3-8.8,13.7-11c11.9-3.5,24.1,7.5,29.1,24.6C775.2,113,770.9,128.5,758.9,132
	L758.9,132z M905.9,56.3C896.1,22.8,872.1,1,841,10.1s-42.3,41.1-32.6,74.4c11.5,39.4,39.6,52.8,71.6,43.5
	c15.6-4.6,26.4-11.5,33.8-19.1l-7.7-26.2c-7.6,7.1-17,12.8-30,16.6c-12.7,3.7-25.3,2.6-31.2-12.5L909,68
	C908.5,66.3,906.8,59.4,905.9,56.3L905.9,56.3z M837.5,62.8c-4.3-14.8,2.9-23.6,11.2-26c8-2.3,18.3,1.3,22.6,16.2L837.5,62.8z"/>
<path class="st2" d="M460,151.8c-1.5-5.1,2.1-8.3,9.1-10.3c11.4-3.1,23.4-3.5,35-1.1l-9-30.8c-11.5-1.1-23.2,0.1-34.3,3.5
	c-26.6,7.8-40.2,26.8-33.5,50c10.5,36.2,58.6,15.9,63.2,31.5c1.8,6-2.9,9.5-10.2,11.7c-10.9,3.2-26.1,2.8-38.9,0l9.1,31.2
	c12.7,1.6,25.7,0.6,38-3c27.3-8,42.1-26.9,35.2-50.4C512.3,145,464.4,166.5,460,151.8L460,151.8z M530.6,64.2l-30,16.2l30.5,105
	c5.7,19.4,24.4,29.4,43.8,23.8c10.8-3.1,18-7.4,21.7-11l-7.8-26.6c-3.7,2.9-22.7,15-28.3-4.4L547,120.6l24.9-7.3l-8.2-27.9
	l-24.9,7.3L530.6,64.2z M607.3,83.2l-4.9-9.1l-28.3,8.3l33.5,114.7l32.8-9.6l-22.7-77.7c4.8-12.3,18.4-14.3,22.9-14.1l-8.8-30.2
	C627.1,65.2,610.9,66.8,607.3,83.2L607.3,83.2z M639.7,63.2l32.9-9.6l33.5,114.7l-32.9,9.6L639.7,63.2L639.7,63.2z M636.8,53.2
	l30.8-16.7L659.9,10L629,26.6L636.8,53.2L636.8,53.2z M740.4,31.4c-9.6,2.8-17.7,9.1-22.7,17.7l-4.1-7.6L684.8,50l44.6,152.8
	l30.7-16.5l-10.7-37.1c5.7,2,14.1,4.9,25.6,1.5c23.5-6.9,39.3-32,27.2-73.5C791,39.2,763.3,24.8,740.4,31.4L740.4,31.4z M758.9,124
	c-7.7,2.3-13.1,0.9-17.3-1.6l-14.3-48.6c2.3-4.8,6.3-8.8,13.7-11c11.9-3.5,24.1,7.5,29.1,24.6C775.2,105,770.9,120.5,758.9,124
	L758.9,124z M905.9,48.3C896.1,14.8,872.1-7,841,2.1s-42.3,41.1-32.6,74.4c11.5,39.4,39.6,52.8,71.6,43.5
	c15.6-4.6,26.4-11.5,33.8-19.1l-7.7-26.2c-7.6,7.1-17,12.8-30,16.6c-12.7,3.7-25.3,2.6-31.2-12.5L909,60
	C908.5,58.3,906.8,51.4,905.9,48.3L905.9,48.3z M837.5,54.8c-4.3-14.8,2.9-23.6,11.2-26c8-2.3,18.3,1.3,22.6,16.1L837.5,54.8z"/>
<ellipse class="st3" cx="678.8" cy="838.7" rx="92.5" ry="13.9"/>
<polygon class="st4" points="644.5,813.7 466.3,811.4 466.8,806.8 475.4,731.5 631.9,731.5 643.4,806.8 644.3,812.5 "/>
<polygon class="st1" points="644.3,812.5 555.4,812.5 466.3,811.4 466.8,806.8 643.4,806.8 "/>
<rect x="436.6" y="808" class="st4" width="236.4" height="5.7"/>
<path class="st5" d="M898.6,278.6c0-8.2-6.6-14.9-14.8-14.9c0,0,0,0,0,0H223.5c-8.2,0-14.8,6.7-14.8,15v400.3h689.9V278.6z"/>
<path class="st4" d="M208.7,674.9v46.9c0,8.2,6.6,14.8,14.8,14.8h660.3c8.2,0,14.8-6.6,14.8-14.8c0,0,0,0,0,0v-46.9H208.7z"/>
<rect x="237.3" y="288.8" class="st6" width="636.2" height="359.8"/>
<path class="st2" d="M557.1,718.8c4.7,0,9.2-2.2,12.1-5.9l0,0c0.4-0.6,0.8-1.2,1.2-1.8l-8.4-1.4l9.2,0.1c1.8-3.9,1.9-8.3,0.3-12.2
	l-12.3,6.4l11.3-8.3c-4.3-7.3-13.8-9.7-21.1-5.4c-7.3,4.3-9.7,13.8-5.4,21.1c0.3,0.5,0.7,1,1,1.5l0,0
	C547.9,716.6,552.4,718.8,557.1,718.8z"/>
<polygon class="st1" points="572.5,736.6 643.6,808 632.7,736.6 "/>
<rect x="236.8" y="288.9" class="st7" width="636.9" height="21"/>
<path class="st2" d="M241.2,292.5h16.7c0.4,0,0.8,0.3,0.8,0.8v11.2c0,0.4-0.3,0.8-0.8,0.8h-16.7c-0.4,0-0.8-0.3-0.8-0.8v-11.2
	C240.4,292.9,240.8,292.5,241.2,292.5z"/>
<path class="st8" d="M458.5,292.5h190.7c0.3,0,0.6,0.3,0.6,0.6v11.6c0,0.3-0.3,0.6-0.6,0.6H458.5c-0.3,0-0.6-0.3-0.6-0.6v-11.6
	C457.9,292.8,458.2,292.5,458.5,292.5z"/>
<path class="st5" d="M644.1,300.2h-0.5l-0.2-0.1c0.6-0.7,0.9-1.6,0.9-2.5c0-2.1-1.7-3.8-3.8-3.8s-3.8,1.7-3.8,3.8
	c0,2.1,1.7,3.8,3.8,3.8c0.9,0,1.8-0.3,2.5-0.9l0.2,0.1v0.5l2.9,2.9l0.9-0.9L644.1,300.2z M640.6,300.2c-1.5,0-2.6-1.2-2.6-2.6
	s1.2-2.6,2.6-2.6c1.5,0,2.6,1.2,2.6,2.6c0,0,0,0,0,0C643.2,299.1,642.1,300.2,640.6,300.2C640.6,300.2,640.6,300.2,640.6,300.2z"/>
<circle class="st2" cx="864.5" cy="298.9" r="6.4"/>
<path class="st1" d="M701.1,390H409.5c-10.1,0-18.3,7.6-18.3,17.1v160.5c0,9.4,8.2,17.1,18.3,17.1h291.6c10.1,0,18.3-7.6,18.3-17.1
	V407.1C719.4,397.7,711.2,390,701.1,390z"/>
<path class="st9" d="M421,380.9h268.7c10.3,0,18.7,8.4,18.7,18.7v157.3c0,10.3-8.4,18.7-18.7,18.7H421c-10.3,0-18.7-8.4-18.7-18.7
	V399.6C402.3,389.3,410.7,380.9,421,380.9z"/>
<path class="st8" d="M439.3,490.4h39.1c2.7,0,4.8,2.1,4.8,4.8v6.9c0,2.7-2.1,4.8-4.8,4.8h-39.1c-2.7,0-4.8-2.1-4.8-4.8v-6.9
	C434.5,492.5,436.6,490.4,439.3,490.4z"/>
<path class="st8" d="M504.5,490.4h39.1c2.7,0,4.8,2.1,4.8,4.8v6.9c0,2.7-2.1,4.8-4.8,4.8h-39.1c-2.7,0-4.8-2.1-4.8-4.8v-6.9
	C499.7,492.5,501.8,490.4,504.5,490.4z"/>
<path class="st8" d="M531.4,524.3h33c2.7,0,4.8,2.1,4.8,4.8v2.6c0,2.7-2.1,4.8-4.8,4.8h-33c-2.7,0-4.8-2.1-4.8-4.8v-2.6
	C526.6,526.4,528.7,524.3,531.4,524.3z"/>
<path class="st8" d="M569.6,490.4h39.1c2.7,0,4.8,2.1,4.8,4.8v6.9c0,2.7-2.1,4.8-4.8,4.8h-39.1c-2.7,0-4.8-2.1-4.8-4.8v-6.9
	C564.8,492.5,567,490.4,569.6,490.4z"/>
<path class="st8" d="M634.8,490.4h39.1c2.7,0,4.8,2.1,4.8,4.8v6.9c0,2.7-2.1,4.8-4.8,4.8h-39.1c-2.7,0-4.8-2.1-4.8-4.8v-6.9
	C630,492.5,632.1,490.4,634.8,490.4z"/>
<path class="st2" d="M441.8,451.3h27.1c1.6,0,3,1.3,3,3v27.1c0,1.6-1.3,3-3,3h-27.1c-1.6,0-3-1.3-3-3v-27.1
	C438.8,452.6,440.2,451.3,441.8,451.3z"/>
<path class="st9" d="M460.8,473.2h-10.4v-10.4h10.4L460.8,473.2z M450.8,472.8h9.6v-9.6h-9.6V472.8z"/>
<rect x="455.3" y="451.3" class="st9" width="0.4" height="11.7"/>
<rect x="455.3" y="473" class="st9" width="0.4" height="11.3"/>
<rect x="438.8" y="467.6" class="st9" width="11.7" height="0.4"/>
<rect x="460.6" y="467.6" class="st9" width="11.3" height="0.4"/>
<polygon class="st9" points="450.4,463.2 447,459.8 438.8,459.8 438.8,459.4 447.2,459.4 450.7,462.9 "/>
<polygon class="st9" points="460.7,463.2 460.4,462.9 464.4,459.4 471.9,459.4 471.9,459.8 464.5,459.8 "/>
<polygon class="st9" points="447.2,477.2 438.8,477.2 438.8,476.8 447,476.8 450.4,472.9 450.7,473.2 "/>
<polygon class="st9" points="471.9,477.2 464.4,477.2 460.4,473.2 460.7,472.9 464.6,476.8 471.9,476.8 "/>
<path class="st2" d="M438.4,395.9h84.3c2.3,0,4.1,1.8,4.1,4.1v8.3c0,2.3-1.8,4.1-4.1,4.1h-84.3c-2.3,0-4.1-1.8-4.1-4.1V400
	C434.3,397.7,436.1,395.9,438.4,395.9z"/>
<linearGradient id="SVGID_1_" gradientUnits="userSpaceOnUse" x1="675.6785" y1="-24.1066" x2="675.6785" y2="372.9237" gradientTransform="matrix(1 0 0 -1 -35 828.31)">
	<stop  offset="0" style="stop-color:#808080;stop-opacity:0.25"/>
	<stop  offset="0.54" style="stop-color:#808080;stop-opacity:0.12"/>
	<stop  offset="1" style="stop-color:#808080;stop-opacity:0.1"/>
</linearGradient>
<path class="st10" d="M723.8,653c-0.1-1.7-0.3-3.4-0.5-5.2c-0.8-6.4-1.6-12.8-2.8-19.2c-0.2-1.2-0.6-2.4-1-3.6
	c-0.5-1.1-1.1-2.1-1.5-3.2c0,0,0-0.1,0-0.1c0.6-0.3,1.2-0.6,1.7-0.9c0.4-0.2,0.8-0.4,1.2-0.7c0.4-0.3,0.7-0.6,0.9-1
	c1-1.8-0.1-4-0.6-6l0,0c-0.5-2.2-0.4-4.7-2-6.2c-5.6-5-2.8-15.2-5.7-22.4c-0.5-1.3-1.1-2.5-1.5-3.8c-0.3-1-0.6-2-0.8-3
	c-2-8.3-4.1-16.6-6.3-24.9c-2.3-8.6-2.1-17.5-5-25.8c-0.6-1.7-1.3-3.4-2.2-5c-1-1.7-2.3-3.1-3.9-4.2c-4.3-2.9-8.5-5.5-13.5-6.5
	s-10.4-0.9-15.5-0.9c-1.8-2.5-4.3-4.5-7.2-5.7l-0.1-0.3c-0.4-1-0.7-2.1-0.9-3.1c-0.2-1.1-0.2-2.1-0.3-3.2c0-1.2,0-2.3-0.1-3.5
	l0.3-0.3c0.7-0.7,1.3-1.5,1.8-2.3c0.5-0.8,1-1.6,1.4-2.4c0.4-0.9,0.8-1.9,1.1-2.9c0.6-2,1-4.1,1.2-6.2c0.3-2.5,0.3-5,0.4-7.5
	c0-0.5,0-1,0-1.5v-0.4c0-0.4,0-0.8,0-1.2v-0.1c0.1-2.6-0.6-5.1-1.9-7.3c-1.8-2.7-4.9-4-7.9-5.1c-6-2.1-12.6-3.5-18.5-1.2
	c-4.7,1.8-8.5,5.7-13.1,7.6l0,0c0.1,0.2,0.2,0.4,0.3,0.5c0,0,0,0.1,0,0.1c0.1,0.2,0.2,0.4,0.2,0.5l0,0c0.2,0.4,0.3,0.8,0.3,1.3l0,0
	c0.1,0.8,0.1,1.6,0,2.4c-1.4,0.6-3,0.9-4.5,0.7c0.6,1.9,1.5,3.6,2.8,5.1c0.4,0.5,0.8,1,1.3,1.5l0.6,0.8c1.1,1.3,1.9,2.7,2.6,4.2
	c0.2,0.6,0.4,1.2,0.5,1.9c0.2,1.3,0.1,2.7,0.3,4c0.1,0.5,0.2,1.1,0.4,1.6c0.8,5.3,4.1,10,8.9,12.5c0.6,4,0.6,8,0,11.9
	c0,0.2-0.1,0.4-0.1,0.7c-2.7,3.4-5.3,7-8.7,9.7c-1.5,1.2-3.2,2.2-4.9,3.1c-1,0.6-2.1,1-3.2,1.3c-1.3,0.3-2.6,0.3-3.8,0.6
	c-2.4,0.8-4.4,2.4-5.7,4.6c-0.6,1.2-1.3,2.3-2.1,3.4c-0.7,0.9-1.6,1.6-2.3,2.4c-2.7,3-3.4,7.3-4,11.4c-2.1,2.3-4.4,4.4-6.8,6.3
	c-0.8,0.6-1.6,1.1-2.5,1.5c-2.4,0.8-5-0.2-7-1.7s-3.7-3.5-5.6-5.1l-0.5,0.8c-0.1-0.1-0.3-0.3-0.4-0.5c-0.8-1.1-1.4-2.4-1.7-3.8
	c-0.7-3.7,0.6-7.6-0.4-11.2c-0.4-1.3-1.3-2.6-2.6-2.6s-2.1,1.3-3.2,1.9c-1.8,1-4,0.1-5.8-0.9s-3.8-2.1-5.8-1.5
	c-0.1,1.3,0.5,2.6,1.5,3.4c1,0.8,1.8,1.8,2.4,2.9c0.3,1.2,0.4,2.5,0.3,3.8c0.2,2.9,2,5.4,3.7,7.7c2.2,2.8,4.4,5.5,6.8,8.1l0,0
	c-0.3,0.5-0.7,0.9-1.3,1.1c-0.1,0.5-0.1,1,0,1.5c0.1,0.3,0.2,0.6,0.4,1c0.2,0.5,0.5,0.9,0.8,1.4l3.5,6.2l0.6,1
	c0.2,0.4,0.5,0.8,0.7,1.2c0.8,1.4,1.8,2.8,2.9,4c0.6,0.6,1.2,1.1,1.8,1.6c0.4,0.3,0.9,0.6,1.4,0.8c0.7,0.3,1.4,0.6,2.1,0.7
	c0.4,0.1,0.7,0.1,1.1,0.1c0.4,0,0.8,0,1.2,0c1.2-0.2,2.3-0.5,3.4-0.9c6.7-2.3,12.8-6.1,19.2-9.3c0.9-0.5,1.8-0.9,2.8-1.1
	c0.3-0.1,0.7-0.1,1-0.1c0.3,0,0.7,0.1,1,0.2c0.3,0.1,0.6,0.3,0.9,0.5c0.6,0.4,1,1,1.1,1.6c0.2,1,0.4,1.9,0.5,2.9s0.4,1.9,0.6,2.9
	c0.4,1.9,0.8,3.8,1.3,5.7c0.3,1,0.5,2.1,0.8,3.1c0.6,2.5,1.3,5.1,1.8,7.7c0.2,0.8,0.3,1.6,0.5,2.4c0.3,1.4,0.5,2.9,0.6,4.3
	c0,0,0,0.1,0,0.1c0.1,1.3,0.1,2.5,0.1,3.8v4l0.1,11.7c0,1.7-0.9,2.7-1.6,4.2c-0.1,0.3-0.3,0.6-0.4,1l0,0l0,0
	c-0.1,0.4-0.2,0.8-0.3,1.2c0,0.1-0.1,0.3-0.1,0.4s0,0.3-0.1,0.5s0,0.3,0,0.4s0,0.3,0,0.4s0,0.3,0,0.5s0,0.3,0,0.4s0,0.3,0,0.5
	s0,0.3,0,0.4s0.1,0.4,0.1,0.6l0.1,0.3c0.1,0.3,0.1,0.6,0.2,0.9c0.2,0.6,0.5,1.2,0.7,1.8s0.5,1.2,0.7,1.8c0.1,0.4,0.3,0.8,0.4,1.2
	c0,0.1,0,0.2,0.1,0.3c0.1,0.3,0.2,0.6,0.2,0.9v0.2c0.1,0.3,0.1,0.7,0.2,1c0,0,0,0.1,0,0.1c0,0.4,0.1,0.8,0.1,1.2l0,0
	c0.1,1.4,0.1,2.9,0,4.3l-0.1,7.1v0.2l0,0c0,0.2,0,0.4,0.1,0.6c0.1,0.2,0.4,0.4,0.7,0.4c0.5,0,1-0.2,1.4-0.5l3.2-2.3h0.2
	c-2.5,4.1-4.5,8.6-4.9,13.5c-0.2,3.2,0.1,6.4,0.6,9.5c2.9,21,9.8,42.2,8.4,63.4c-0.6,8.3,2.9,16.5,2.9,24.8c0,3.3-0.5,6.5-0.7,9.7
	c-0.6,13.9,6.5,28,3.6,41.6c1,3.4,4.8,5.2,5.9,8.5c0.9,2.8-0.4,5.9-1.5,8.7c-0.4,1-0.7,2-0.9,3c-2.9,0-6.1,0.1-8.1,0.9
	c-0.5,0.2-1.1,0.4-1.6,0.6c-1.8,1.1-1.9,4-0.8,5.8s7.5,7.4,9.3,8.3l4.1,2c2.2,1.2,4.5,2.1,7,2.6c2.1,0.2,4.2,0.2,6.2-0.1
	c1.6-0.2,3.3-0.4,4.4-1.7c1.5-1.8,0.7-4.8-0.3-7.5c0.4-0.3,0.6-0.7,0.8-1.1c0.2-0.7,0.3-1.4,0.3-2.1c0.3-1.4,0.8-2.7,1.4-4
	c1.7-4.1,1.6-8.7,1.5-13.1c0-7.2-0.5-14.4-1.5-21.5c-0.5-3-1.2-6-1.8-9c-2.1-10.9-3-21.9-2.7-33c0-2.7-0.3-5.4-1.1-7.9
	c-0.3-1.5-0.4-3-0.3-4.5l1.2-18.3c0.3-3.7,0.4-7.5,0.2-11.2c-0.2-2-0.5-4-0.7-6c-0.3-3.8-0.4-7.6-0.2-11.5c0.1-4.1,0.3-8.5,2.7-11.8
	c0.2-0.4,0.6-0.7,1.1-0.9c0.5-0.1,0.6,0.6,0.4,1c0.3,0.8,0.5,1.5,0.8,2.3c0.1,0.2,0.2,0.4,0.2,0.6c0.1,0.4,0.3,0.8,0.4,1.2
	s0.2,0.5,0.3,0.8l0.4,1c0.1,0.3,0.2,0.6,0.3,0.9s0.3,0.6,0.4,0.9s0.3,0.6,0.4,0.9s0.2,0.6,0.4,0.9l0.5,1c0.1,0.3,0.2,0.5,0.4,0.8
	s0.4,0.7,0.6,1.1c0.1,0.2,0.2,0.4,0.3,0.6c0.3,0.6,0.7,1.1,1,1.6l0,0c0.7,1,1.4,2,2,3.1c0.2,0.4,0.4,0.7,0.6,1.1
	c0.6,1.4,1,2.8,1.3,4.3c0.3,1.3,0.8,2.6,1.2,3.9s1,2.5,1.5,3.8c0.3,0.6,0.5,1.2,0.8,1.8c0.8,1.8,1.8,3.7,2.7,5.5
	c0.2,0.3,0.3,0.7,0.4,1c0,0.2,0.1,0.3,0.1,0.5c0,0.3,0,0.7,0,1c0,0.2,0,0.4-0.1,0.6c-0.1,0.3-0.1,0.6-0.3,0.9
	c-1.2,2.8-0.2,5.6,0.3,8.3c0.5,2.9,0.7,5.9,0.7,8.8c0,1,0,2,0.1,2.9c0,1.2,0,2.4,0.1,3.7s0,2.6,0.1,3.9c0,1.3,0,2.6-0.2,3.9
	c0,0.5-0.1,0.9-0.2,1.4c-0.2,1.3-0.5,2.7-0.8,4c-1,5.3-1.5,10.6-1.4,16c0,2.2,0.1,4.3,0.2,6.5c0.1,2.2,0.3,4.3,0.5,6.5
	c0.1,1.2,0.2,2.4,0.3,3.6c0.2,2.1,0.4,4.1,0.6,6.2s0.5,4.3,0.7,6.5s0.4,4.3,0.5,6.4c0.1,1.1-0.1,2.1-0.6,3.1
	c-0.2,0.4-0.4,0.8-0.5,1.2c-0.1,0.3-0.2,0.6-0.2,0.8c-0.1,0.3-0.1,0.7-0.1,1c0,0.7,0,1.4,0.1,2.1c0.1,0.3,0.1,0.7,0.2,1
	c0.2,0.7,0.3,1.4,0.5,2.1c0.4,1.9,1.1,3.7,2,5.4c0.2,0.3,0.4,0.7,0.7,1c0.1,0.1,0.2,0.2,0.2,0.3c0.2,0.2,0.4,0.5,0.6,0.8
	c0.1,0.1,0.2,0.3,0.2,0.4c0.2,0.6,0.2,1.2,0.1,1.7c-0.1,0.6-0.3,1.2-0.5,1.8l0,0l0.5,0.1c-0.7,2.3-1.1,4.7,0.2,6.2
	c1,1.3,2.8,1.6,4.4,1.7c2.1,0.3,4.1,0.4,6.2,0.1c2.5-0.5,4.8-1.4,7-2.6l4.1-2c1.9-0.9,8.2-6.5,9.3-8.4s1-4.7-0.8-5.8
	c-0.5-0.3-1-0.5-1.6-0.7c-1.8-0.8-4.7-0.8-7.4-0.9c-0.1-1-0.2-2.1-0.3-3.1c-0.2-3.8-0.1-7.7,0.2-11.5c0.2-2.7,0.6-5.4,0.5-8.1
	c0-3.6-0.8-7.2-1.1-10.8s-0.4-7.1-0.5-10.7c-0.1-5.2,1.5-10.2,2.1-15.4l1.2-9.1c0.2-1.1,0.2-2.2,0.1-3.3c-0.2-1-0.6-2-0.8-3
	c-0.4-2.3,0.6-4.5,0.9-6.8c0.4-2.6-0.2-5.3-0.6-7.9c-0.5-4.2-0.7-8.4-0.7-12.6c-0.4-25.8-1.1-52.2-9.8-76.3c-0.3-1-0.7-2-1.1-2.9
	c0.2,0,0.3-0.1,0.5-0.2c0.3-0.1,0.5-0.2,0.8-0.4c0.1-0.1,0.2-0.1,0.3-0.2c0.3-0.3,0.5-0.6,0.6-1c0.1-0.4,0.2-0.7,0.2-1.1
	c0-0.7-0.1-1.3-0.3-2l-0.1-0.4c-0.2-0.7-0.4-1.3-0.7-2l0,0c-0.2-0.7-0.5-1.3-0.7-1.9c-0.5-1.2-0.9-2.4-1.3-3.7
	c-0.6-2.8,0-6.1-1.7-8.4c-3.8-5.2-1.1-13.1-2.7-19.5c-0.5-2-1.3-4-1.8-6c-0.3-1.3-0.5-2.6-0.7-3.9c-0.5-2.8-0.7-5.7-0.7-8.6
	c0-1.4,0.2-2.9,0.4-4.3l1.2-9.9c1.3,2.6,2.3,5.3,2.8,8.2c0.1,0.4,0.2,0.8,0.3,1.2c1.1,4.9,2.4,9.7,4,14.5c0.9,2.9,1.8,5.7,2.8,8.6
	c0.3,0.8,0.6,1.6,0.8,2.5c0.3,0.8,0.5,1.7,0.6,2.5c0.1,0.7,0.2,1.4,0.2,2.1s0.1,1.4,0.2,2.1c0.3,3,1.3,5.8,2.9,8.3
	c0,0.1,0.1,0.1,0.1,0.2c0.3,0.5,0.7,0.9,1.2,1.1l0,0c0.4,0.1,0.7,0.1,1.1,0h0.1c0.5-0.1,1.1-0.2,1.6-0.4c0.1,0,0.2,0,0.2-0.1
	c0.2,3.1,1.2,6.2,1.2,9.3c0.1,4.5-1.6,8.9-2.6,13.3c-0.9,4-1.5,8.1-1.8,12.2c-0.1,0.8-0.1,1.6,0.2,2.4c0.2,0.8,1,1.3,1.8,1.2
	c0.6-0.2,1-0.6,1.3-1.2c1.2-2,1.6-4.3,1.1-6.6c1,0.2,1.4,1.3,1.7,2.3c0.6,2.6,0.5,5.3-0.4,7.7c-0.6,1.7-1.5,3.2-2,4.9
	c-0.2,0.5-0.2,1.1,0,1.6c0.5,1.2,2.1,1.1,3.2,0.7c3.7-1.5,6.8-4.4,8.5-8C723.1,661,723.9,657,723.8,653z"/>
<path class="st11" d="M665.5,850.5c-1.1,1.3-2.9,1.5-4.6,1.7c-2.1,0.3-4.3,0.3-6.5,0.1c-2.5-0.5-5-1.4-7.3-2.6l-4.2-2
	c-1.9-0.9-8.5-6.5-9.7-8.3s-1.1-4.7,0.8-5.7c0.5-0.3,1.1-0.5,1.6-0.6c3.1-1.2,9.4-0.6,12.8-1.1c1.6-0.1,3.3,0.3,4.7,1.1
	c3.3,1.5,9.1,2.6,10.5,6.3C664.7,842.2,667.8,847.7,665.5,850.5z"/>
<path class="st11" d="M689,847.8c1.1,1.3,2.9,1.5,4.6,1.7c4.7,0.9,9.6,0,13.7-2.5l4.2-2c1.9-0.9,8.5-6.5,9.7-8.3s1.1-4.7-0.8-5.7
	c-0.5-0.3-1.1-0.5-1.6-0.6c-3.1-1.2-9.4-0.6-12.8-1.1c-1.6-0.1-3.3,0.3-4.7,1.1c-3.3,1.5-9,2.6-10.5,6.3
	C689.7,839.5,686.7,845,689,847.8z"/>
<path class="st11" d="M699.3,645.6c1,2,1.9,4,2.7,6.1c9.1,24,9.8,50.3,10.2,75.9c0,4.2,0.2,8.3,0.7,12.5c0.4,2.6,1,5.3,0.6,7.9
	c-0.3,2.3-1.4,4.5-1,6.8c0.2,1,0.7,2,0.9,3c0.1,1.1,0.1,2.2-0.1,3.3l-1.2,9.1c-0.7,5.2-2.3,10.1-2.2,15.3c0.1,3.5,0.1,7.1,0.5,10.6
	c0.6,3.6,1,7.1,1.2,10.7c0,2.7-0.3,5.4-0.6,8.1c-0.3,3.8-0.4,7.6-0.2,11.4c0.1,2.9,0.5,6,2,8.5c-1.8,2.5-3.5,4.7-6.3,6
	c-5.7,2.5-12.2,1.6-18.3,0.8c0.3-1.1,0.9-2.4,0.4-3.5c-0.3-0.5-0.6-1-1-1.4c-1.3-1.9-2.3-4.1-2.7-6.3c-0.7-2.7-1.5-5.6,0-8.2
	c0.5-0.9,0.8-2,0.7-3c-1.3-17-5.1-34.6-1.6-51.3c0.4-1.8,0.8-3.6,1-5.4c0.2-2.6,0.2-5.2,0.1-7.8l0-3.7c-0.2-3.9,0-7.8-0.8-11.7
	c-0.5-2.7-1.6-5.5-0.3-8.3c0.6-1.3,0.5-2.8-0.2-4c-2.7-4.7-4.9-9.7-6.5-14.9c-0.3-1.4-0.8-2.9-1.4-4.2c-0.8-1.4-1.7-2.8-2.7-4.1
	c-3-4.4-4.9-9.5-6.6-14.6c0.2-0.5,0-1.1-0.5-1c-0.5,0.1-0.9,0.4-1.2,0.9c-2.4,3.3-2.7,7.7-2.8,11.8c-0.2,3.8-0.1,7.6,0.2,11.4
	c0.2,2,0.5,4,0.7,6c0.2,3.7,0.2,7.4-0.2,11.1l-1.2,18.1c-0.2,1.5-0.1,3,0.3,4.5c0.8,2.6,1.2,5.2,1.2,7.9c-0.3,11,0.7,22,2.9,32.8
	c0.6,3,1.3,5.9,1.8,8.9c1,7.1,1.6,14.3,1.5,21.4c0.1,4.4,0.2,9-1.6,13c-0.7,1.3-1.2,2.6-1.5,4c0,0.7-0.1,1.4-0.3,2.1
	c-0.5,1.3-2,1.9-3.4,2.2c-2.6,0.6-5.2,0.7-7.9,0.6c-0.6,0-1.2-0.1-1.8-0.4c-1-0.5-1.5-1.6-2.3-2.4c-1.6-1.8-4.3-2.3-5.8-4.2
	c-1.8-2.4-1.1-5.8,0-8.5s2.4-5.8,1.5-8.6c-1.1-3.3-5-5.1-6.1-8.5c3-13.5-4.4-27.5-3.8-41.4c0.2-3.2,0.7-6.4,0.7-9.7
	c0-8.3-3.6-16.4-3-24.7c1.5-21.1-5.7-42.2-8.7-63.1c-0.6-3.1-0.8-6.3-0.6-9.5c0.5-5.2,2.9-10.1,5.8-14.5c2.1-3.1,4.6-6.2,8.1-7.7
	c2.9-1.2,6.1-1.2,9.2-1.2c7.7,0.1,15.5,0.1,23.2,0.3c5.3-0.1,10.5,0.4,15.7,1.4C691.1,643,695.1,645,699.3,645.6z"/>
<g class="st12">
	<path d="M667.4,688.8c0.3-0.4,0.7-0.7,1.2-0.9c0.5-0.1,0.7,0.6,0.5,1c1.8,5,3.6,10.2,6.6,14.6c1,1.3,1.9,2.7,2.7,4.1
		c0.6,1.4,1,2.8,1.4,4.2c1.6,5.2,3.8,10.2,6.5,14.9c0.7,1.2,0.8,2.7,0.2,4c-1.3,2.8-0.2,5.6,0.3,8.3c0.8,3.8,0.6,7.8,0.8,11.7
		c0,1.2,0,2.4,0.1,3.6c0.1,2.6,0.1,5.2-0.1,7.8c-0.2,1.8-0.7,3.6-1,5.4c-3.5,16.7,0.3,34.3,1.6,51.3c0.1,1-0.1,2.1-0.7,3
		c-1.5,2.6-0.8,5.5,0,8.2c0.5,2.3,1.4,4.4,2.7,6.3c0.4,0.4,0.7,0.9,1,1.4c0.5,1.1,0,2.4-0.4,3.5c2.7,0.4,5.4,0.7,8.2,0.9
		c-3.6,0-7.1-0.3-10.6-0.9c0.3-1.1,0.9-2.4,0.4-3.5c-0.3-0.5-0.6-1-1-1.4c-1.3-1.9-2.3-4.1-2.7-6.3c-0.7-2.7-1.5-5.6,0-8.2
		c0.5-0.9,0.8-2,0.7-3c-1.3-17-5.1-34.6-1.6-51.3c0.4-1.8,0.8-3.6,1-5.4c0.2-2.6,0.2-5.2,0.1-7.8c0-1.2,0-2.4-0.1-3.6
		c-0.2-3.9,0-7.8-0.8-11.7c-0.5-2.7-1.6-5.5-0.3-8.3c0.6-1.3,0.5-2.8-0.2-4c-2.7-4.7-4.9-9.7-6.5-14.9c-0.3-1.4-0.8-2.9-1.4-4.2
		c-0.8-1.4-1.7-2.8-2.7-4.1c-2.9-4.2-4.7-9-6.4-13.9C667,689.4,667.2,689.1,667.4,688.8z"/>
</g>
<path class="st13" d="M574.3,549.4c-0.8-3.7,0.7-7.6-0.4-11.2c-0.4-1.3-1.4-2.6-2.7-2.6s-2.2,1.3-3.4,1.9c-1.9,1-4.2,0.1-6-0.9
	s-4-2.1-6-1.5c-0.2,1.3,0.6,2.5,1.6,3.4c1,0.8,1.9,1.8,2.5,2.9c0.5,1.2,0.3,2.5,0.3,3.8c0.2,2.9,2,5.4,3.9,7.7
	c3,3.6,6.1,7.1,9.4,10.5c0,0,5-6.2,4.9-7.3s-1.8-2-2.4-2.8C575.1,552.1,574.6,550.8,574.3,549.4z"/>
<path class="st13" d="M724.3,626.2c0.4,1.2,0.8,2.4,1,3.6c1.3,6.3,2.1,12.7,2.9,19.1c0.2,1.7,0.4,3.4,0.5,5.1
	c0.2,4.1-0.6,8.1-2.4,11.8c-1.8,3.7-5,6.5-8.8,8c-1.2,0.4-2.8,0.5-3.3-0.6c-0.2-0.5-0.2-1.1,0-1.6c0.5-1.7,1.4-3.2,2-4.9
	c0.9-2.5,1.1-5.1,0.4-7.7c-0.2-1-0.8-2.1-1.7-2.3c0.5,2.3,0.1,4.6-1.2,6.6c-0.3,0.5-0.8,1-1.3,1.1c-0.8,0.1-1.6-0.4-1.9-1.2
	c-0.2-0.8-0.3-1.6-0.2-2.4c0.3-4.1,0.9-8.2,1.9-12.2c1.1-4.4,2.8-8.7,2.7-13.3c-0.1-4.1-1.7-8.1-1.3-12.2c0-0.5,0.3-0.9,0.7-1
	c1.1-0.5,2.3-0.9,3.5-1.2c0.7-0.2,3.1-1,3.8-0.6s0.7,2.1,1,2.8C723.2,624.1,723.9,625.1,724.3,626.2z"/>
<circle class="st13" cx="643.4" cy="488" r="16.8"/>
<path class="st13" d="M658.4,500.1c0,1.1,0.1,2.1,0.3,3.2c0.2,1.1,0.6,2.1,1,3.1c0.6,1.6,1.3,3.2,2.3,4.6c1,1.4,2.5,2.4,4.2,2.8
	c-11.5,5.4-23.7,8.9-36.2,10.5c2-1.3,3.6-3.1,4.8-5.1c0.6-1.3,1.1-2.7,1.3-4.2c1.1-6.1,0.5-12.3-1.6-18.1c-0.2-0.6-0.4-1.3,0-1.7
	c0.2-0.2,0.4-0.3,0.6-0.4c5-2.1,10.3-3.1,15.7-2.9c1.4,0,2.8,0.1,4.1,0.2c0.7,0.1,2.4-0.1,3,0.4s0.3,2.7,0.4,3.5L658.4,500.1z"/>
<path class="st14" d="M667.3,512.3c-5.1-6.5-13.9-8.7-21.4-5.3c-8,3.8-11.9,13-18.9,18.3c-1.6,1.2-3.3,2.2-5.1,3.1
	c-1.1,0.6-2.2,1-3.3,1.3c-1.3,0.3-2.7,0.3-4,0.6c-2.5,0.7-4.6,2.4-5.9,4.6c-0.7,1.2-1.4,2.3-2.2,3.4c-0.7,0.9-1.6,1.6-2.4,2.4
	c-2.8,3-3.5,7.3-4.2,11.3c-2.2,2.3-4.6,4.4-7.1,6.3c-0.8,0.6-1.7,1.1-2.6,1.5c-2.5,0.8-5.2-0.2-7.3-1.7s-3.8-3.5-5.8-5
	c-1.9,2.7-3.9,5.4-5.9,8c-0.3,0.5-0.8,0.9-1.3,1.1c-0.4,1.3,0.5,2.6,1.2,3.7l3.7,6.1c1.2,2.2,2.7,4.3,4.4,6.2c1.8,1.8,4.2,3,6.7,3.1
	c1.6,0,3.2-0.3,4.7-0.9c7-2.3,13.3-6.1,20-9.3c1.2-0.7,2.5-1.1,3.9-1.2c1.4,0,2.7,0.9,3.1,2.2c0.8,3.8,1.5,7.7,2.5,11.4
	c1,3.6,1.9,7.1,2.8,10.7c0.6,2.2,1,4.4,1.2,6.7c0.1,1.3,0.1,2.6,0.1,3.8l0.1,15.5c0,1.7-0.9,2.7-1.7,4.2c-1.1,2.3-1.3,5-0.5,7.5
	c0.4,1.2,1.1,2.3,1.5,3.5c1.1,2.9,1.1,6.1,1,9.2l-0.1,7.1c0,0.3,0,0.6,0.2,0.9c0.4,0.7,1.5,0.3,2.1-0.2l3.3-2.2
	c4.4,0.6,8.9,0.8,13.4,0.7c12.7-0.2,25.4,0.3,38.1,1.2c4.2,0.3,8.6,0.6,12.6-0.8c2-0.7,3.9-1.9,6-2.4c0.9-0.1,1.7-0.5,2.4-1
	c1.2-1.1,0.8-3,0.4-4.5c-0.4-1.3-0.9-2.6-1.4-3.9c-0.5-1.2-1-2.4-1.3-3.7c-0.6-2.8,0-6.1-1.8-8.4c-3.9-5.2-1.2-13.1-2.8-19.3
	c-0.5-2-1.3-4-1.8-6c-0.3-1.3-0.5-2.6-0.7-3.9c-0.5-2.8-0.8-5.7-0.8-8.5c0-1.4,0.2-2.9,0.4-4.3l1.3-9.9c1.6,2.9,2.6,6.1,3.2,9.3
	c1.1,4.9,2.5,9.7,4.2,14.4c0.9,2.8,1.9,5.7,2.9,8.5c0.7,1.6,1.2,3.3,1.5,5c0.2,1.4,0.2,2.8,0.4,4.1c0.3,3,1.4,5.8,3,8.3
	c0.3,0.6,0.8,1,1.4,1.3c0.4,0.1,0.8,0.1,1.2,0c4.4-0.9,8.7-2.4,12.7-4.4c0.9-0.4,1.6-0.9,2.2-1.7c1.1-1.8-0.1-4-0.7-6
	s-0.4-4.7-2.1-6.1c-5.9-5-3-15.1-5.9-22.3c-0.5-1.3-1.1-2.5-1.6-3.7c-0.3-1-0.6-2-0.8-3c-2-8.3-4.2-16.5-6.6-24.8
	c-2.4-8.5-2.2-17.4-5.2-25.7c-0.6-1.7-1.3-3.4-2.2-5c-1-1.7-2.4-3.1-4-4.2c-4.4-2.9-8.9-5.4-14.1-6.5S672.6,512.3,667.3,512.3z"/>
<path class="st14" d="M628.2,492.1c-2.3-1.2-1.7-4.5-2-7c-0.8-5.2-6.7-8.3-8-13.4c1.6,0.2,3.2,0,4.7-0.7c0.3-1.7-0.1-3.4-0.9-4.9
	c4.8-2,8.8-5.8,13.7-7.6c6.2-2.2,13-0.9,19.3,1.2c3.1,1,6.3,2.4,8.2,5c2.1,3,2,6.8,1.9,10.4c-0.2,5.6-0.4,11.5-2.9,16.5
	c-3.2,6.4-12.2,12.4-19.7,10.6c-3.1-0.7-4-2.7-5.3-5.4c-0.8-1.7-1.1-3.6-3-4.5S630,493,628.2,492.1z"/>
<g class="st12">
	<path d="M624.5,646C624.5,646,624.5,646,624.5,646c0.4,0.8,1.5,0.4,2.1-0.1l3.3-2.3c4.4,0.6,8.9,0.8,13.4,0.6
		c12.7-0.2,25.4,0.3,38.1,1.2c4.2,0.3,8.6,0.6,12.6-0.8c2-0.7,3.9-1.9,6-2.4c0.7-0.1,1.4-0.4,2.1-0.7c0.2,0.7,0.5,1.3,0.7,2
		c0.5,1.5,0.8,3.4-0.4,4.5c-0.7,0.5-1.5,0.9-2.4,1c-2.1,0.6-4,1.7-6,2.4c-4,1.4-8.4,1.1-12.6,0.8c-12.7-0.9-25.4-1.4-38.1-1.2
		c-4.5,0.2-8.9,0-13.4-0.7l-3.3,2.3c-0.7,0.5-1.7,0.8-2.1,0.2c-0.1-0.3-0.2-0.6-0.2-0.9C624.4,650,624.5,648,624.5,646z"/>
	<path d="M697.1,584.9c-0.6-3.3-1.7-6.4-3.2-9.3l-1.3,9.9c-0.1,0.6-0.2,1.2-0.2,1.9c-0.2-1.4-0.2-2.9-0.2-4.3c0-1.4,0.2-2.9,0.4-4.3
		l1.3-9.9c1.6,2.9,2.6,6.1,3.2,9.3c1.1,4.9,2.5,9.7,4.2,14.4c0.9,2.8,1.9,5.7,2.9,8.5c0.7,1.6,1.2,3.3,1.5,5
		c0.2,1.4,0.2,2.8,0.4,4.1c0.3,3,1.4,5.8,3,8.3c0.3,0.6,0.8,1,1.4,1.3c0.4,0.1,0.8,0.1,1.2,0c4.4-0.9,8.7-2.4,12.7-4.4
		c0.5-0.3,1-0.6,1.5-1l0,0c0.5,2,1.7,4.2,0.7,6c-0.6,0.7-1.3,1.3-2.2,1.7c-4,2-8.3,3.5-12.7,4.4c-0.4,0.1-0.8,0.1-1.2,0
		c-0.6-0.2-1.1-0.7-1.4-1.3c-1.6-2.5-2.7-5.3-3-8.3c-0.2-1.4-0.2-2.8-0.4-4.1c-0.3-1.7-0.8-3.4-1.5-5c-1-2.8-2-5.7-2.9-8.5
		C699.7,594.6,698.2,589.8,697.1,584.9z"/>
	<path d="M696.1,612.2c0,0.4,0,0.9,0,1.3C696.1,613,696.1,612.6,696.1,612.2z"/>
	<path d="M623.5,629c1.1,2.9,1.1,6.1,1,9.2c0,0.8,0,1.6,0,2.4c-0.1-1.7-0.4-3.3-1-4.9c-0.5-1.2-1.1-2.3-1.5-3.5
		c-0.7-2.1-0.7-4.4,0.1-6.5C622.5,626.8,623.1,627.8,623.5,629z"/>
	<path d="M571.1,561l0.6-0.7l3,5c1.2,2.2,2.7,4.3,4.4,6.2c1.8,1.9,4.1,3,6.7,3.3c1.6,0,3.2-0.3,4.7-0.9c7-2.3,13.3-6.1,20-9.3
		c1.2-0.7,2.5-1.1,3.9-1.2c1.4,0,2.7,0.9,3.1,2.2c0.8,3.8,1.5,7.7,2.5,11.4c1,3.6,1.9,7.1,2.8,10.7c0.6,2.2,1,4.4,1.2,6.7
		c0.1,1.3,0.1,2.6,0.1,3.8l0.2,15.5c0,0.2,0,0.5-0.1,0.7l-0.1-9.5c0-1.3,0-2.6-0.1-3.8c-0.2-2.3-0.6-4.5-1.2-6.7
		c-0.9-3.6-1.8-7.2-2.8-10.7c-1-3.8-1.8-7.6-2.5-11.4c-0.4-1.4-1.7-2.3-3.1-2.2c-1.4,0.1-2.7,0.5-3.9,1.2c-6.6,3.2-13,6.9-20,9.3
		c-1.5,0.6-3.1,0.9-4.7,0.9c-2.6-0.2-4.9-1.4-6.7-3.3c-1.7-1.9-3.2-3.9-4.4-6.2c-1.2-2-2.4-4.1-3.7-6.1c-0.7-1.1-1.6-2.5-1.2-3.7
		C570.3,561.8,570.7,561.5,571.1,561z"/>
</g>
<g class="st12">
	<path d="M622.8,468.6L622.8,468.6c-0.1-0.9-0.5-1.7-0.9-2.5c0.3-0.1,0.6-0.2,0.8-0.4C622.9,466.7,622.9,467.6,622.8,468.6z"/>
	<path d="M626.1,482.6c0.4,2.5-0.2,5.8,2,7c1.8,1,4-0.4,5.8,0.5s2.1,2.8,3,4.5c1.3,2.7,2.2,4.7,5.3,5.4c7.5,1.7,16.5-4.2,19.7-10.7
		c2.5-5,2.7-10.9,2.9-16.5c0-0.3,0-0.5,0-0.8c0,1.1,0,2.2,0,3.3c-0.2,5.6-0.4,11.5-2.9,16.5c-3.2,6.4-12.2,12.4-19.7,10.6
		c-3.1-0.7-4-2.7-5.3-5.4c-0.8-1.7-1.1-3.6-3-4.5s-4,0.5-5.8-0.4c-2.3-1.2-1.7-4.5-2-7c-0.8-5.2-6.7-8.3-8-13.4
		c0.4,0,0.7,0.1,1.1,0.1C621.4,475.5,625.5,478.3,626.1,482.6z"/>
</g>
<path class="st2" d="M235.4,771.2c-2.8-1.5-5.7-2.5-8.8-3.1c2.2-0.3,4.4-0.8,6.6-1.5c5.7-1.8,8.6-4.2,6.4-5.4s-8.5-0.7-14.3,1.1
	c-1.9,0.6-3.8,1.4-5.5,2.4c-0.6-1.3-2.2-2.7-4.7-4.1c-5.1-2.8-11.9-4.2-15.2-3.1s-1.9,4.2,3.1,7c2.5,1.3,5.1,2.3,7.9,2.9
	c-1.8,0.2-3.6,0.6-5.4,1c-6.2,1.5-9.8,3.8-8,5s8.3,1.1,14.5-0.4c2.3-0.5,4.5-1.3,6.5-2.3c0.5,1.3,2.1,2.8,4.8,4.3
	c5.1,2.8,11.9,4.2,15.2,3.1S240.5,774,235.4,771.2z"/>
<path class="st2" d="M160.9,675.1c-1.7-0.9-3.6-1.6-5.5-1.9c1.4-0.2,2.8-0.5,4.1-0.9c3.6-1.1,5.4-2.7,4-3.4s-5.3-0.4-8.9,0.7
	c-1.2,0.3-2.4,0.9-3.4,1.5c-0.7-1.1-1.8-2-3-2.5c-3.2-1.8-7.4-2.6-9.5-2s-1.2,2.6,2,4.4c1.6,0.8,3.3,1.5,5,1.8
	c-1.1,0.1-2.3,0.3-3.4,0.6c-3.9,0.9-6.1,2.3-5,3.2s5.2,0.7,9.1-0.2c1.4-0.3,2.8-0.8,4.1-1.4c0.7,1.2,1.7,2.1,3,2.7
	c3.2,1.8,7.4,2.6,9.5,2S164.1,676.9,160.9,675.1z"/>
<ellipse class="st2" cx="771.5" cy="816.2" rx="32.3" ry="6.2"/>
<ellipse class="st14" cx="770.9" cy="813.6" rx="3.8" ry="4.9"/>
<ellipse class="st14" cx="770.9" cy="807.5" rx="3.8" ry="4.9"/>
<ellipse class="st14" cx="770.9" cy="801.5" rx="3.8" ry="4.9"/>
<ellipse class="st14" cx="770.9" cy="795.5" rx="3.8" ry="4.9"/>
<ellipse class="st14" cx="770.9" cy="789.5" rx="3.8" ry="4.9"/>
<ellipse class="st14" cx="770.9" cy="783.5" rx="3.8" ry="4.9"/>
<ellipse class="st14" cx="770.9" cy="777.5" rx="3.8" ry="4.9"/>
<path class="st2" d="M785,736.3c0.5-0.7,1-1.3,1.4-2.1l-9.9-1.6l10.7,0.1c2.1-4.5,2.2-9.7,0.3-14.3l-14.3,7.4l13.2-9.7
	c-5-8.6-16-11.5-24.6-6.5c-8.6,5-11.5,16-6.5,24.6c0.4,0.7,0.9,1.4,1.4,2c-0.8,1-1.5,2.1-2.1,3.3l12.8,6.7l-13.7-4.6
	c-0.6,1.9-0.9,3.8-1,5.8c0,4,1.4,8,3.9,11.1c-6.1,7.8-4.8,19.1,3,25.3s19.1,4.8,25.3-3c5.1-6.5,5.1-15.7,0-22.2
	C790.2,752,790.1,742.8,785,736.3z"/>
<path class="st1" d="M752.8,747.4c0,4,1.4,8,3.9,11.1c-6.1,7.8-4.8,19.1,3,25.3s19.1,4.8,25.3-3c5.1-6.5,5.1-15.7,0-22.2
	C787.4,755.5,752.8,745.4,752.8,747.4z"/>
</svg>
