<?xml version="1.0" encoding="utf-8"?>
<!-- Generator: Adobe Illustrator 24.2.1, SVG Export Plug-In . SVG Version: 6.00 Build 0)  -->
<svg version="1.1" id="aea587a3-a3e8-4e0f-8220-a5d1e661ad74"
	 xmlns="http://www.w3.org/2000/svg" xmlns:xlink="http://www.w3.org/1999/xlink" x="0px" y="0px" viewBox="0 0 1509 603.7"
	 style="enable-background:new 0 0 1509 603.7;" xml:space="preserve">
<style type="text/css">
	.st0{opacity:0.56;fill:#FFB8B8;}
	.st1{fill:#2F2E41;}
</style>
<path class="st0" d="M1218.7,265.8c-1.8-4.6,0.8-6.9,1.8-11c1-4.1-2.3-16.9-2.3-16.9s-10.8-44.3-14.1-53c-1.4-3.7-4.5-6.2-7.5-7.9
	c-0.2-1.1-0.5-1.9-0.9-2.1c-3-1.5-10.4-4.7-15.3-5.6c-0.9-1.6-2-3.1-3.3-4.4c0.9-1.7,1.3-3.5,1.2-5.4c-0.3-4.8-4-9.2-3.5-14
	c0.4-3.7,3-6.7,4.1-10.2c0.9-3.2,0.4-6.6-1.4-9.4c0.8,0.8,1.5,1.6,2.3,2.4c2.1-3.2,1.9-7.4-0.6-10.3c-2.4-2.7-6.4-3.6-8.3-6.7
	c-1.9-3.1-0.9-7.4-2.7-10.6c-4.4-7.8-15.8-2.3-22.6-5c-2.8-1.1-4.9-2.4-8.1-2.3c-2.7,0.2-5.3,0.6-7.9,1.5c-3.7,1.1-6.8,3.3-9,6.5
	c0.2-0.2,0.5-0.5,0.7-0.7c1.6-1.3,4.5-1.2,5.4,0.7c0.2,0.5,0.3,1,0.3,1.5c-0.1,2.3-2.1,4-4.1,5.2c-2,1.1-4.2,2.1-5.5,4
	c-2.1,3.1-0.9,7.3-0.9,11.1c0,4.9-2.3,9.5-6.1,12.5l7.2-3c-3.5,6-5.7,12.7-6.7,19.6l9.8-8.1c-3.6,5.8-5.8,12.3-6.4,19.1l7.8-8
	c0.4,0.6,0.5,1.3,0.5,2.1l-0.8,3.2c-0.3,0.6-0.6,1.2-1,1.8c-1.3,2.2-2.6,4.8-1.4,7.1l0,0c-1.2,4.2-3.1,8.4-7.3,10.4
	c4.6,0.5,9.5-1.8,11.5-5.5c0.3,0.7,0.8,1.3,1.2,1.9c0.1,0.2,0.3,0.3,0.4,0.5l-1.2,0.8l-3.1,2.1c0,0-20.2,4.1-19,11.8
	c0.1,0.3,0.1,0.7,0.2,1.1l-5.8,9.9l-8.5,28.7c0,0-4.4,9.2-3.6,13.1c0.8,3.8,0,5.4,0,12.3s-3.3,9.7,0,15.4c3.3,5.6,13.3,22,13.3,22
	l2.2,1.6c-0.1,1-0.1,2,0.1,3c2,10.3,21.3,108.4,21.3,108.4s-9.7,77.6,10,82.5c2.5,0.6,4.9,1.2,7.3,1.7l3,19.6l-1.8,24.9
	c0,0-13.6,30.8,11.3,32.5c24.9,1.8,13.6-26.7,13.6-26.7c1.3-2.4,1.8-5.2,1.5-7.9c-0.3-2.3-2.4-14.2-4.5-25.6
	c9.4-1.1,7.7-11.1,6.4-15.5c0.5-0.3,1-0.8,1.1-1.4c0.3-1-0.4-5-1.6-10.7c-1-5.6-2.6-14.7-3.8-20.8l6.1,1l25.9-151.7
	c0,0,0.2-2.4,0.1-5.9c3.5-1.8,7.2-3.4,10.9-4.8c8.5-3.3,11.8-15.6,14.6-20.8S1220.5,270.4,1218.7,265.8z M1126.9,169.2
	c0.8-0.6,1.8-0.9,2.8-1c-0.2,1.2-2.3,1.5-4,2.2C1126,169.9,1126.4,169.5,1126.9,169.2L1126.9,169.2z M1113.9,245.5
	c2.1,3.4-1.7,12.7-5.1,20c-1.9-1.7-4-1.1-1.6-5.9c1.6-3,2.6-6.3,2.8-9.7c0-0.6,0.3-4.9,2.8-6.7
	C1113.2,244,1113.5,244.8,1113.9,245.5L1113.9,245.5z M1106.2,275c1.2-0.5,3-1.2,5.4-2c-1.2,1.5-2.5,3.3-3.8,5.3
	C1106.7,277.4,1106.1,276.2,1106.2,275L1106.2,275z M1189.3,278.3c-1.6-1.7-2.8-3.1-3.9-4.5c1.9,0.5,3.9,1.1,5.9,1.6
	c1,0.1,2,0.1,3-0.2c0.1,1.8,0.1,4.3,0.1,4.3l-2.8,1.9C1191,280.4,1190.2,279.3,1189.3,278.3L1189.3,278.3z M1197.2,269.4
	C1197.2,269.5,1197.2,269.5,1197.2,269.4c-0.2-0.9-0.5-1.9-0.8-2.9c-1.7-5.3-2.6-14.7-3.1-22.7l4.8,16.3
	C1198.2,260.1,1198.5,268.3,1197.2,269.4L1197.2,269.4z"/>
<path class="st0" d="M1097.7,202.1c0,0-26.3-45.2-27.1-50.1c-0.8-4.9-14-14-14-14c-4.5-4.5-11.9-5.9-19.6-5.8c2.9-2.4-7.5-4-8.3-5.7
	c-0.8-1.6-3.3-1.6-6.6-4.1c-3.3-2.5-11.5-0.4-11.5-0.4c-1.2-2.6-2.1-5.4-2.5-8.2c3.5-4.1,5.4-9.4,5.4-14.8c0-0.1,0-0.1,0-0.2
	c0.2,0.3,0.4,0.7,0.6,1c1.5-9.2,4.3-16.9-0.9-25.3c-3.7-6-9.4-10.4-16.1-12.3l-4.9,3.9l1.9-4.6c-1.6-0.2-3.2-0.3-4.9-0.3l-4.4,5.7
	l1.8-5.5c-7.8,1-14.8,5.1-19.4,11.5c-5.6,8.1-5.3,19.5,0.3,27.7c0-0.1,0-0.1,0.1-0.2c0.5,7.8,4.9,14.8,11.8,18.6l1.4,11.2l0,0
	c-1.3,1.2-2.9,1.9-4.6,2c-2.5,0-4.9,6.6-4.9,6.6s-1.4,0.7-2.9,4c-3.9,2.6-15.7,10.9-20.1,16.7c-2.6,1.3-5.4,4.1-4.9,10.5
	c0.8,11.5,0,64.9,0,64.9s-7.4,45.2-4.9,48.5s-0.8,14-0.8,14l2.5,0.5v2.7c0,0-7.4,34.4,4.1,32.9c18.9-2.5,4.9-30.4,4.9-30.4v-3.2
	l3.3,0.7c0,0,1.6-11.5,4.9-12.3c1.1-0.3,2.5-3.4,3.7-7.2c0.7,6.1,1.2,9.7,1.2,9.7l5.1-1.1l1.4,5.3c0.4,0.2,0.7,0.4,1.1,0.5l-1.1,6.1
	c0,0-0.8,6.6,0,10.7c0.4,2.1,15.7,46.4,30.7,89.7l-0.3,10.5c0,0-7.4,8.2-5.8,14s-4.1,53.4-4.1,53.4l-4.9,23.8l1.2,0.4l-1.1,4.2
	c-1,0.5-1.9,1.2-2.6,2c-6.6,7.4-14.8,28.8-14.8,28.8s-14.8,22.2,8.2,21.4s24.6-9,24.6-9s3.3-21.4,3.3-22.2s-1.6-9.3-1.6-9.3
	l-0.6-0.7l0.4-10.2l4.3,1.3c0,0,4.1-21.4,7.4-23.8c1.1-0.9,4.2-10.5,7.7-22.8c3.6,10.3,7,45.8,8.1,49c-0.4,0.5-0.7,1.1-1,1.7
	c-3.7,7.1-7.8,13.9-12.3,20.5c0,0-26.3,15.6,0,19.7c0,0,14.8,0.8,22.2-4.1c7.4-4.9,27.1-12.3,27.1-14s-4.9-25.8-9.9-23.2l0,0
	l-3.3-7.6l3.3-1.3l-20.8-93.4c0.5-2,0.9-4,1.1-6c0-4.3,10.6-88.1,13.3-109.3c11.9,3.4,22.8-21.3,22.8-21.3l2.7-4.9l3.9,2.4
	c0,0,3.3-8.2,8.2-9s14-44.4,14-50.1C1100.1,209.1,1099.2,205.4,1097.7,202.1z M1059.4,266.5c-0.8-1.3-1.7-2.5-2.8-3.6
	c2.1-5.6,3.8-11.4,4.9-17.3c1.6-9-2.5-38.6-2.5-38.6l-0.1-2c4,5.3,9.1,12.4,9.1,14.3c0,1.9,0.9,3.8,2.5,4.9l-4.9,17.3
	c0,0-3.3,8.2-4.1,12.3c-0.5,2.4-0.8,4.9-0.8,7.4l1.2,0.7L1059.4,266.5z"/>
<path class="st0" d="M861.2,533.6c-7.7-3.2-22.6-10-24.5-13.6c-1.8-3.6-10.9-31.7-10.9-31.7l-2.3,0.2c-0.3-12.8-1.6-62.2-3.6-68.1
	c0,0,9.5-78.3-9.5-109.6l-3.4-13.8c1.1-5.5,1-18.4,0.3-20.6c-0.9-2.7,10.4-11.3,7.2-16.8s-11.8-24-11.8-24s0.9-11.8-11.3-22.6
	c0,0-3.6-20.2-19.7-20.5c-2.2-3.8-5.2-9.8-4.3-12.5c1-2.9,4.6-11.9,6.7-16.9c1.1-0.5,2.2-1.1,3.2-1.8c12.8-5.7,21.8-19.5,21.8-35.6
	c0-17.2-10.3-31.8-24.6-36.7c2.4-6.3-0.8-13.4-7.1-15.8c-6.3-2.4-13.4,0.8-15.8,7.1c-0.5,1.4-0.8,2.8-0.8,4.3
	c-2.6-6.2,0.3-13.4,6.5-16c1.5-0.6,3.1-1,4.8-1c0.8,0,1.6,0.1,2.4,0.2c-6.1-2.9-13.4-0.3-16.3,5.8c-2.4,5-1.1,11,3.2,14.6
	c0.1,0.4,0.3,0.9,0.5,1.3c-13.4,5.4-23,19.5-23,36.1c0,15.4,8.2,28.7,20.1,34.8c-0.1,5-1.3,13.4-8.2,18.6c-3.6-1.6-8.5-3.4-11.7-2.6
	c-1.6-1.3-4.1-1.7-7.5,1.7c-6.8,6.8-12.7,24.5-12.7,35.3s1.4,73.8,1.4,73.8s-7.2,2.7-2.3,6.8c1,0.9,2.3,1.3,3.7,1.4l4.9,36.7
	c0,0-3.2,35.3,9.1,35.8c1,0.1,1.9-0.2,2.7-0.7l-9.1,41c0,0-20.8,13.6-37.1,40.3c-8.4,13.8-12.6,22.2-14.7,27.2l-3-1.9l-10.4,19.9
	c0,0-23.1,14-18.1,24.5c5,10.4,9.5,13.1,9.5,13.1l3.2-1.4l5.9,10.9c0,0,15.4,22.2,40.3,10.9c2.4-3.2,2.4-7.6,0-10.9
	c-4.1-5.9-14.5-18.6-14.5-18.6l6.8-34.4l-1.4-0.9l43.1-52.1c0,0,12.7-7.7,17.2-14.5s32.6-77,32.6-77l15.8,73.4
	c0,0-0.9,26.7,3.2,43.9c2.2,9.7,3.7,19.5,4.3,29.3l-1.2,0.1l2.7,20.4c0,0-11.8,29-3.6,31.2c5.8,1.5,11.7,2.6,17.7,3.2l0.9-3.2
	c0,0,34.9,19,47.5,5C866.2,546.7,868.9,536.7,861.2,533.6z M737.1,311.2c1.4,1.4,0.9,7.7,0.9,7.7l-2.7,17.7l-2.7,12.2
	c-0.4-5.8-1.1-11.5-2.3-17.2l-1.3-33.8c0.2,0.2,0.5,0.3,0.8,0.3c0.9,0,0.5-7.7,0.5-7.7s0.5-1.4,1.2-3.5c1.8,5.3,3.9,8.7,6.5,9.4
	l0.5,5.9c0,0-5.9,2.7-0.5,2.7c0.3,0,0.6-0.1,0.9-0.1l-0.5,2.4C738.5,307.2,735.8,309.9,737.1,311.2z"/>
<path class="st1" d="M1281.2-31.1c0-0.1,0.1-0.2,0.1-0.3c0,0,0,0.1,0,0.1L1281.2-31.1z"/>
<path class="st0" d="M375.3,219.5l4.4-1l-18.1-50.9l-39-14.4c0,0-0.1,0.2-0.4,0.5c-3.3-3.2-4.7-7.9-5.3-11.6
	c11.8-4.8,17.5-18.2,12.7-29.9c-0.5-1.3-1.2-2.6-2-3.8c3.2-0.8,4.4-3.7,5.4-7.2c-0.7-0.2-1.3-0.3-2-0.4c0.5-1.1,1-2.3,1.5-3.4
	c-0.9-0.1-1.8-0.2-2.7-0.2c0.2-1.1,0.5-2.1,0.7-3.2c-1.1,0.8-2.3,1.6-3.4,2.3c0.8-2.3,0.3-4.8-1.2-6.6c-1.5-1.8-3.5-3.2-5.7-4
	c-8.8-3.5-18.9-1.7-26,4.6l-0.2-1c-6.9,5.3-11.5,13.2-12.6,21.9c-1.1,8.6,3,17.3,8.4,24.1c0-0.3-0.1-0.6-0.1-0.9
	c0.2,0.3,0.5,0.6,0.7,0.9l0.7,25l-1.6,1.4c0,0-27.7,12.5-28.7,27.5l0,0c-1.7,7.3-2.5,45.1-2.5,45.1h2.3l-2.3,14.8l-14.8,57.5
	c0,0-18.9,24.6-2.5,29.6c10.2,3.1,13.1-8.8,13.9-18.2c0.6,2.3,2.4,3.9,5.9,4.2c0.3,0,0.6,0,0.9,0.1c-7.8,20.1-2.5,85.4-2.5,85.4
	c-4.1,8.2,44.4,64.9,44.4,64.9l2.9-1.6l0.6,1.3c-1.6,0.2-2.7,0.3-2.7,0.3v25.5c0,0-7.4,25.5,2.5,30.4c2.6,1.3,5.2,0.3,7.8-1.7
	c-0.5,7.9-1.2,19.6-1.2,22.3c0,4.1,10.7,11.5,10.7,11.5s2.5,9,22.2,9s4.9-23.8,4.9-23.8l-10.7-23.8c0,0-0.8,0.4-3.2-1.6l0.9-9.5
	l4.8,0.4l6.6-96.1c0,0,5.8-85.4,6.6-98.6c0.2-4.2,0.1-8.4-0.3-12.6l24.1-49.8L375.3,219.5z M357.5,251.4l-2.5,8.6v-19L357.5,251.4z
	 M255,312.3c0-3-0.1-5.1-0.1-5.1l16.1-32.1l-0.5,9.9C270.4,285,257.6,301.3,255,312.3z M292.6,405l15.6-55l9,66.5l-0.6,24.2
	c-1.1-2.2-2-4.5-2.6-6.9C311.5,423.9,292.6,405,292.6,405z"/>
<path class="st0" d="M573.9,217.9c0,0-26.3-45.2-27.1-50.1s-14-14-14-14c-4.5-4.5-11.9-5.9-19.6-5.8c2.9-2.4-7.5-4-8.3-5.7
	c-0.8-1.6-3.3-1.6-6.6-4.1c-3.3-2.5-11.5-0.4-11.5-0.4c-1.2-2.6-2.1-5.4-2.5-8.2c3.5-4.1,5.4-9.4,5.4-14.8c0-0.1,0-0.1,0-0.2
	c0.2,0.3,0.4,0.7,0.6,1c1.5-9.2,4.3-16.9-0.9-25.3c-3.7-6-9.4-10.4-16.1-12.3l-4.9,3.9l1.9-4.6c-1.6-0.2-3.2-0.3-4.9-0.3l-4.4,5.7
	l1.8-5.5c-7.8,1-14.8,5.1-19.4,11.5c-5.6,8.1-5.3,19.5,0.3,27.7c0-0.1,0-0.1,0.1-0.2c0.5,7.8,4.9,14.8,11.8,18.6l1.4,11.2l0,0
	c-1.3,1.2-2.9,1.9-4.6,2c-2.5,0-4.9,6.6-4.9,6.6s-1.4,0.7-2.9,4c-3.9,2.6-15.7,10.9-20.1,16.7c-2.6,1.3-5.4,4.1-4.9,10.5
	c0.8,11.5,0,64.9,0,64.9s-7.4,45.2-4.9,48.5s-0.8,14-0.8,14l2.5,0.5v2.7c0,0-7.4,34.4,4.1,32.9c18.9-2.5,4.9-30.4,4.9-30.4v-3.2
	l3.3,0.7c0,0,1.6-11.5,4.9-12.3c1.1-0.3,2.5-3.4,3.7-7.2c0.7,6.1,1.2,9.7,1.2,9.7l5.1-1.1l1.4,5.3c0.4,0.2,0.7,0.4,1.1,0.5l-1.1,6.1
	c0,0-0.8,6.6,0,10.7c0.4,2.1,15.7,46.4,30.7,89.7l-0.3,10.5c0,0-7.4,8.2-5.8,14s-4.1,53.4-4.1,53.4l-4.9,23.8l1.2,0.4l-1.1,4.2
	c-1,0.5-1.9,1.2-2.6,2c-6.6,7.4-14.8,28.8-14.8,28.8s-14.8,22.2,8.2,21.4s24.6-9,24.6-9s3.3-21.4,3.3-22.2s-1.6-9.3-1.6-9.3
	l-0.6-0.7l0.4-10.2l4.3,1.3c0,0,4.1-21.4,7.4-23.8c1.1-0.9,4.2-10.5,7.7-22.8c3.6,10.3,7,45.8,8.1,49c-0.4,0.5-0.7,1.1-1,1.7
	c-3.7,7.1-7.8,13.9-12.3,20.5c0,0-26.3,15.6,0,19.7c0,0,14.8,0.8,22.2-4.1c7.4-4.9,27.1-12.3,27.1-14s-4.9-25.8-9.9-23.2l0,0
	l-3.3-7.6l3.3-1.3l-20.8-93.4c0.5-2,0.9-4,1.1-6c0-4.3,10.6-88.1,13.3-109.3c11.9,3.4,22.8-21.3,22.8-21.3l2.7-4.9l3.9,2.4
	c0,0,3.3-8.2,8.2-9s14-44.4,14-50.1C576.3,224.9,575.4,221.2,573.9,217.9z M535.6,282.2c-0.8-1.3-1.7-2.5-2.8-3.6
	c2.1-5.6,3.8-11.4,4.9-17.3c1.6-9-2.5-38.6-2.5-38.6l-0.1-2c4,5.3,9.1,12.4,9.1,14.3c0,1.9,0.9,3.8,2.5,4.9l-4.9,17.3
	c0,0-3.3,8.2-4.1,12.3c-0.5,2.4-0.8,4.9-0.8,7.4l1.2,0.7L535.6,282.2z"/>
<image style="overflow:visible;" width="1597" height="519" xlink:href="bg-dots.png"  transform="matrix(1 0 0 1 710.524 -81.3503)">
</image>
<image style="overflow:visible;" width="1597" height="519" xlink:href="bg-dots.png"  transform="matrix(1 0 0 1 710.524 445.6497)">
</image>
</svg>
