<?xml version="1.0" encoding="utf-8"?>
<!-- Generator: Adobe Illustrator 24.2.1, SVG Export Plug-In . SVG Version: 6.00 Build 0)  -->
<svg version="1.1" id="Layer_1" xmlns="http://www.w3.org/2000/svg" xmlns:xlink="http://www.w3.org/1999/xlink" x="0px" y="0px"
	 viewBox="0 0 877.6 588.3" style="enable-background:new 0 0 877.6 588.3;" xml:space="preserve">
<style type="text/css">
	.st0{fill:#F7E2E7;}
</style>
<path class="st0" d="M28.6,259.5c-9.7-50.2,10.7-106.7,53.3-126c33.5-15.2,84.8-20.3,153.5-1.8c181.7,49,166-7,236.5-50.8
	c62-38.5,137.8-85.8,269.4,3.5c99.8,67.7,40.7,173.3,108.1,238c43.3,41.6-29.8,243.3-239.6,199.5s-257.4,17.6-352.4,40.3
	C161.7,585-35.6,449.7,17.6,387.3C48.9,350.5,34.7,291.1,28.6,259.5z"/>
<path class="st0" d="M166.2,934.3c-10.6-49.3,11.7-104.8,58.5-123.8c36.8-15,93.1-19.9,168.5-1.7c199.4,48.1,182.2-6.9,259.6-49.9
	c68.1-37.8,151.3-84.2,295.7,3.4c109.5,66.5,44.7,170.2,118.6,233.8c47.5,40.9-32.7,239-263,196s-282.5,17.3-386.8,39.5
	c-104.9,22.3-321.4-110.6-263-171.9C188.6,1023.6,172.9,965.3,166.2,934.3z"/>
</svg>
