<?xml version="1.0" encoding="utf-8"?>
<!-- Generator: Adobe Illustrator 24.2.3, SVG Export Plug-In . SVG Version: 6.00 Build 0)  -->
<svg version="1.1" id="Layer_1" xmlns="http://www.w3.org/2000/svg" xmlns:xlink="http://www.w3.org/1999/xlink" x="0px" y="0px"
	 viewBox="0 0 1969.8 2000" style="enable-background:new 0 0 1969.8 2000;" xml:space="preserve">
<style type="text/css">
	.st0{fill:#F2BBC5;}
	.st1{fill:#CE8695;}
	.st2{opacity:0.5;}
	.st3{fill:#E0B3BE;}
	.st4{fill:#FFFFFF;}
	.st5{fill:#D8A3AE;}
	.st6{fill:#EBDBCD;}
</style>
<path class="st0" d="M-411.3-56.2l-740.8,353.1c-20.5,9.8-44.9,1.1-54.5-19.4l-469.5-984.4c-9.8-20.5-1.1-44.9,19.4-54.5
	l740.8-353.1c20.5-9.8,44.9-1.1,54.5,19.4L-392-110.7C-382.3-90.5-391-66-411.3-56.2z"/>
<path class="st1" d="M3673,1183.6L2881.3,1400c-21.7,6-44.4-6.9-50.3-28.8L2543.3,319c-6-21.7,6.9-44.4,28.8-50.3l791.7-216.4
	c21.7-6,44.4,6.9,50.3,28.8l287.6,1052.1C3707.5,1155.1,3694.7,1177.6,3673,1183.6z"/>
<g class="st2">
	<g>
		<path class="st0" d="M920.9,224.9c42.6,43.8,66.3,92.4,93,146.4c7.5,15.1,53.1-15.1,49.6-29.5c-14-58-52.2-108.6-94.6-149.4
			C955.1,179.2,909.7,213.4,920.9,224.9L920.9,224.9z"/>
		<path class="st0" d="M1179.2,219.5c-1.4,53.7-12.4,103.7-22.8,156.2c-4.7,23,39.7-4,44.3-15.9c19.7-51.3,25.3-109.6,24.8-164.2
			C1225.1,179.5,1179.6,203.3,1179.2,219.5L1179.2,219.5z"/>
		<path class="st0" d="M1285.2,441.3c33.2-16.1,66.6-32,100.2-47.1c12.1-5.4,27.8-19.6,24.5-34.5c-3.4-15.1-22.4-13.7-33.3-8.9
			c-33.7,15.2-67,30.8-100.2,47.1c-11.9,5.9-28,19.3-24.5,34.5C1255.3,447.2,1274.6,446.5,1285.2,441.3L1285.2,441.3z"/>
	</g>
	<g>
		
			<ellipse transform="matrix(0.4276 -0.904 0.904 0.4276 -76.1867 1319.3853)" class="st3" cx="1003.7" cy="719.9" rx="24.6" ry="64.4"/>
		<g>
			<g>
				<path class="st0" d="M956.5,671.8c11-21.6,20.3-43.9,24.2-67.7c8.4-51.4-7.2-110.3,24.1-151.8c22.6-29.9,63.9-40.2,100.9-36.2
					c45.3,5,89.3,30.2,111.5,70c22,39.9,18.5,94.2-13.1,127.1c-26.5,27.6-67.2,37.5-95,63.7c-15.6,14.7-26.2,33.7-37.8,51.9
					l-3.8,5.6C979.4,728.2,956.5,671.8,956.5,671.8z"/>
			</g>
		</g>
		<path class="st4" d="M1108.2,587.7c-4.2-13.6-15.8-12.4-26.2-7.5c-2.9-7.2-7.1-16.7-14.9-19.4c-8.7-3-18.5,3.2-24.8,8.4
			c-14.3,11.9-25.1,29-31.4,46.4s-8.9,36-14.6,53.7c-2.3,7.2,9.1,9.9,11.4,2.7c7.1-22.4,9.2-46.9,20.9-67.5
			c6.5-11.4,15.9-25,28.1-31c4.1-1.9,6.8-2.3,9.7,1.7c2.2,3.2,3.8,6.7,5,10.1c0.2,0.3,0.2,0.7,0.3,1c-1.5,1-2.9,2-4,3
			c-11.7,9.2-27,25.8-26.5,42c0.3,7.4,5.2,13.4,12.8,13.7c8.4,0.3,16.4-6.4,21.5-12.6c9.4-11.7,12.2-26.6,9.5-41.1
			c2.6-1.5,5.3-2.6,7.7-2.9c7.2-0.8,4.5,11.3,3.4,15.4c-3.4,13.3-10.4,25.3-17.6,36.9c-5.3,8.7-10.1,18.1-16.6,26
			c-7.2,8.7-16.7,15.1-26,21.3c-6.2,4.2,0,14.1,6.2,9.9c10.7-7.4,21.9-14.9,29.9-25.4c8.4-11,15.5-23.8,22.4-35.9
			C1102.3,623.3,1113.1,603.4,1108.2,587.7z M1074,608.8c-1.2,6.1-4,12.1-8,16.9c-2.3,2.7-13.3,12.6-12.8,3.7
			c0.3-5.4,4.2-11,7.2-15.4c4-5.7,8.7-10.9,14.1-15.2C1074.6,602.1,1074.5,605.5,1074,608.8z"/>
		<path class="st5" d="M993.1,742.2c-29-13.7-49.1-33-48.5-45.8h-0.2l-12.8,51.5c-4.7,9.9,12.6,28,38.6,40.2
			c26,12.4,50.8,14.3,55.6,4.4c0.3-0.5,0.4-1,0.5-1.5l0,0l33-40.2h-0.2C1049.9,759.1,1022.2,755.8,993.1,742.2z"/>
	</g>
</g>
<path class="st4" d="M-610.3-482.3c-19.4-33.5-45.3-59.6-84.6-66.8c-33.1-6.2-68.5,6.2-97.6,21.5c-2.2,1.1-4.2,2.4-6.2,3.4
	c-2.2-20.5-6.2-40.6-12.5-59.8c-9.4-28.6-24.4-61.8-55.2-71.9c-28.8-9.4-60.8,4.5-86.7,17.4c-52.3,26.1-96,74.6-116.6,129.1
	c-10.1,26.8-10.3,61-0.2,87.8c2.5,6.7,6.3,13.9,11,18.8c1.1,1.8,2,3.6,3.3,5.4c33.9,53.1,67.2,106.8,97.6,162.1
	c4,10.7,9.6,23,16.7,30.8c0.2,0.4,0.4,0.5,0.5,0.9c11,21,21.7,42.2,32.1,63.6c-16.8,17.2-20.1,51.1-20.8,71.9
	c-0.7,19.6,0.4,40.6,6.3,59.4c4.5,14.3,10.9,35.1,25.5,42.2c59.4,29.2,138.2-13.2,183.4-52.3C-654.5-70.2-613.4-138-591-213.1
	C-566.3-296.3-565.6-404.9-610.3-482.3z M-656.9-335C-656.9-334.9-656.9-334.9-656.9-335L-656.9-335
	C-656.9-334.9-656.9-334.9-656.9-335z M-872.2-488.8L-872.2-488.8L-872.2-488.8L-872.2-488.8z M-953.3-473.4
	c18.1-9.4,37.5-16.7,57.8-18.8c8.1-0.9,15.2-0.9,22.3,2.9c-0.5,2.9-1.1,6.7-1.3,7.8c-0.5,2-0.9,3.8-1.1,4.3
	c-0.4,1.6-0.5,2.9-0.7,3.6c-1.3,3.8-2.5,7.4-4,11.2c-0.2,0.5-0.5,1.1-0.7,1.6c-21.5,22.1-40.7,46.5-56.9,72.1
	c-14.5-22.5-29.7-44.4-45.6-65.7C-974.1-461.2-964.3-467.6-953.3-473.4z M-670.6-293.9c-7.2,16.8-33.3,54-52.2,73.2
	c-20.5,20.8-49.1,41.1-77.5,54c-4,1.8-8.1,3.3-12.1,4.5c-14.1-34.2-31.3-67.5-49.4-100c7.1-10.3,13.6-20.8,19.4-31.9
	c20.6-19.9,44-37.3,69.9-51.6c25.9-14.3,60.5-26.6,89.3-13.6c3.4,1.6,6.9,3.6,10,5.6c4.9,4.2,6,4.7,3.3,1.6
	c1.6,1.4,9.4,12,10.3,12.5c0.7,1.8,1.6,3.8,2.5,5.6c0,0.2,0,0.4,0,0.7c0,0.2,0,0.2,0,0.4c-0.9,4.2-1.8,8.3-3.1,12.5
	c-0.2,0.4-0.2,0.5-0.4,0.9C-663.6-310.8-667-302.4-670.6-293.9z"/>
<g>
	<path class="st0" d="M642.3,114.5c-5.8-7-12.2-13.1-19.1-18c-2-1.6-2.8-4.9-1.7-7.8s3.4-4,5.4-2.5c7.4,5.3,14.2,12,20.5,19.3
		c1.8,1.9,2.1,5.7,0.6,8.1c-0.3,0.5-0.9,1-1.4,1.3C645.4,116.1,643.5,115.9,642.3,114.5z"/>
	<path class="st0" d="M180.6,843.9c-1.5-2.3-1.7-6-0.2-8.3l4-6.4c9.3-14.6,19-29.7,28.8-46c1.6-2.6,4.1-2.8,5.8-0.7
		c1.8,2.3,1.9,5.9,0.5,8.3c-10,16.5-19.6,31.6-28.9,46.2l-4,6.4c-0.3,0.5-0.8,0.9-1.2,1.1C183.8,845.6,182,845.1,180.6,843.9z
		 M244.4,736.5c-1.7-1.8-2.1-5.4-0.8-8c10.1-20.1,18.5-39.3,25.8-58.8c1.1-2.8,3.4-4,5.4-2.5c2,1.6,2.8,4.9,1.7,7.8
		c-7.4,19.7-16.1,39.5-26.5,60.1c-0.2,0.7-0.9,1.4-1.3,1.7C247.4,737.8,245.7,737.8,244.4,736.5z M291.5,613.2
		c-2.1-0.9-3.3-4.2-2.6-7.2c5-22.5,8.2-45,9.9-67.6c0.2-3.2,2.2-5.5,4.4-5.1c2.2,0.3,3.8,3.1,3.6,6.3c-1.6,23.3-5.3,46.8-10.4,69.8
		c-0.4,1.6-1.2,2.7-2.1,3.3C293.2,613.6,292.2,613.7,291.5,613.2z M302.9,474c-2.2,0.5-4.2-1.9-4.4-4.9
		c-1.8-23.2-5.4-45.9-10.5-67.4c-0.8-3.1,0.2-6.2,2.4-7.3s4.3,0.4,5.1,3.4c5.4,22.6,9,46.1,10.9,70c0.2,2.5-0.9,4.8-2.2,5.9
		C303.7,474.3,303.3,474.4,302.9,474z M256.8,424.8c-7,5.1-13.9,9.3-21.1,12.6c-2.2,1.1-4.3-0.4-5.1-3.4c-0.8-3.1,0.2-6.2,2.4-7.3
		c6.6-3.3,13.4-7.5,20-12.3l0,0c7.6-5.6,15.2-11.9,22.4-19.3c2-2,4.4-1.3,5.7,1.4c1.2,2.7,0.9,6.3-0.9,8.2
		C272.6,412.3,264.8,419,256.8,424.8L256.8,424.8z M312,358c-1.8-2.3-1.7-6-0.2-8.3c9.7-14.6,19.5-31,31.6-53.2
		c1.4-2.7,3.9-2.9,5.7-1c1.9,2,2,5.6,0.7,8.2c-12.1,22.3-22,38.9-32,54c-0.4,0.2-0.7,0.8-1.2,1C315.1,359.8,313.4,359.4,312,358z
		 M186.2,449.4c-9.1-0.5-18.2-2.2-26.7-5.8c-7.6-3.1-15.1-7.8-22.1-14c-1.8-1.8-2.5-5.3-1.3-8c1.2-2.6,3.7-3.6,5.6-1.9
		c6.4,5.7,13.2,10,20,12.7c7.9,3.2,16.3,5,24.7,5.5c2.2-0.1,3.9,2.8,3.9,5.9c0.1,2.2-0.9,4-2.1,5C187.6,449.1,187,449.4,186.2,449.4
		z M266.8,340.3c-9.4-19.8-20.3-36.6-32.5-49.7c-1.7-1.8-2.1-5.5-0.8-8s3.8-3.1,5.5-1.2c13,13.7,24.6,31.5,34.4,52.5
		c1.2,2.7,0.7,6.1-1.1,8c-0.1,0.1-0.3,0.1-0.5,0.3C270.1,343.5,267.8,342.5,266.8,340.3z M373.7,248.5c-1.7-1.8-2-5.6-0.7-8.2
		c3.6-6.6,7.2-13.1,10.7-19.7c7.3-12.8,14-24.4,20.8-35c1.6-2.2,4.2-2.4,5.8-0.3c1.5,2.3,1.7,6,0.2,8.3
		c-6.6,10.7-13.3,21.9-20.4,34.4c-3.6,6.6-7.1,12.9-10.6,19.5c-0.3,0.9-0.9,1.4-1.3,1.7C376.9,250.1,375.3,249.9,373.7,248.5z
		 M577.7,77.8c-15.7-2.1-31.6-0.6-47.6,4.4c-2.2,0.7-4.3-1.3-4.8-4.4c-0.5-3.1,0.9-6.2,3.1-6.9c16.9-5.4,33.7-6.7,50.1-4.6
		c2.2,0.3,3.8,3.1,3.6,6.3c-0.1,2-0.9,3.6-2.2,4.5C579.3,77.6,578.5,78,577.7,77.8z M440.1,144.4c-1.4-2.2-1.3-6.1,0.5-8.1
		c13.6-16.1,27.3-29.6,41.2-40.3l0,0c1.9-1.4,4.4-0.4,5.4,2.3c0.8,3,0.3,6.3-1.7,8c-13.5,10.3-26.8,23.2-39.9,38.8
		c-0.3,0.4-0.3,0.5-0.7,0.8C443.2,147.2,441.1,146.6,440.1,144.4z M109,378.1c-2.2,1.6-4.7,0.4-5.8-2.8c-6.3-20.2-7.6-41.3-3.4-61
		c0.8-4.1,1.8-8.1,3.2-11.8c0.9-3,3.4-4.4,5.4-2.9c2.1,1.3,3.1,4.9,2,7.8c-1.1,3.3-2,6.7-2.8,10.3c-3.6,16.9-2.6,34.9,3.1,52.9
		C111.8,373.3,110.9,376.6,109,378.1C108.9,378.3,108.9,378.3,109,378.1z M191.5,261.9c-15.5-4.3-32.1-2.7-46.4,4.4
		c-2,0.9-4.2-0.6-5-3.6c-0.6-2.9,0.4-6,2.5-7.1c15.6-7.5,33.5-9.3,50.5-4.7c2.2,0.7,3.8,3.6,3.3,6.8c-0.2,2-1.1,3.4-2.1,4.2
		C193.4,262.5,192.6,262.6,191.5,261.9z"/>
	<path class="st0" d="M138.3,928.5c-2.1-1.3-3.2-4.8-2.4-7.6c2.3-9.3,6.4-19.3,12.3-30.9c1.2-2.4,3.8-3,5.5-1.2s2.1,5.4,0.8,8
		c-5.4,10.7-9.3,19.9-11.3,28c-0.3,1.3-1,2.5-1.9,3.1C140.2,928.4,139.2,928.5,138.3,928.5z"/>
</g>
<g>
	<path class="st0" d="M1720,500.4c0.2-0.5,0.5-1.1,0.9-1.6c1.9-1.9,5.5-2.5,7.7-1.2c8.2,4.3,16,9.1,22.5,14.9c1.9,1.5,1.3,4-1.1,5.6
		c-2.4,1.6-5.7,1.6-7.6,0.1c-6.1-5.3-13.2-9.9-21-13.8C1719.9,503.6,1719.3,501.9,1720,500.4z"/>
	<path class="st0" d="M1141.7,1091.7c0.1-0.4,0.3-1,0.8-1.4l5.1-5.1c11.5-11.9,23.5-24.3,36.7-37.2c1.9-1.9,5.3-2.6,7.8-1.4
		c2.3,1.1,2.7,3.5,0.6,5.5c-13,12.7-25,25.1-36.5,37l-5.1,5.1c-1.9,1.9-5.3,2.6-7.8,1.7C1141.9,1094.9,1141.1,1093.2,1141.7,1091.7z
		 M1228.2,1008.8c0.2-0.5,0.7-1.3,1.3-1.6c16.9-14.2,33.4-26.7,50.2-37.9c2.4-1.6,5.7-1.6,7.6-0.1c1.9,1.5,1.3,4-1.1,5.6
		c-16.6,11.1-32.6,23.2-49.1,37c-2.1,1.8-5.6,2.2-7.6,1C1227.9,1011.8,1227.5,1010.2,1228.2,1008.8z M1333.7,938.9
		c0.3-1,1.3-1.9,2.6-2.7c20.4-9.8,41.4-18.5,62.8-25.1c2.9-0.9,5.9,0,6.7,1.9c0.8,2-0.9,4.3-3.8,5.2c-20.7,6.6-40.9,14.6-60.8,24.2
		c-2.7,1.3-5.9,0.9-7.3-0.9C1333.4,941,1333.2,940,1333.7,938.9z M1461.2,899c0.7-1.4,2.6-2.9,5-3.3c22.7-3.5,45.4-5.3,67.6-5.3
		c3,0,4.9,1.7,4.3,4c-0.5,2.2-3.2,3.9-6.3,3.8c-21.2,0-43.1,1.6-65.1,5.1c-2.9,0.4-5.5-0.9-5.6-3.1
		C1460.7,899.9,1460.8,899.6,1461.2,899z M1517.3,932.4c3.6-8.7,8.2-17.5,13.7-26.3c1.3-2.1,4.6-3.2,7.4-2.7c2.7,0.6,3.9,2.7,2.5,5
		c-5.3,8.4-9.5,16.8-13.1,25.2l0,0c-3,7.2-5.5,14.5-7.1,21.3c-0.5,2.2-3.2,3.9-6.3,3.8c-3,0-4.9-1.7-4.3-4
		C1511.7,947.4,1514.1,940,1517.3,932.4L1517.3,932.4z M1565.7,862c0.1-0.4,0.6-0.9,0.7-1.3c11.8-12.7,25.1-25.5,43.2-41.8
		c2.1-1.8,5.5-2.5,7.8-1.2c2.1,1.2,2.5,3.7,0.3,5.5c-18.1,16.2-31.2,28.9-42.6,41.2c-1.9,1.9-5.3,2.8-7.8,1.7
		C1565.7,865.1,1565,863.7,1565.7,862z M1510.2,1001.6c0.6-1.4,2-2.7,4.1-3.1c2.8-0.7,5.9,0.2,6.3,2.3c2.3,7.8,5.8,15.2,10.5,21.8
		c4,5.7,9.5,11.1,16.2,15.8c2,1.4,1.7,3.9-0.5,5.6c-2.3,1.7-5.7,1.9-7.8,0.5c-7.3-5.1-13.3-11.1-17.9-17.5
		c-5.2-7.1-8.9-15.2-11.3-23.6C1509.8,1002.8,1509.9,1002.2,1510.2,1001.6z M1590.9,900.1c0.2-0.2,0.1-0.4,0.2-0.5
		c1.3-2.1,4.4-3.3,7.2-2.8c21.7,4.4,40.8,11.3,56.5,20.4c2.1,1.2,2.1,3.7,0.1,5.4c-2,1.7-5.6,2.2-7.6,1
		c-14.9-8.5-32.9-14.9-53.5-19.3C1591.6,903.9,1590.1,902,1590.9,900.1z M1654.1,780.4c0.2-0.5,0.5-1.1,1.3-1.6
		c5.4-4.8,10.4-9.4,15.8-14.2c10.1-9.3,19-18.1,27.6-26.6c1.9-1.9,5.3-2.6,7.8-1.7c2.3,1.1,2.7,3.5,1,5.5
		c-8.4,8.7-17.8,17.5-28.1,27.1c-5.4,4.8-10.6,9.6-16,14.4c-2.1,1.8-5.7,2.4-7.8,1.2C1654.2,783.3,1653.7,781.8,1654.1,780.4z
		 M1770,554.3c0.6-1.4,1.9-2.5,3.8-3c2.9-0.9,5.9,0,6.7,1.9c5.6,14.8,8.1,30.8,6.8,47.7c-0.2,2.2-2.7,4.1-5.7,4.4
		c-3,0.2-5.3-1.3-5.1-3.5c1.1-16-1-31.2-6.4-45.3C1769.6,555.8,1769.7,555,1770,554.3z M1735.9,695.4c0.1-0.4,0.2-0.5,0.6-0.9
		c11.7-15.6,20.7-30.9,27.3-45.7c1.1-2.2,4.1-3.5,7-3.4c2.7,0.4,4.2,2.4,3.3,4.5l0,0c-6.9,15.3-16.5,31.1-28.5,47.3
		c-1.5,2.1-5,3.1-7.4,2.2C1735.9,699,1734.9,697.3,1735.9,695.4z M1593.5,1059.8c1-2.1,3.9-3.6,6.7-3.3c17.9,1.3,35-1.7,50-8.8
		c3.2-1.5,6.1-3.1,9-4.9c2.4-1.6,6-1.5,7.7,0.2c1.9,1.5,1.1,4.1-1.5,5.7c-3.2,2.1-6.7,3.9-10.3,5.6c-17.4,8.2-37.4,11.8-57.6,10.3
		C1594.1,1064.2,1592.5,1062.2,1593.5,1059.8C1593.3,1059.9,1593.3,1059.9,1593.5,1059.8z M1682.9,954.6c0.5-1.1,1.6-2.2,3.5-2.9
		c2.9-1.2,5.9-0.4,7.1,1.5c8,14.8,10.3,31.8,6.8,48.1c-0.5,2.2-3.2,3.9-6.1,3.9c-3,0-4.9-1.7-4.5-3.8c3.4-14.9,1.3-30.6-6.2-44.2
		C1682.6,956.4,1682.6,955.6,1682.9,954.6z"/>
	<path class="st0" d="M1073.8,1151c0.3-1,1.3-1.9,2.5-2.5c7.1-3.7,14.8-9.3,23.6-16.7c2.1-1.8,5.6-2.2,7.6-1c2,1.2,2.1,3.7,0.1,5.4
		c-9.5,8.1-17.9,14.1-26.1,18.3c-2.4,1.4-5.9,1.1-7.6-0.5C1073.6,1153.2,1073.5,1152.3,1073.8,1151z"/>
</g>
<g>
	<path class="st0" d="M204.1,1829.9l-19.1-594.8l-82.1,2.6l19.1,594.8c0.4,12.7,10.8,22.5,23.4,22l36.8-1.3
		C194.6,1852.9,204.5,1842.3,204.1,1829.9z"/>
	<polygon class="st6" points="148.4,1123.7 131.4,1124.3 102.6,1237.6 184.7,1235 	"/>
	<polygon class="st0" points="119.8,1170 131.4,1124.3 148.4,1123.7 163.5,1169.9 151,1174.5 141.5,1171.8 128.9,1178.1 	"/>
</g>
<g class="st2">
	<path class="st0" d="M2653.9,1604.4L2368.8,1448l-21.6,39.3l285.2,156.4c6.1,3.3,13.6,1.2,16.9-4.9l9.6-17.7
		C2662.1,1615.3,2659.8,1607.7,2653.9,1604.4z"/>
	<polygon class="st6" points="2306.2,1434.2 2301.7,1442.3 2347,1487.4 2368.6,1448.1 	"/>
	<polygon class="st0" points="2320,1460.5 2301.7,1442.3 2306.2,1434.2 2332.1,1439.9 2330.8,1447.1 2326.9,1450.8 2326.3,1458.5 	
		"/>
</g>
<ellipse transform="matrix(0.1663 -0.9861 0.9861 0.1663 -139.0067 2859.4136)" class="st0" cx="1621.5" cy="1511.9" rx="182.5" ry="180.5"/>
<path class="st0" d="M1880.1,1593.6l-197.6-33.3c-20.3-3.4-34.2-22.8-30.8-43.3v-0.4c3.4-20.3,22.8-34.2,43.3-30.8l197.6,33.3
	c20.3,3.4,34.2,22.8,30.8,43.3v0.4C1920,1583.3,1900.6,1597,1880.1,1593.6z"/>
<ellipse transform="matrix(0.1663 -0.9861 0.9861 0.1663 -139.0067 2859.4136)" class="st4" cx="1621.5" cy="1511.9" rx="136.4" ry="134.7"/>
<path class="st0" d="M1543.7,1523.3c-2.4-8.3-2-17.7,4.9-23.9c7.1-6.3,15.2-4.5,22.8-0.2c15,8.5,31.3,23,49.6,13.8
	c16.5-8.3,18.5-27.9,19.4-44.2c0.5-8.1,0.9-17.9,7.1-24.3c6.5-6.5,16.3-2.7,22.6,2c8.3,6.2,16.5-7.8,8.1-13.9
	c-16.8-12.5-39.5-9.4-48.9,10c-5.3,10.7-4.7,22.5-5.8,34c-0.7,8.3-3.1,20.6-12.7,22.8c-10.1,2.2-20.5-7.6-28.2-12.5
	c-9.2-5.8-19.9-10-30.8-7.2c-21.2,5.4-29,28.6-23.5,48C1531,1537.6,1546.6,1533.5,1543.7,1523.3L1543.7,1523.3z"/>
<path class="st0" d="M1571.4,1584.4c-1.8-19.2,26.3-14.3,37.1-12.3c14.7,2.7,33.7,9.8,48,2.4c12.9-6.7,17.2-21.7,19.2-34.9
	c2.5-15.8,6.9-29.9,24.1-34.2c10.1-2.5,5.8-18.1-4.3-15.6c-15.8,3.8-28.1,15.8-32.6,31.3c-3.6,12.7-1.8,40.4-20.6,40.4
	c-9.2,0-19-3.1-27.9-4.7c-9.1-1.6-18.5-3.8-27.7-3.1c-15.9,1.3-33,13-31.1,30.8C1556.2,1594.7,1572.5,1594.9,1571.4,1584.4
	L1571.4,1584.4z"/>
</svg>
