<?xml version="1.0" encoding="utf-8"?>
<!-- Generator: Adobe Illustrator 24.3.0, SVG Export Plug-In . SVG Version: 6.00 Build 0)  -->
<svg version="1.1" id="Layer_1" xmlns="http://www.w3.org/2000/svg" xmlns:xlink="http://www.w3.org/1999/xlink" x="0px" y="0px"
	 viewBox="0 0 1969.8 1316.3" style="enable-background:new 0 0 1969.8 1316.3;" xml:space="preserve">
<style type="text/css">
	.st0{opacity:0.5;fill:#F2BBC5;}
	.st1{fill:#F2BBC5;}
	.st2{fill:#CE8695;}
	.st3{opacity:0.5;}
	.st4{fill:#E0B3BE;}
	.st5{fill:#FFFFFF;}
	.st6{fill:#D8A3AE;}
	.st7{fill:#EBDBCD;}
	.st8{fill-rule:evenodd;clip-rule:evenodd;fill:#F2BBC5;}
	.st9{opacity:0.5;fill:#FEFEFE;}
	.st10{fill:#FDFDFD;}
	.st11{fill:#959DA2;}
</style>
<symbol  id="Shopping_Cart_2" viewBox="-35.2 -31.5 70.5 63">
	<path class="st0" d="M31.8-10l-49.3,0v2.4l45.2,6c2.4,0.4,4.1,2.3,4.2,4.7v14.9c0,2.5-2,4.5-4.5,4.5h-44.9V26c0,3-2.5,5.5-5.5,5.5
		h-8.7c-1.9,0-3.5-1.6-3.5-3.5s1.6-3.5,3.5-3.5h7.2v-36c0-3,2.5-5.5,5.5-5.5h50.8c1.9,0,3.5,1.6,3.5,3.5C35.2-11.6,33.7-10,31.8-10z
		 M2.2,0.1l-8.6-1.1v18.6h8.6V0.1z M6.2,17.6h8.6V1.7L6.2,0.6V17.6z M26.9,3.3l-8.1-1.1v15.3h8.1V3.3z M-10.4,17.6V-1.6l-7.1-0.9
		v20.1H-10.4z"/>
	<path class="st0" d="M-8.6-17.7c-3.8,0-6.9-3.1-6.9-6.9c0-3.8,3.1-6.9,6.9-6.9c3.8,0,6.9,3.1,6.9,6.9C-1.7-20.8-4.8-17.7-8.6-17.7z
		"/>
	<path class="st0" d="M24.8-17.7c-3.8,0-6.9-3.1-6.9-6.9c0-3.8,3.1-6.9,6.9-6.9c3.8,0,6.9,3.1,6.9,6.9
		C31.7-20.8,28.6-17.7,24.8-17.7z"/>
</symbol>
<path class="st1" d="M-411.3-56.2l-740.8,353.1c-20.5,9.8-44.9,1.1-54.5-19.4l-469.5-984.4c-9.8-20.5-1.1-44.9,19.4-54.5
	l740.8-353.1c20.5-9.8,44.9-1.1,54.5,19.4L-392-110.7C-382.3-90.5-391-66-411.3-56.2z"/>
<path class="st2" d="M3673,1183.6L2881.3,1400c-21.7,6-44.4-6.9-50.3-28.8L2543.3,319c-6-21.7,6.9-44.4,28.8-50.3l791.7-216.4
	c21.7-6,44.4,6.9,50.3,28.8l287.6,1052.1C3707.5,1155.1,3694.7,1177.6,3673,1183.6z"/>
<g class="st3">
	<g>
		<path class="st1" d="M839.8,1022.3c31.1,15.5,52.2,36.7,75.9,60.2c6.6,6.6,27.6-17.1,23.4-24c-17.2-27.8-46.8-47.6-77.3-61.5
			C851.8,992.6,831.6,1018.3,839.8,1022.3L839.8,1022.3z"/>
		<path class="st1" d="M985,974.8c7.8,28.2,9.5,56.2,12,85.4c1,12.8,21.8-8.9,22.5-15.9c3-30.1-3.1-61.5-12.1-89.9
			C1004.6,946.1,982.7,966.3,985,974.8L985,974.8z"/>
		<path class="st1" d="M1080.3,1072.1c16.2-14.1,32.6-28.2,49.2-41.9c6-4.9,12.6-15,8.4-22.2c-4.3-7.3-14.9-3.3-20.3,1.1
			c-16.6,13.7-33,27.6-49.2,41.9c-5.8,5.1-12.8,14.9-8.4,22.2C1064.4,1080.4,1075.2,1076.7,1080.3,1072.1L1080.3,1072.1z"/>
	</g>
	<g>
		
			<ellipse transform="matrix(0.1046 -0.9945 0.9945 0.1046 -394.56 2093.6946)" class="st4" cx="965.5" cy="1266" rx="13.6" ry="37.6"/>
		<g>
			<g>
				<path class="st1" d="M931.1,1249.1c2.8-13.2,4.5-26.4,2.9-39.5c-3.4-28.2-21.6-56.2-10.5-83.3c8-19.5,29.8-32,51.3-36.3
					c26.4-5.2,55.3,0.3,74.2,17.2c18.8,17,25.5,45.9,12.8,68.5c-10.6,19-32,31.2-43.6,49.6c-6.5,10.4-9.5,22.1-13.1,33.6l-1.3,3.6
					C953,1274.5,931.1,1249.1,931.1,1249.1z"/>
			</g>
		</g>
		<path class="st5" d="M1003.5,1179c-4.5-6.4-10.9-3.7-16,0.6c-2.8-3.3-6.7-7.5-11.5-7.5c-5.4-0.1-10,4.9-12.7,8.7
			c-6.2,8.7-9.6,19.5-10.4,29.6c-0.8,10.2,0.7,20.3,0.3,30.5c-0.2,4.2,6.7,3.6,6.9-0.6c0.4-12.9-2.3-26,1.1-38.8
			c1.9-7.1,5-15.8,11-21c2-1.7,3.5-2.4,5.8-0.8c1.8,1.3,3.2,2.8,4.4,4.4c0.2,0.1,0.2,0.3,0.3,0.5c-0.7,0.8-1.3,1.5-1.8,2.3
			c-5.2,6.8-11.2,18.1-8.3,26.5c1.3,3.8,5.1,6.1,9.4,4.9c4.8-1.3,8.3-6.2,10.2-10.3c3.5-7.7,2.7-16-1.2-23.1
			c1.2-1.2,2.6-2.3,3.9-2.8c3.9-1.7,4.3,5.1,4.4,7.4c0.2,7.5-1.9,15-4.1,22.3c-1.6,5.5-2.8,11.2-5.3,16.4c-2.7,5.8-7,10.8-11.3,15.6
			c-2.8,3.3,2.2,7.3,5.1,4.1c4.9-5.7,10-11.6,12.9-18.4c3-7.2,5-15.1,7-22.6C1005.8,1198.6,1008.8,1186.4,1003.5,1179z
			 M987.5,1195.9c0.3,3.4-0.3,7-1.8,10.2c-0.9,1.8-5.5,8.9-6.7,4.1c-0.7-2.9,0.6-6.5,1.6-9.3c1.4-3.7,3.2-7.2,5.6-10.4
			C986.8,1192.3,987.3,1194.1,987.5,1195.9z"/>
		<path class="st6" d="M963,1279.5c-18.6-2.1-33-8.7-34.7-15.5l-0.1,0l1,29.1c-1.1,6,11.6,12.4,28.2,14.3c16.7,2,31-1.3,32.2-7.3
			c0.1-0.3,0.1-0.6,0-0.9l0,0l12.3-26.7l-0.1,0C997.8,1278.4,981.6,1281.5,963,1279.5z"/>
	</g>
</g>
<path class="st5" d="M-610.3-482.3c-19.4-33.5-45.3-59.6-84.6-66.8c-33.1-6.2-68.5,6.2-97.6,21.5c-2.2,1.1-4.2,2.4-6.2,3.4
	c-2.2-20.5-6.2-40.6-12.5-59.8c-9.4-28.6-24.4-61.8-55.2-71.9c-28.8-9.4-60.8,4.5-86.7,17.4c-52.3,26.1-96,74.6-116.6,129.1
	c-10.1,26.8-10.3,61-0.2,87.8c2.5,6.7,6.3,13.9,11,18.8c1.1,1.8,2,3.6,3.3,5.4c33.9,53.1,67.2,106.8,97.6,162.1
	c4,10.7,9.6,23,16.7,30.8c0.2,0.4,0.4,0.5,0.5,0.9c11,21,21.7,42.2,32.1,63.6c-16.8,17.2-20.1,51.1-20.8,71.9
	c-0.7,19.6,0.4,40.6,6.3,59.4c4.5,14.3,10.9,35.1,25.5,42.2c59.4,29.2,138.2-13.2,183.4-52.3C-654.5-70.2-613.4-138-591-213.1
	C-566.3-296.3-565.6-404.9-610.3-482.3z M-656.9-335C-656.9-334.9-656.9-334.9-656.9-335L-656.9-335
	C-656.9-334.9-656.9-334.9-656.9-335z M-872.2-488.8L-872.2-488.8L-872.2-488.8L-872.2-488.8z M-953.3-473.4
	c18.1-9.4,37.5-16.7,57.8-18.8c8.1-0.9,15.2-0.9,22.3,2.9c-0.5,2.9-1.1,6.7-1.3,7.8c-0.5,2-0.9,3.8-1.1,4.3
	c-0.4,1.6-0.5,2.9-0.7,3.6c-1.3,3.8-2.5,7.4-4,11.2c-0.2,0.5-0.5,1.1-0.7,1.6c-21.5,22.1-40.7,46.5-56.9,72.1
	c-14.5-22.5-29.7-44.4-45.6-65.7C-974.1-461.2-964.3-467.6-953.3-473.4z M-670.6-293.9c-7.2,16.8-33.3,54-52.2,73.2
	c-20.5,20.8-49.1,41.1-77.5,54c-4,1.8-8.1,3.3-12.1,4.5c-14.1-34.2-31.3-67.5-49.4-100c7.1-10.3,13.6-20.8,19.4-31.9
	c20.6-19.9,44-37.3,69.9-51.6c25.9-14.3,60.5-26.6,89.3-13.6c3.4,1.6,6.9,3.6,10,5.6c4.9,4.2,6,4.7,3.3,1.6
	c1.6,1.4,9.4,12,10.3,12.5c0.7,1.8,1.6,3.8,2.5,5.6c0,0.2,0,0.4,0,0.7c0,0.2,0,0.2,0,0.4c-0.9,4.2-1.8,8.3-3.1,12.5
	c-0.2,0.4-0.2,0.5-0.4,0.9C-663.6-310.8-667-302.4-670.6-293.9z"/>
<g>
	<path class="st1" d="M642.3,114.5c-5.8-7-12.2-13.1-19.1-18c-2-1.6-2.8-4.9-1.7-7.8s3.4-4,5.4-2.5c7.4,5.3,14.2,12,20.5,19.3
		c1.8,1.9,2.1,5.7,0.6,8.1c-0.3,0.5-0.9,1-1.4,1.3C645.4,116.1,643.5,115.9,642.3,114.5z"/>
	<path class="st1" d="M180.6,843.9c-1.5-2.3-1.7-6-0.2-8.3l4-6.4c9.3-14.6,19-29.7,28.8-46c1.6-2.6,4.1-2.8,5.8-0.7
		c1.8,2.3,1.9,5.9,0.5,8.3c-10,16.5-19.6,31.6-28.9,46.2l-4,6.4c-0.3,0.5-0.8,0.9-1.2,1.1C183.8,845.6,182,845.1,180.6,843.9z
		 M244.4,736.5c-1.7-1.8-2.1-5.4-0.8-8c10.1-20.1,18.5-39.3,25.8-58.8c1.1-2.8,3.4-4,5.4-2.5c2,1.6,2.8,4.9,1.7,7.8
		c-7.4,19.7-16.1,39.5-26.5,60.1c-0.2,0.7-0.9,1.4-1.3,1.7C247.4,737.8,245.7,737.8,244.4,736.5z M291.5,613.2
		c-2.1-0.9-3.3-4.2-2.6-7.2c5-22.5,8.2-45,9.9-67.6c0.2-3.2,2.2-5.5,4.4-5.1c2.2,0.3,3.8,3.1,3.6,6.3c-1.6,23.3-5.3,46.8-10.4,69.8
		c-0.4,1.6-1.2,2.7-2.1,3.3C293.2,613.6,292.2,613.7,291.5,613.2z M302.9,474c-2.2,0.5-4.2-1.9-4.4-4.9
		c-1.8-23.2-5.4-45.9-10.5-67.4c-0.8-3.1,0.2-6.2,2.4-7.3s4.3,0.4,5.1,3.4c5.4,22.6,9,46.1,10.9,70c0.2,2.5-0.9,4.8-2.2,5.9
		C303.7,474.3,303.3,474.4,302.9,474z M256.8,424.8c-7,5.1-13.9,9.3-21.1,12.6c-2.2,1.1-4.3-0.4-5.1-3.4c-0.8-3.1,0.2-6.2,2.4-7.3
		c6.6-3.3,13.4-7.5,20-12.3l0,0c7.6-5.6,15.2-11.9,22.4-19.3c2-2,4.4-1.3,5.7,1.4c1.2,2.7,0.9,6.3-0.9,8.2
		C272.6,412.3,264.8,419,256.8,424.8L256.8,424.8z M312,358c-1.8-2.3-1.7-6-0.2-8.3c9.7-14.6,19.5-31,31.6-53.2
		c1.4-2.7,3.9-2.9,5.7-1c1.9,2,2,5.6,0.7,8.2c-12.1,22.3-22,38.9-32,54c-0.4,0.2-0.7,0.8-1.2,1C315.1,359.8,313.4,359.4,312,358z
		 M186.2,449.4c-9.1-0.5-18.2-2.2-26.7-5.8c-7.6-3.1-15.1-7.8-22.1-14c-1.8-1.8-2.5-5.3-1.3-8c1.2-2.6,3.7-3.6,5.6-1.9
		c6.4,5.7,13.2,10,20,12.7c7.9,3.2,16.3,5,24.7,5.5c2.2-0.1,3.9,2.8,3.9,5.9c0.1,2.2-0.9,4-2.1,5C187.6,449.1,187,449.4,186.2,449.4
		z M266.8,340.3c-9.4-19.8-20.3-36.6-32.5-49.7c-1.7-1.8-2.1-5.5-0.8-8s3.8-3.1,5.5-1.2c13,13.7,24.6,31.5,34.4,52.5
		c1.2,2.7,0.7,6.1-1.1,8c-0.1,0.1-0.3,0.1-0.5,0.3C270.1,343.5,267.8,342.5,266.8,340.3z M373.7,248.5c-1.7-1.8-2-5.6-0.7-8.2
		c3.6-6.6,7.2-13.1,10.7-19.7c7.3-12.8,14-24.4,20.8-35c1.6-2.2,4.2-2.4,5.8-0.3c1.5,2.3,1.7,6,0.2,8.3
		c-6.6,10.7-13.3,21.9-20.4,34.4c-3.6,6.6-7.1,12.9-10.6,19.5c-0.3,0.9-0.9,1.4-1.3,1.7C376.9,250.1,375.3,249.9,373.7,248.5z
		 M577.7,77.8c-15.7-2.1-31.6-0.6-47.6,4.4c-2.2,0.7-4.3-1.3-4.8-4.4s0.9-6.2,3.1-6.9c16.9-5.4,33.7-6.7,50.1-4.6
		c2.2,0.3,3.8,3.1,3.6,6.3c-0.1,2-0.9,3.6-2.2,4.5C579.3,77.6,578.5,78,577.7,77.8z M440.1,144.4c-1.4-2.2-1.3-6.1,0.5-8.1
		c13.6-16.1,27.3-29.6,41.2-40.3l0,0c1.9-1.4,4.4-0.4,5.4,2.3c0.8,3,0.3,6.3-1.7,8c-13.5,10.3-26.8,23.2-39.9,38.8
		c-0.3,0.4-0.3,0.5-0.7,0.8C443.2,147.2,441.1,146.6,440.1,144.4z M109,378.1c-2.2,1.6-4.7,0.4-5.8-2.8c-6.3-20.2-7.6-41.3-3.4-61
		c0.8-4.1,1.8-8.1,3.2-11.8c0.9-3,3.4-4.4,5.4-2.9c2.1,1.3,3.1,4.9,2,7.8c-1.1,3.3-2,6.7-2.8,10.3c-3.6,16.9-2.6,34.9,3.1,52.9
		C111.8,373.3,110.9,376.6,109,378.1C108.9,378.3,108.9,378.3,109,378.1z M191.5,261.9c-15.5-4.3-32.1-2.7-46.4,4.4
		c-2,0.9-4.2-0.6-5-3.6c-0.6-2.9,0.4-6,2.5-7.1c15.6-7.5,33.5-9.3,50.5-4.7c2.2,0.7,3.8,3.6,3.3,6.8c-0.2,2-1.1,3.4-2.1,4.2
		C193.4,262.5,192.6,262.6,191.5,261.9z"/>
	<path class="st1" d="M138.3,928.5c-2.1-1.3-3.2-4.8-2.4-7.6c2.3-9.3,6.4-19.3,12.3-30.9c1.2-2.4,3.8-3,5.5-1.2s2.1,5.4,0.8,8
		c-5.4,10.7-9.3,19.9-11.3,28c-0.3,1.3-1,2.5-1.9,3.1C140.2,928.4,139.2,928.5,138.3,928.5z"/>
</g>
<g>
	<path class="st1" d="M1720,500.4c0.2-0.5,0.5-1.1,0.9-1.6c1.9-1.9,5.5-2.5,7.7-1.2c8.2,4.3,16,9.1,22.5,14.9c1.9,1.5,1.3,4-1.1,5.6
		s-5.7,1.6-7.6,0.1c-6.1-5.3-13.2-9.9-21-13.8C1719.9,503.6,1719.3,501.9,1720,500.4z"/>
	<path class="st1" d="M1141.7,1091.7c0.1-0.4,0.3-1,0.8-1.4l5.1-5.1c11.5-11.9,23.5-24.3,36.7-37.2c1.9-1.9,5.3-2.6,7.8-1.4
		c2.3,1.1,2.7,3.5,0.6,5.5c-13,12.7-25,25.1-36.5,37l-5.1,5.1c-1.9,1.9-5.3,2.6-7.8,1.7C1141.9,1094.9,1141.1,1093.2,1141.7,1091.7z
		 M1228.2,1008.8c0.2-0.5,0.7-1.3,1.3-1.6c16.9-14.2,33.4-26.7,50.2-37.9c2.4-1.6,5.7-1.6,7.6-0.1s1.3,4-1.1,5.6
		c-16.6,11.1-32.6,23.2-49.1,37c-2.1,1.8-5.6,2.2-7.6,1C1227.9,1011.8,1227.5,1010.2,1228.2,1008.8z M1333.7,938.9
		c0.3-1,1.3-1.9,2.6-2.7c20.4-9.8,41.4-18.5,62.8-25.1c2.9-0.9,5.9,0,6.7,1.9c0.8,2-0.9,4.3-3.8,5.2c-20.7,6.6-40.9,14.6-60.8,24.2
		c-2.7,1.3-5.9,0.9-7.3-0.9C1333.4,941,1333.2,940,1333.7,938.9z M1461.2,899c0.7-1.4,2.6-2.9,5-3.3c22.7-3.5,45.4-5.3,67.6-5.3
		c3,0,4.9,1.7,4.3,4c-0.5,2.2-3.2,3.9-6.3,3.8c-21.2,0-43.1,1.6-65.1,5.1c-2.9,0.4-5.5-0.9-5.6-3.1
		C1460.7,899.9,1460.8,899.6,1461.2,899z M1517.3,932.4c3.6-8.7,8.2-17.5,13.7-26.3c1.3-2.1,4.6-3.2,7.4-2.7c2.7,0.6,3.9,2.7,2.5,5
		c-5.3,8.4-9.5,16.8-13.1,25.2l0,0c-3,7.2-5.5,14.5-7.1,21.3c-0.5,2.2-3.2,3.9-6.3,3.8c-3,0-4.9-1.7-4.3-4
		C1511.7,947.4,1514.1,940,1517.3,932.4L1517.3,932.4z M1565.7,862c0.1-0.4,0.6-0.9,0.7-1.3c11.8-12.7,25.1-25.5,43.2-41.8
		c2.1-1.8,5.5-2.5,7.8-1.2c2.1,1.2,2.5,3.7,0.3,5.5c-18.1,16.2-31.2,28.9-42.6,41.2c-1.9,1.9-5.3,2.8-7.8,1.7
		C1565.7,865.1,1565,863.7,1565.7,862z M1510.2,1001.6c0.6-1.4,2-2.7,4.1-3.1c2.8-0.7,5.9,0.2,6.3,2.3c2.3,7.8,5.8,15.2,10.5,21.8
		c4,5.7,9.5,11.1,16.2,15.8c2,1.4,1.7,3.9-0.5,5.6c-2.3,1.7-5.7,1.9-7.8,0.5c-7.3-5.1-13.3-11.1-17.9-17.5
		c-5.2-7.1-8.9-15.2-11.3-23.6C1509.8,1002.8,1509.9,1002.2,1510.2,1001.6z M1590.9,900.1c0.2-0.2,0.1-0.4,0.2-0.5
		c1.3-2.1,4.4-3.3,7.2-2.8c21.7,4.4,40.8,11.3,56.5,20.4c2.1,1.2,2.1,3.7,0.1,5.4s-5.6,2.2-7.6,1c-14.9-8.5-32.9-14.9-53.5-19.3
		C1591.6,903.9,1590.1,902,1590.9,900.1z M1654.1,780.4c0.2-0.5,0.5-1.1,1.3-1.6c5.4-4.8,10.4-9.4,15.8-14.2
		c10.1-9.3,19-18.1,27.6-26.6c1.9-1.9,5.3-2.6,7.8-1.7c2.3,1.1,2.7,3.5,1,5.5c-8.4,8.7-17.8,17.5-28.1,27.1
		c-5.4,4.8-10.6,9.6-16,14.4c-2.1,1.8-5.7,2.4-7.8,1.2C1654.2,783.3,1653.7,781.8,1654.1,780.4z M1770,554.3c0.6-1.4,1.9-2.5,3.8-3
		c2.9-0.9,5.9,0,6.7,1.9c5.6,14.8,8.1,30.8,6.8,47.7c-0.2,2.2-2.7,4.1-5.7,4.4c-3,0.2-5.3-1.3-5.1-3.5c1.1-16-1-31.2-6.4-45.3
		C1769.6,555.8,1769.7,555,1770,554.3z M1735.9,695.4c0.1-0.4,0.2-0.5,0.6-0.9c11.7-15.6,20.7-30.9,27.3-45.7c1.1-2.2,4.1-3.5,7-3.4
		c2.7,0.4,4.2,2.4,3.3,4.5l0,0c-6.9,15.3-16.5,31.1-28.5,47.3c-1.5,2.1-5,3.1-7.4,2.2C1735.9,699,1734.9,697.3,1735.9,695.4z
		 M1593.5,1059.8c1-2.1,3.9-3.6,6.7-3.3c17.9,1.3,35-1.7,50-8.8c3.2-1.5,6.1-3.1,9-4.9c2.4-1.6,6-1.5,7.7,0.2
		c1.9,1.5,1.1,4.1-1.5,5.7c-3.2,2.1-6.7,3.9-10.3,5.6c-17.4,8.2-37.4,11.8-57.6,10.3C1594.1,1064.2,1592.5,1062.2,1593.5,1059.8
		C1593.3,1059.9,1593.3,1059.9,1593.5,1059.8z M1682.9,954.6c0.5-1.1,1.6-2.2,3.5-2.9c2.9-1.2,5.9-0.4,7.1,1.5
		c8,14.8,10.3,31.8,6.8,48.1c-0.5,2.2-3.2,3.9-6.1,3.9c-3,0-4.9-1.7-4.5-3.8c3.4-14.9,1.3-30.6-6.2-44.2
		C1682.6,956.4,1682.6,955.6,1682.9,954.6z"/>
	<path class="st1" d="M1073.8,1151c0.3-1,1.3-1.9,2.5-2.5c7.1-3.7,14.8-9.3,23.6-16.7c2.1-1.8,5.6-2.2,7.6-1s2.1,3.7,0.1,5.4
		c-9.5,8.1-17.9,14.1-26.1,18.3c-2.4,1.4-5.9,1.1-7.6-0.5C1073.6,1153.2,1073.5,1152.3,1073.8,1151z"/>
</g>
<g>
	<path class="st1" d="M-657.9,1624.7l-19.1-594.8l-82.1,2.6l19.1,594.8c0.4,12.7,10.8,22.5,23.4,22l36.8-1.3
		C-667.4,1647.7-657.5,1637.1-657.9,1624.7z"/>
	<polygon class="st7" points="-713.6,918.5 -730.6,919.1 -759.4,1032.4 -677.3,1029.8 	"/>
	<polygon class="st1" points="-742.2,964.8 -730.6,919.1 -713.6,918.5 -698.5,964.7 -711,969.3 -720.5,966.6 -733.1,972.9 	"/>
</g>
<g class="st3">
	<path class="st1" d="M1653.3-80.7l-251.8,205.8l28.3,34.7l251.8-205.9c5.3-4.4,6.2-12.2,1.8-17.5l-12.8-15.5
		C1666.4-84.2,1658.5-84.9,1653.3-80.7z"/>
	<polygon class="st7" points="1365.2,177.9 1371,185.1 1429.8,160 1401.5,125.3 	"/>
	<polygon class="st1" points="1394.8,175 1371,185.1 1365.2,177.9 1380.2,156 1386.4,159.9 1388.4,164.9 1395.3,168.4 	"/>
</g>
<g class="st3">
	<path class="st1" d="M358.6,1367.3l16.5,11.5c5.7,4,13.3,2.5,17.3-3.2l185.3-267.3l-36.9-25.5l-185.2,267.3
		C351.8,1355.8,353.1,1363.6,358.6,1367.3z"/>
	<polygon class="st7" points="541.1,1082.9 577.9,1108.4 598.3,1047.8 590.7,1042.6 	"/>
	<polygon class="st1" points="583.6,1073.3 579.6,1066.7 574.4,1065.1 570.1,1059.3 590.7,1042.6 598.3,1047.8 590.1,1072.3 	"/>
</g>
<ellipse transform="matrix(0.1663 -0.9861 0.9861 0.1663 483.3391 837.8405)" class="st0" cx="737.2" cy="133.1" rx="94" ry="93"/>
<path class="st0" d="M870.4,175.2L768.6,158c-10.5-1.8-17.6-11.7-15.9-22.3v-0.2c1.8-10.5,11.7-17.6,22.3-15.9l101.8,17.2
	c10.5,1.8,17.6,11.7,15.9,22.3v0.2C890.9,169.9,880.9,176.9,870.4,175.2z"/>
<ellipse transform="matrix(0.1663 -0.9861 0.9861 0.1663 481.9432 837.7236)" class="st5" cx="736.4" cy="133.8" rx="70.3" ry="69.4"/>
<path class="st0" d="M697.1,139c-1.2-4.3-1-9.1,2.5-12.3c3.7-3.2,7.8-2.3,11.7-0.1c7.7,4.4,16.1,11.8,25.6,7.1
	c8.5-4.3,9.5-14.4,10-22.8c0.3-4.2,0.5-9.2,3.7-12.5c3.3-3.3,8.4-1.4,11.6,1c4.3,3.2,8.5-4,4.2-7.2c-8.7-6.4-20.3-4.8-25.2,5.2
	c-2.7,5.5-2.4,11.6-3,17.5c-0.4,4.3-1.6,10.6-6.5,11.7c-5.2,1.1-10.6-3.9-14.5-6.4c-4.7-3-10.3-5.2-15.9-3.7
	c-10.9,2.8-14.9,14.7-12.1,24.7C690.5,146.3,698.6,144.2,697.1,139L697.1,139z"/>
<path class="st0" d="M711.3,170.4c-0.9-9.9,13.5-7.4,19.1-6.3c7.6,1.4,17.4,5,24.7,1.2c6.6-3.5,8.9-11.2,9.9-18
	c1.3-8.1,3.6-15.4,12.4-17.6c5.2-1.3,3-9.3-2.2-8c-8.1,2-14.5,8.1-16.8,16.1c-1.9,6.5-0.9,20.8-10.6,20.8c-4.7,0-9.8-1.6-14.4-2.4
	c-4.7-0.8-9.5-2-14.3-1.6c-8.2,0.7-17,6.7-16,15.9C703.5,175.7,711.9,175.8,711.3,170.4L711.3,170.4z"/>
<g class="st3">
	<path class="st8" d="M1738.5,297.9c-0.5,1.1-0.8,1.6-1,2.1c-8.1,22.3-21.9,40.7-38.6,57.1c-14.1,13.9-29.9,25.8-46.5,36.6
		c-19.7,12.7-40.2,23.8-61.7,32.9c-10.3,4.4-21.4,7-32.1,10.7c-7.1,2.5-14,5.4-21,8.1c0.1,0.3,0.2,0.6,0.3,0.9
		c0.6,0.2,1.1,0.4,1.7,0.5c3.4,0.4,6.8,1,10.2,1.2c20.4,1.1,39.3-4.5,57.6-12.6c22.1-9.8,42-23.2,60.7-38.3
		c20.7-16.6,40.9-34,59.3-53.2c6.3-6.6,11.8-13.8,14.7-22.6C1744.7,313.2,1743.9,305.5,1738.5,297.9z M1580.4,407.6
		c0.2,0.2,0.4,0.3,0.6,0.5c2.5-1.8,5-3.6,7.5-5.5c12.7-9.6,25.9-18.7,38-29c14.2-12.1,27.9-24.9,41.2-37.9
		c15.9-15.5,29.5-32.9,40.8-52c6.1-10.3,11-21.2,10.9-33.5c0-6.4-1.6-12.4-5.3-18.1c-0.2,0.8-0.4,1.2-0.4,1.5
		c-5.9,25.2-16.7,48.2-32,68.9c-9.6,13.1-20.2,25.7-31,37.9c-8.7,9.9-17.9,19.5-27.7,28.4c-8.9,8.1-18.8,14.9-28.2,22.4
		C1589,395.7,1584.1,401.1,1580.4,407.6z M1615.3,443.8c12.4,0.5,23.5-2.3,34.3-6.4c13.7-5.2,26.4-12.5,38-21.6
		c13.6-10.7,25.5-22.9,32.8-39c2.1-4.6,3.6-9.5,4-15.1c-0.8,0.5-1.1,0.7-1.4,1c-7.7,7.9-15.4,15.8-23.1,23.6
		c-10.5,10.7-21.1,21.2-34.5,28.3c-10.7,5.7-21.8,10.9-32.6,16.5C1626.6,434.5,1620.6,438.1,1615.3,443.8z M1632.1,452.2
		c3.2,1.4,5.5,2.8,8.1,3.3c9.5,1.9,18.7-0.2,27.7-2.7c10.5-3,19.6-8.8,28-15.7c9.6-7.9,17.4-17.1,22.4-28.5
		c2.1-4.7,3.5-9.7,3.4-15.5c-1.3,1.2-2.2,2.1-3.1,2.9c-11.1,9.7-22,19.7-33.3,29.1c-11.2,9.4-23.7,16.7-37.4,21.9
		C1643.1,448.8,1638.1,450.3,1632.1,452.2z M1715.2,426.2c-1,0.7-1.7,1.1-2.3,1.6c-5.9,5.1-11.7,10.2-17.6,15.3
		c-8.8,7.6-17.9,14.8-28.7,19.3c-5.3,2.2-10.8,3.8-16.2,5.7c2.9,3.9,7.1,5.1,11.7,5.1c16.8,0.1,31-5.8,42.1-18.5
		C1711,446.9,1715.3,437.7,1715.2,426.2z M1707,496.4c-1.1-4.6-2.5-8.7-2.9-12.9c-0.4-3.8,0.3-7.7,0.4-11.5c0.1-2.7-0.1-5.5-0.2-8.2
		c-0.3-0.1-0.5-0.2-0.8-0.2c-10.6,12.5-24.2,20.8-39.1,28.3C1678.9,498.6,1693.2,498.8,1707,496.4z"/>
	<path class="st8" d="M1440.3,450.3c-0.9-4.1-2.7-8.2-2.4-12.2c0.4-6.3,1.5-12.7,3.6-18.6c8-22.1,20.3-41.8,35.1-59.9
		c6.2-7.7,13-14.9,19.5-22.3c0.5-0.5,1-0.9,1.7-1.5c0.5,0.5,1,0.8,1.4,1.3c0.3,0.4,0.6,0.8,0.7,1c-5.9,8-11.9,15.7-17.5,23.7
		c-9,13-16.7,26.7-20.9,42c-1.5,5.3-2.2,11.1-2,16.7c0.3,8.8,6.6,14.5,15.3,15.6c5.9,0.7,13.2-0.3,17.1-2.1c-1.9-3.1-4.3-6-5.6-9.3
		c-3.1-8.3-1.2-16.6,1.8-24.5c5.3-14.1,13.3-26.4,24.6-36.5c1.2-1.1,2.6-1.9,4.4-2.6c-1,2.7-2,5.3-3,8c-3.6,9.4-7.4,18.7-10.8,28.2
		c-1,2.9-1.3,6.1-1.4,9.2c-0.2,7,3.6,11,10.7,11c7.7,0,14.9-2.1,21.8-5.4c1.6-0.8,3.1-1.7,5.1-2.8c-1.9-0.7-3.4-1-4.8-1.7
		c-5.9-2.7-8.3-8-6.8-14.8c2-9.3,7.3-16.9,12.7-24.5c2.2-3.1,4.6-6,6.9-9c0.3,0.1,0.6,0.3,0.9,0.4c-1,2.7-1.9,5.6-3.1,8.2
		c-2.2,5.1-5.1,9.9-6.8,15.1c-2.8,8.3,2.8,14.9,11.5,14c7.5-0.7,14.1-4,20.5-7.7c16.7-9.7,31.4-22,44.8-35.8
		c10.3-10.7,19.8-22.1,25.8-35.9c1.6-3.6,2.7-7.4,3.4-11.2c1.5-8.4-3.4-14.1-12-13.8c-4.5,0.2-9,0.7-13.7,0.8
		c5.3-6.1,11.9-9.7,19.9-10.7c8.9-1.1,15.8,2.2,20.6,10.5c4-9.4,6.9-18.4,4.6-28.2c-1.2-5.1-5.2-8-11.2-7.9
		c-5.2,0.1-10.4,0.9-15.5,2c-7.9,1.7-15.6,4.1-23.4,6c-2.3,0.6-4.7,0.6-7.1,0.9c-0.1-0.3-0.3-0.7-0.4-1c2.7-1.9,5.4-3.8,8.2-5.6
		c10.6-6.7,21.4-12.9,33.6-16.1c8.9-2.3,17.8-3.1,26.4,0.8c3.5,1.6,6.6,4.1,10.2,6.3c0.9-7.6,2-15.3-0.5-22.9
		c-2.6-7.6-8.2-11.7-16-13c-10.4-1.6-20.3,0.7-30.1,3.8c-13.4,4.3-26.1,10.1-38.2,17.2c-2.5,1.5-5.6,2-8.4,3
		c4.9-4.5,9.8-9.1,14.7-13.6c2.2-1.2,4.4-2.2,6.5-3.5c18.1-11.2,37.2-20.4,58.1-25.2c11.8-2.7,23.6-3.5,34.2,4.2
		c0.8,0.9,1.6,1.8,2.5,2.7c7.8,13.4,4.9,26.8-0.4,39.8c-8.8,21.8-21.4,41.5-35.4,60.2c-21.2,28.3-46.8,52.4-73,75.8
		c-22.4,20-46.5,37.8-72.6,52.7c-0.6,0.3-1.1,0.8-1.5,1.7c1.1-0.2,2.2-0.3,3.3-0.6c15.1-3.2,29-9.7,42.8-16.3
		c23-11,44.7-23.9,65.4-38.8c15.8-11.4,30.5-24,44.1-37.9c20.6-21.2,37.9-44.7,49.6-72c0.4-1,0.9-1.9,1.6-3.4c3.3,6.4,4,12.8,3,19.4
		c-1.6,10.9-7.2,20.1-13.8,28.5c-11.4,14.7-23.2,29.3-36.9,42c-10.2,9.4-20.8,18.6-31.7,27.2c-15.4,12-32.1,22.4-49.2,31.8
		c-19.7,10.8-39.6,21.2-61,28.2c-12.1,4-24.4,6.3-37.2,2.8c-1.2-0.3-2.9,0.4-4.2,1.1c-8.9,4.5-17.9,8.9-27.6,11.3
		c-7,1.7-14.1,2.6-21.3,0.8c-2.4-0.6-4.6-1.7-6.9-2.6C1443,453.3,1441.6,451.8,1440.3,450.3z"/>
	<path class="st8" d="M1738.5,297.9c5.5,7.6,6.2,15.3,3.6,23.4c-2.9,8.8-8.4,16.1-14.7,22.6c-18.4,19.2-38.6,36.5-59.3,53.2
		c-18.7,15.1-38.6,28.4-60.7,38.3c-18.3,8.2-37.3,13.7-57.6,12.6c-3.4-0.2-6.8-0.7-10.2-1.2c-0.6-0.1-1.1-0.3-1.7-0.5
		c-0.1-0.3-0.2-0.6-0.3-0.9c7-2.7,13.9-5.6,21-8.1c10.7-3.7,21.8-6.3,32.1-10.7c21.5-9.1,42.1-20.2,61.7-32.9
		c16.7-10.8,32.4-22.7,46.5-36.6c16.7-16.4,30.5-34.9,38.6-57.1C1737.7,299.5,1738,299,1738.5,297.9z"/>
	<path class="st8" d="M1580.4,407.6c3.7-6.4,8.6-11.8,14.4-16.5c9.4-7.5,19.3-14.3,28.2-22.4c9.8-8.9,19-18.5,27.7-28.4
		c10.8-12.3,21.3-24.8,31-37.9c15.2-20.8,26.1-43.8,32-68.9c0.1-0.4,0.2-0.8,0.4-1.5c3.7,5.8,5.3,11.7,5.3,18.1
		c0.1,12.4-4.8,23.3-10.9,33.5c-11.3,19.1-24.9,36.5-40.8,52c-13.4,13-27,25.9-41.2,37.9c-12.1,10.3-25.3,19.4-38,29
		c-2.5,1.9-5,3.7-7.5,5.5C1580.8,407.9,1580.6,407.7,1580.4,407.6z"/>
	<path class="st8" d="M1615.3,443.8c5.2-5.7,11.3-9.3,17.5-12.6c10.8-5.6,21.8-10.8,32.6-16.5c13.4-7.1,24-17.7,34.5-28.3
		c7.7-7.8,15.4-15.7,23.1-23.6c0.3-0.3,0.6-0.4,1.4-1c-0.4,5.6-1.9,10.4-4,15.1c-7.3,16.1-19.1,28.3-32.8,39
		c-11.6,9.1-24.2,16.3-38,21.6C1638.8,441.6,1627.7,444.4,1615.3,443.8z"/>
	<path class="st8" d="M1632.1,452.2c6-2,11-3.4,15.9-5.2c13.7-5.2,26.2-12.5,37.4-21.9c11.3-9.5,22.2-19.4,33.3-29.1
		c0.9-0.8,1.8-1.6,3.1-2.9c0.1,5.8-1.3,10.8-3.4,15.5c-5,11.4-12.8,20.6-22.4,28.5c-8.4,6.9-17.5,12.7-28,15.7
		c-9,2.6-18.3,4.6-27.7,2.7C1637.7,455.1,1635.3,453.6,1632.1,452.2z"/>
	<path class="st8" d="M1715.2,426.2c0.1,11.5-4.2,20.6-11.1,28.5c-11.1,12.7-25.4,18.6-42.1,18.5c-4.6,0-8.8-1.2-11.7-5.1
		c5.4-1.9,10.9-3.5,16.2-5.7c10.9-4.5,19.9-11.7,28.7-19.3c5.9-5.1,11.8-10.2,17.6-15.3C1713.5,427.3,1714.2,426.9,1715.2,426.2z"/>
	<path class="st8" d="M1707,496.4c-13.9,2.4-28.1,2.2-42.6-4.6c14.9-7.5,28.5-15.8,39.1-28.3c0.3,0.1,0.5,0.2,0.8,0.2
		c0.1,2.7,0.3,5.5,0.2,8.2c-0.1,3.8-0.8,7.7-0.4,11.5C1704.6,487.7,1705.9,491.8,1707,496.4z"/>
	<path class="st8" d="M1560,376.1c4.2-5.9,8.1-11.8,12.4-17.5c9.7-12.8,22-23,35-32.3c3.7-2.7,8-4.7,12.3-6.2
		c5.1-1.8,8.2,1.3,6.4,6.4c-1.5,4.1-3.9,7.9-6.6,11.4c-8.1,10.6-17.1,20.4-27.5,28.9c-6,4.9-12.3,9.2-19.9,10.9
		C1568.2,378.7,1564.3,378.6,1560,376.1z"/>
</g>
<g>
	<path class="st9" d="M229.2,1206.1c-3.1-2.5-3.4-6.3-3.6-9.8c-2.4-34.7-4.6-69.4-0.9-104.2c1.8-16.4,7.4-31.9,9.8-48.1
		c2.2-15,3.6-29.8,0.7-45c-2.1-11.3-7.1-20.7-14.9-28.8c-13.7-14.4-30.1-25.3-46.5-36.2c-7-4.6-14.5-4.7-22-1.4
		c-12.3,5.3-23.7,12.1-34.7,19.5c-5.6,3.7-9.2,9-9.4,15.9c-0.9,24.2,1.4,48.2,9.4,71c5.7,16.1,19.4,25.2,33.9,32.9
		c3.4,1.8,4.8,0,4.9-3.2c0.4-18.5,2.5-36.7,5.4-54.9c0.7-4.3-1.5-6.5-5.1-8.4c-8-4-16.2-7.6-23.4-13.1c-7.9-6.1-7.8-8.9,0.5-14
		c10.7-6.6,21.9-12.2,32.7-18.5c8.5-4.9,12.1-2.7,12.5,7.2c0.9,25.2-4.2,49.9-6,74.9c-3.2,45.2-4.2,90.4-3.4,135.7
		c0.1,6.7,2.7,10.8,9.7,12.6c12.9,3.4,25.5,7.5,38.2,11.4c3,0.9,6.8,0.9,7.7,5.1"/>
	<path class="st0" d="M224.6,1206.9c-12-5.9-25.1-8.1-37.6-12c-18.8-5.8-19.3-5.6-20.1-25.1c-1.2-31.4,0.8-62.8,1.4-94.1
		c0.6-30.4,5.2-60.5,7.9-90.7c0.6-7.4,0.6-14.8-0.1-22.2c-0.3-3.7-1.9-5.1-5.5-3.1c-14.4,8.1-28.8,16.2-43.6,24.6
		c8.4,9.3,18.8,14.3,29.3,18.8c6.2,2.7,27.9,12.8,26.6,19.6c-3.6,18.3-3.8,31.4-4.1,50.1c-0.1,6.4-19-6.7-23.8-8.6
		c-30-12.3-42.8-19.6-46-47.2c-1.9-16-3.9-31.9-3.5-48.1c0.2-7.9,3.4-13.7,9.8-18c11.6-7.9,23.8-14.9,36.7-20.6
		c7.1-3.1,14.2-3.2,21.3,1.1c18.9,11.4,36.6,24.3,51.6,40.8c13.4,14.8,14.9,33.1,14.3,51.8c-0.4,12.5-2.3,25-5.8,37
		c-9,31.2-9,63-7.9,95c0.6,16.8,0.8,33.7,3.9,50.3C227.7,1206.4,226.1,1206.6,224.6,1206.9z"/>
	<path class="st0" d="M310.8,1169.3c-14.4-10.3-39.9-39-53.5-48.5c-8.8-6.1-17.9-11.8-27.2-17.2c-3.9-2.2-5.6-4.6-5.2-9.1
		c1.3-16.9,3.7-33.5,8.7-49.7c1-3.3,1.6-5.6,6-3c23,13.8,36,28.5,58,43.9c5.2,3.6,30.2,19.2,28,26
		C320.3,1128.6,315.9,1150.6,310.8,1169.3z"/>
</g>
<g class="st3">
	<path class="st1" d="M1396.9,714.7c1.9,0.7,3.9,1.3,5.9,1.9c0.3,0,0.6,0.2,1,0.2c1.8,0.7,3.7,1,5.6,1.3c7,1.3,14.1,2.2,21.1,3.9
		c0.4,0,0.8,0.3,1.2,0.2c2.2,0.7,4.4,1.4,6.6,2.1c0.3,0.3,0.8,0.2,1.1,0.5c3.8,1.5,7.5,3,10.9,5.4c3.8,2.7,7,5.9,8.6,10.4
		c1.3,3.8,0.6,7.2-2,10.2c-2.9,3.3-6.6,4.5-10.8,4.5c-5,0.1-10-0.2-14.9-1.4c-0.7-0.2-1.4-0.3-2.1-0.4c-0.3,0-0.7-0.2-1-0.2
		c-1.1-0.3-2.2-0.6-3.2-0.9c-0.9-0.1-1.7-0.6-2.6-0.7c-3-1.1-6.1-2-9.2-2.9c-1-0.5-2-0.6-3-1.1c-2-0.7-3.9-1.4-6-1.9
		c-0.7-0.4-1.5-0.4-2.1-0.8c-5.7-1.9-11.4-3.8-17.2-5.4c-0.5,0-1-0.4-1.5-0.4c-2.2-0.7-4.5-1.4-6.7-2c-0.9-0.1-1.8-0.6-2.7-0.7
		c-1.3-0.6-2.6-0.8-3.9-1.2c-0.4,0-0.8-0.3-1.2-0.2c-0.6-0.3-1.2-0.4-1.8-0.5c-0.3,0-0.7-0.2-1-0.2c-1.3-0.5-2.7-0.6-4.1-0.9
		c-0.5-0.1-1,0.2-1.5,0.6c1.1,0.6,2.2,1,3.3,1.3c0.4,0.3,0.9,0.3,1.3,0.5c1.2,0.4,2.3,0.9,3.5,1.2c0.7,0.4,1.6,0.5,2.3,0.9
		c2.5,0.8,4.9,1.7,7.4,2.4c0.7,0.4,1.5,0.4,2.1,0.8c1.2,0.4,2.4,0.8,3.5,1.2c0.4,0.3,0.9,0.3,1.3,0.5c1.5,0.5,2.9,1.1,4.4,1.4
		c0.8,0.4,1.7,0.5,2.5,0.9c7.7,2.5,15.5,5,23.3,7.3c0.6,0.1,1.2,0.4,1.9,0.5c1.5,0.6,3.1,0.8,4.7,1.2c0.3,0,0.6,0.2,1,0.2
		c1,0.3,2,0.6,3.1,0.9c0.6,0,1.2,0.4,1.9,0.4c1.3,0.6,2.6,0.8,3.9,1.2c0.4,0,0.8,0.3,1.2,0.2c2.9,0.9,5.8,1.4,8.8,1.7
		c3.5,0.3,7,0.1,10.3-1.1c2.8-1,5.4-2.4,7.4-4.8c1.5-1.7,2.7-3.7,3.3-5.9c0.8-2.8,0.6-5.5-0.8-8.2c-1-2-2.3-3.9-4.1-5.3
		c-0.5-0.4-0.4-0.7,0.1-1c0.6-0.4,1.2-0.7,1.8-1.1c3.1-1.9,6.2-3.9,9.5-5.4c2.5-1.1,4.9-2.3,7.4-3.3c2.2-0.9,4.3-1.8,6.5-2.6
		c2.1-0.8,4.2-1.5,6.3-2.2c2.8-1,5.7-1.8,8.6-2.6c3.8-1.1,7.6-1.8,11.5-1.3c0.8,0.1,1.6,0.3,2.4,0.4c0.8,0.2,1.5,0.4,2.2,0.7
		c0.9,0.5,1.9,0.9,2.6,1.8c1.4,1.6,1.6,3.4,0.5,5.2c-0.8,1.3-1.8,2.3-3,3.1c-4.1,2.9-8,6-12,9c-3.4,2.6-7.3,4.3-11.1,6
		c-3.4,1.6-6.5,3.5-9.5,5.8c-2.3,1.8-5,3.3-7.2,5.2c-5.4,4.6-11.6,7.7-18.4,9.6c-4.3,1.2-8.5,2.8-12.6,4.7
		c-4.9,2.4-10.2,3.8-15.4,5.3c-9,2.6-17.9,5.5-26.8,8.5c-1.8,0.6-3.5,1.4-5.2,2.4c-1,0.6-2.3,0.8-3.5,1.3c-3.3,1.2-6.7,2.1-10.1,2.8
		c-5.2,1.1-10.2,0.1-15.1-1.8c-5.1-1.9-9.4-5.1-13.8-8.3c-5-3.6-10.1-7.2-14.7-11.4c-2.5-2.3-5.4-4-8.3-5.7c-4.1-2.5-8-5.2-12-7.9
		c-4.6-3.1-9.8-5.3-14.6-8.1c-7-4-14.5-5.2-22.3-5.6c-3.8-0.2-7.7-0.6-11.5-0.1c-1,0.1-2.1,0.1-3.1-0.3c0.4-0.4,0.3-0.8,0-1.3
		c-3.7-8.2-7.1-16.5-9.7-25.2c-0.9-3.1-1.7-6.3-2.4-9.4c-1.2-5.1-2.6-10.1-4.3-15c-0.8-2.4-1.1-5-1.9-7.5c-0.6-1.8-1.4-3.4-2.8-4.6
		c-0.4-0.4-0.3-0.5,0-0.7c1.6-1,3-2.1,4.6-3.1c2.7-1.6,5.8-2.2,8.7-3.1c2.7-0.9,5.3-1.7,7.9-2.7c3.2-1.2,6.5-1.9,9.9-2
		c9.6-0.4,19.1-0.5,28.7,0.3c3.9,0.3,7.8,1,11.6,1.9c0.5,0,0.9,0.3,1.3,0.3c2,0.6,4,1.3,6.1,1.9c0.3,0.3,0.8,0.2,1.1,0.5
		c7.9,2.9,14.9,7.4,21.6,12.4c4.5,3.3,9.3,6.4,13.7,9.9c3.5,2.8,6.8,5.8,9.7,9.3c3.1,3.7,6.9,6.5,11,9c4.5,2.7,9.3,4.8,14.2,6.6
		c0.1,0,0.2,0,0.3,0C1396.3,714.5,1396.6,714.5,1396.9,714.7z"/>
	<path class="st1" d="M1494.8,617.9c-1.4,4.2-3.4,8.2-5.9,11.9c-3.9,5.7-8.9,10.4-14.5,14.5c-4.2,3-8.4,6-12.9,8.7
		c-3.3,2-6.7,4-10.2,5.8c-3.7,2-7.4,4-11.2,5.9c-5.9,3-11.8,6-17.6,9.2c-4.2,2.2-8.4,4.4-12.6,6.7c-3.7,2.1-7.5,4-11.3,6
		c-1.8,0.9-3.5,1.9-5.3,2.9c-0.2,0.1-0.4,0.3-0.7,0.5c-1.4-3.4-3.2-6.5-4.8-9.7c-0.8-1.6-1.7-3.1-2.4-4.7c-1.8-4-4.1-7.8-6-11.7
		c-2.7-5.5-5.6-10.9-8.4-16.3c-1.1-2.2-2.2-4.4-3.4-6.5c-0.7-1.3-1.5-2.5-2.1-3.8c-1.3-3-3-5.7-4.4-8.6c-1.2-2.5-2.5-5.1-3.6-7.7
		c-1.2-2.8-2.4-5.7-3.5-8.6c-1.4-3.7-2.7-7.4-3.8-11.1c-1.4-4.7-2.1-9.5-2.2-14.4c0-3,0.2-6,0.7-9c0.4-2.6,1.2-5.2,2.1-7.7
		c0-0.1,0-0.2,0-0.4c0.2-0.3,0.2-0.6,0.4-0.9c1.3-3.6,3.3-6.9,5.7-9.9c2.1-2.6,4.5-4.9,7.3-6.8c1.9-1.3,3.8-2.4,6-3.3
		c3.2-1.3,6.4-2,9.8-2.1c4.2-0.2,8.4,0.4,12.5,1.5c0.6,0.1,1.2,0.3,1.7,0.5c4.4,1.5,8.6,3.7,12.3,6.4c4.5,3.4,8.4,7.3,11.5,12.2
		c1.6,2.5,3.4,5,5.1,7.5c1.3,2,2.5,4,3.2,6.4c0.1,0.5,0.2,0.5,0.6,0.2c2.5-1.8,5.3-3,8.2-4c2.3-0.9,4.7-1.8,7-2.7
		c3.8-1.6,7.8-2.5,11.8-3c4.3-0.5,8.6-0.3,12.9,0.4c1,0.2,2.1,0.4,3.1,0.6c0.4,0,0.8,0.3,1.2,0.2c1,0.4,2,0.8,3.1,1
		c0.3,0.2,0.6,0.2,0.9,0.4c4.6,1.9,8.8,4.4,12.3,7.9c5,5,7.8,11.1,8.8,18.1c0.7,5.4,0.3,10.7-1.2,16c0,0.2-0.1,0.4-0.1,0.5
		C1495,617.2,1494.9,617.5,1494.8,617.9z"/>
	<path class="st1" d="M1247.3,760.4c-1.6-5.5-4.2-10.4-6.7-15.3c-3.4-6.8-5.6-14-7.5-21.3c-2.8-10.8-4.2-21.9-5.3-33
		c-0.6-6.7-1.5-13.4-3.1-20c-0.1-0.3-0.1-0.6-0.2-0.9c-0.2-0.4-0.3-0.7,0.3-0.9c1.6-0.5,3-1.6,4.7-2c1.9-0.5,3.8-0.3,5.6,0.5
		c1.5,0.6,3,1.2,4.4,2.1c2.2,1.3,3.5,3.2,4.4,5.5c1.6,4.3,3.4,8.6,5.1,13c2.8,7.4,4.9,15,6.4,22.7c1.5,7.7,3.7,15.1,6.7,22.3
		c1.2,2.8,3,5.1,4.5,7.7c1.2,2.1,1.2,2.1-0.4,3.8c-3.8,4.2-8.1,7.9-12.9,11C1251.3,757,1249.2,758.5,1247.3,760.4z"/>
	<path class="st1" d="M1516.1,709.6c-0.5,1.2-1.1,2.3-1.8,3.3c-0.2,0.3-0.4,0.4-0.7,0.1c-0.4-0.4-0.9-0.7-1.5-0.9
		c-0.6-0.3-1.3-0.5-1.9-0.6c-1.8-0.6-3.7-0.4-5.6-0.3c-5,0.3-9.8,1.8-14.4,3.6c-5.8,2.2-11.5,4.8-17.1,7.5c-2.2,1.1-4.4,2.3-6.6,3.4
		c-3.3,1.6-6.9,2.8-10.1,4.7c-1.1,0.6-2.2,0-3.1-0.5c-1.3-0.7-2.5-1.6-3.9-2.3c1.2-1.4,2.6-2.6,4.2-3.5c2.5-1.4,5.1-2.4,7.7-3.5
		c2.4-1,4.8-1.9,7.2-2.9c2.3-1,4.6-1.7,6.9-2.7c2.6-1.2,5.2-2.4,7.7-3.7c2.3-1.2,4.6-2.4,6.9-3.5c5.2-2.5,10.5-4.5,16.1-5.8
		c2.2-0.5,4.4-0.6,6.5,0.1c3.2,1,4.4,3,3.8,6.3C1516.4,708.8,1516.3,709.2,1516.1,709.6z"/>
	<path class="st1" d="M1440.6,724.2c1.5-0.4,2.7-1.2,3.8-2.2c2.8-2.4,5.9-4.1,9.2-5.5c1.1-0.5,2.3-1,3.4-1.5c3.2-1.3,6.3-3,9.4-4.4
		c3.3-1.6,6.5-3.4,9.8-5.1c1.5-0.8,2.9-1.9,4.4-2.6c2.9-1.4,5.9-2.6,9.1-3.2c1.7-0.3,3.4,0,5,0.5c1.3,0.3,2.6,0.8,4,1.1
		c-0.7,0.7-1.5,1.1-2.3,1.6c-3.5,2-7.3,3.4-11,5c-1.5,0.7-3.1,1.3-4.5,2c-4.5,2.2-9,4.4-13.5,6.6c-2.9,1.4-5.7,2.8-8.6,4.1
		c-0.9,0.4-1.9,0.9-2.9,1.1c-2.6,0.6-4.7,2.1-6.9,3.5c-1.4,0.9-2.9,1.3-4.5,0.8c-1.2-0.3-2.4-0.8-3.6-1.3
		C1440.5,724.4,1440.5,724.4,1440.6,724.2z"/>
	<path class="st1" d="M1433,721.5c2-0.6,2.8-2.4,4.2-3.4c1.6-1.2,3.3-2,5.1-2.8c1.8-0.8,3.6-1.4,5.5-2.1c1.8-0.7,3.7-1.4,5.5-2.1
		c1.2-0.5,2.2-1.2,3.4-1.6c1.3-0.5,2.6-1.1,3.9-1.6c1.3-0.5,2.5-1,3.7-1.7c1.7-0.9,3.4-1.9,5.1-2.9c2.8-1.6,5.7-2.3,8.9-2.3
		c0.8,0,1.5-0.1,2.3-0.3c0.2-0.1,0.4,0.1,0.6,0c-0.2,0.5-0.6,0.7-1,0.9c-2.5,1-4.7,2.6-7.1,3.8c-6.1,3.1-12.2,6.4-18.6,9.1
		c-4.7,2-9.2,4.2-13.1,7.4c-1.3,1.1-2.8,1.3-4.3,1C1435.8,722.6,1434.5,722.1,1433,721.5z"/>
	<path class="st10" d="M1409.9,747.6c1,0.4,2.1,0.5,3,1.1C1411.9,748.3,1410.8,748.2,1409.9,747.6z"/>
	<path class="st10" d="M1373.6,736.4c1,0,1.8,0.5,2.7,0.7C1375.4,737.2,1374.5,736.7,1373.6,736.4z"/>
	<path class="st10" d="M1422.1,751.6c0.9,0,1.7,0.4,2.6,0.7C1423.7,752.3,1423,751.8,1422.1,751.6z"/>
	<path class="st10" d="M1391.8,745.1c-0.8-0.3-1.7-0.4-2.5-0.9C1390.1,744.5,1391,744.6,1391.8,745.1z"/>
	<path class="st10" d="M1370.6,737.9c-0.8-0.3-1.6-0.4-2.3-0.9C1369,737.4,1369.9,737.4,1370.6,737.9z"/>
	<path class="st10" d="M1513.9,715c-0.7-0.2-1.5-0.5-2.2-0.7C1512.5,714.3,1513.3,714.5,1513.9,715z"/>
	<path class="st10" d="M1380.1,741.1c-0.7-0.3-1.5-0.3-2.1-0.8C1378.6,740.6,1379.4,740.6,1380.1,741.1z"/>
	<path class="st10" d="M1401.8,744.9c0.7,0.3,1.5,0.3,2.1,0.8C1403.2,745.4,1402.4,745.4,1401.8,744.9z"/>
	<path class="st10" d="M1394.4,548.9c-0.6-0.2-1.2-0.4-1.7-0.5C1393.3,548.3,1393.8,548.5,1394.4,548.9z"/>
	<path class="st10" d="M1510.2,711.5c0.7,0,1.4,0.2,1.9,0.6C1511.4,712,1510.8,711.7,1510.2,711.5z"/>
	<path class="st10" d="M1427.5,755.6c-0.7,0.1-1.2-0.3-1.9-0.4C1426.4,755,1426.9,755.5,1427.5,755.6z"/>
	<path class="st10" d="M1417,752.9c-0.7,0.1-1.2-0.3-1.9-0.5C1415.8,752.3,1416.3,752.7,1417,752.9z"/>
	<path class="st10" d="M1383.1,739.2c0.6-0.1,1,0.2,1.5,0.4C1384,739.6,1383.6,739.3,1383.1,739.2z"/>
	<path class="st10" d="M1318.4,664.6c-0.5,0.1-0.9-0.2-1.3-0.3C1317.6,664.2,1318,664.5,1318.4,664.6z"/>
	<path class="st10" d="M1364.7,735.9c-0.4-0.2-0.9-0.2-1.3-0.5C1363.9,735.6,1364.4,735.5,1364.7,735.9z"/>
	<path class="st10" d="M1384.9,742.8c-0.4-0.2-0.9-0.2-1.3-0.5C1384,742.4,1384.6,742.4,1384.9,742.8z"/>
	<path class="st10" d="M1516.1,709.6c0.1-0.4,0.2-0.8,0.4-1.2C1516.5,708.9,1516.4,709.3,1516.1,709.6z"/>
	<path class="st10" d="M1471.3,573c-0.4,0.1-0.8-0.1-1.2-0.2C1470.5,572.6,1470.9,572.9,1471.3,573z"/>
	<path class="st10" d="M1494.8,617.9c0.1-0.3,0.2-0.7,0.3-1C1495.2,617.2,1495.1,617.6,1494.8,617.9z"/>
	<path class="st10" d="M1439.4,724.7c-0.4-0.1-0.8-0.1-1.1-0.5C1438.6,724.4,1439.1,724.3,1439.4,724.7z"/>
	<path class="st10" d="M1431.7,722.2c-0.4,0.1-0.8-0.1-1.2-0.2C1431,721.8,1431.3,722.1,1431.7,722.2z"/>
	<path class="st10" d="M1440.6,724.2c0,0.3,0.4,0.2,0.5,0.5c-0.2-0.1-0.4-0.1-0.7-0.2c-0.1,0-0.2-0.2,0-0.3
		C1440.4,724.1,1440.5,724.2,1440.6,724.2z"/>
	<path class="st10" d="M1325.6,667c-0.4-0.1-0.8-0.1-1.1-0.5C1324.8,666.7,1325.3,666.7,1325.6,667z"/>
	<path class="st10" d="M1368.5,735c0.4-0.1,0.8,0.1,1.2,0.2C1369.3,735.4,1368.9,735.1,1368.5,735z"/>
	<path class="st10" d="M1432.6,757c-0.4,0.1-0.8-0.1-1.2-0.2C1431.9,756.6,1432.3,756.9,1432.6,757z"/>
	<path class="st10" d="M1351.4,568.9c-0.1,0.3-0.1,0.7-0.4,0.9C1351.1,569.5,1351.1,569.1,1351.4,568.9z"/>
	<path class="st10" d="M1475.3,574.3c-0.3-0.1-0.7-0.1-0.9-0.4C1474.7,574,1475.1,574,1475.3,574.3z"/>
	<path class="st10" d="M1403.8,716.7c-0.4,0.1-0.7-0.1-1-0.2C1403.2,716.4,1403.5,716.6,1403.8,716.7z"/>
	<path class="st10" d="M1427.9,753.2c0.4-0.1,0.7,0.1,1,0.2C1428.5,753.5,1428.2,753.3,1427.9,753.2z"/>
	<path class="st10" d="M1396.9,714.7c-0.3-0.1-0.7-0.1-0.9-0.4C1396.3,714.4,1396.7,714.4,1396.9,714.7z"/>
	<path class="st10" d="M1422.6,754.3c-0.4,0.1-0.7-0.1-1-0.2C1422,753.9,1422.3,754.2,1422.6,754.3z"/>
	<path class="st10" d="M1365.7,734.3c0.4-0.1,0.7,0.1,1,0.2C1366.3,734.7,1366,734.4,1365.7,734.3z"/>
	<path class="st11" d="M1427.2,584.7c-0.1,0.1-0.2,0.2-0.2,0.1c-0.1-0.1-0.1-0.2-0.1-0.3c0,0,0.1-0.1,0.1-0.1
		C1427.1,584.5,1427.2,584.6,1427.2,584.7z"/>
</g>
<use xlink:href="#Shopping_Cart_2"  width="70.5" height="63" id="XMLID_1_" x="-35.2" y="-31.5" transform="matrix(2.848 -0.5873 -0.5831 -2.8278 435.4855 445.9083)" style="overflow:visible;"/>
</svg>
