<?xml version="1.0" encoding="utf-8"?>
<!-- Generator: Adobe Illustrator 24.3.0, SVG Export Plug-In . SVG Version: 6.00 Build 0)  -->
<svg version="1.1" id="Layer_1" xmlns="http://www.w3.org/2000/svg" xmlns:xlink="http://www.w3.org/1999/xlink" x="0px" y="0px"
	 viewBox="0 0 1969.8 506.7" style="enable-background:new 0 0 1969.8 506.7;" xml:space="preserve">
<style type="text/css">
	.st0{fill-rule:evenodd;clip-rule:evenodd;fill:#FAC9A5;}
	.st1{fill-rule:evenodd;clip-rule:evenodd;fill:#F9BA8C;}
	.st2{fill-rule:evenodd;clip-rule:evenodd;fill:#FBD8BE;}
	.st3{fill-rule:evenodd;clip-rule:evenodd;fill:#F2BBC5;}
	.st4{fill:#F2BBC5;}
	.st5{fill:#FAC9A5;}
	.st6{fill:#F9BA8C;}
	.st7{fill:#FBD8BE;}
</style>
<path class="st0" d="M1425.1,350.8c-4.7-12,3.2-21.2,11.6-25.6c50.9-27.8,103.7-47,153.6-74.4c4.4-2.4,9.6-6.8,7-13.7
	c-2.5-6.1-9.5-8.5-15.2-10.2c-60.7-18.5-124-28.6-183.6-50.8c-7.5-2.7-14-10.6-10.5-21.6c3.2-10.4,12.9-12.1,20.9-11.4
	c61.9,5.4,117.7,14.1,181.9,19.8c7.8,0.6,9.8-5.2,8.9-10.2c-1.2-7.2-2.3-12-1.9-17.8c0.6-11.8,6.6-20.5,15.4-25
	c9.4-4.7,17.8-2.5,24.2-9.4c4-4.4,2.9-10.8,4.5-16c3.9-12.4,13.1-19.1,25.8-22.3c8.5-2.2,20.5-0.7,29.1-2.7
	c12.1-2.7,22.8-5.7,35.4-5.9c61.4-0.9,97.6,13.1,123.9,14.8c40.8,2.6,75.9-30.4,166.2-83.6L2007,177.9
	c-94.5,42.9-131.3,56.8-196.6,133.5c-14.4,16.7-59.1,17.1-71.1,11.1c-7.2-3.5-13.2-13.8-19.5-21.4c-25.1-2.8-57.7-4.9-85,2.8
	c-51.5,14.6-122.4,42.7-180.9,56.6C1444.2,363,1429.7,362.8,1425.1,350.8L1425.1,350.8z"/>
<path class="st1" d="M1596.1,162c3.3-1.7,4.3-5.7,3.6-9.2c-0.6-3.4-1.2-6.3-1.4-8.8C1610.4,157.3,1599.6,163,1596.1,162L1596.1,162z
	"/>
<path class="st1" d="M1594.4,248c2.8-2.5,4.6-6.2,2.9-10.8c-2.5-6.1-9.5-8.5-15.2-10.2c-23.2-7.2-46.8-12.9-70.3-18.7
	c29.7,4.5,88.1,12.3,93.2,22.3C1610.8,242.6,1594.4,248,1594.4,248L1594.4,248z"/>
<path class="st1" d="M2010.1,139.7l-3,38.2c-94.5,42.9-131.3,56.8-196.6,133.5c-14.4,16.7-59.1,17.1-71.1,11.1
	c-7.2-3.5-13.2-13.8-19.5-21.4c75.2,13.5,98.7-31.7,142.5-62.8C1901.3,210.7,1966.2,168.8,2010.1,139.7L2010.1,139.7z"/>
<path class="st2" d="M1429.1,349.9c-2.2-5-1.1-13.2,3.8-17.3c7.6-6,23.3-8.6,27.4-6.8c4.1,1.8,10.3,15.8,7.4,20.1
	c-3.4,5.4-14.2,11-23.9,12.2C1437.4,359,1431,354.5,1429.1,349.9L1429.1,349.9z"/>
<path class="st2" d="M1390.9,157.8c1-6.2,6-10.6,12.3-11.9c9.6-1.9,24.6,2.8,27.2,6.4c2.6,3.5,0.8,18.5-3.7,21.2
	c-5.7,3.4-17.8,3.4-27.1,0.2C1393.7,171.4,1390.1,164.3,1390.9,157.8L1390.9,157.8z"/>
<g>
	<polygon class="st3" points="1435.2,425.7 1414,410.4 1435.4,399.5 	"/>
	<path class="st4" d="M1438.8,433l-32.1-23.2l32.5-16.5L1438.8,433z M1421.2,410.9l10.2,7.4l0.1-12.6L1421.2,410.9z"/>
</g>
<g>
	<path class="st4" d="M1428,403l-6.6,3.7c-17-30.7-27.4-58.9-31-83.9l7.5-1C1401.3,345.8,1411.4,373.1,1428,403z"/>
</g>
<g>
	<polygon class="st3" points="1366.1,91.8 1351.3,113.1 1375,116.4 	"/>
	<path class="st4" d="M1380.8,121l-36.1-5l22.5-32.4L1380.8,121z M1357.8,110.2l11.5,1.6l-4.4-11.9L1357.8,110.2z"/>
</g>
<g>
	<path class="st4" d="M1365.1,202.2l-7.4,1.5c-5-24.7-4.4-54.8,1.7-89.6l7.4,1.3C1360.9,149.2,1360.4,178.4,1365.1,202.2z"/>
</g>
<path class="st5" d="M-116.1,151.3c54.4,15.8,203.8,59.2,276.2,39.6c29.5-8.2,53.6-30,81-43.4c9.8-4.9,21.1-5.8,31.3-10
	c15.1-5.9,29.6-13.2,41.8-23.3c8.9-7.4,10.1-31.6,21-27.8c15.7,5.1,27.3,23.8,23.6,42.6c-3.6,18.1-20.4,30.6-32,44.8
	c-14,17.3-29.7,33.4-44.5,50.1c19.3,3.3,29.7,15.3,45.9,17.6c13.6,1.9,28.2,0.9,40.3-5.9c8.5-16.2,17.8-36.4,32.6-54.5
	c11.8-14.5,27.9-27.7,45.5-25.2c8.1,1,19.4,8.4,19.1,16.4c-0.4,11-9.1,18-20.1,26.4c-4.8,28.6-12.3,56.8-18.4,85.3
	c14,8.7,29.3,15.9,42.1,26.4c4.3,3.3,7.3,9.5,6.3,14.8c-3.5,22.2-7.8,38.6-12.5,59.4c-1.3,5.7-5.7,10.8-12.3,13.4
	c-5.5,2.3-11.2,3.3-17.5,4.4c0.1,7.6,1.7,15.2,0.2,22.5c-0.8,3.8-6.4,8.3-9.2,10.9c-9.6,8.2-14.1,12.8-21.2,14.9
	c-10.3,3-21.4-0.8-32-1.5c1.2,6.1,2.3,11.2-0.7,15.3c-8.1,11-16.4,19.1-28.8,25.1c-6.2,2.9-16,1.9-22.3-0.9
	c-14.8-6.5-21.4-11.7-41.3-21.5c-6.3-0.4-15-0.1-20.9-3c-49.2-24.7-93.3-58.8-143.8-80.7c-118.6-51.7-310.7-51.5-375.6-48.4
	L-116.1,151.3z"/>
<path class="st6" d="M-116.1,151.3c54.4,15.8,203.8,59.2,276.2,39.6c29.5-8.2,53.6-30,81-43.4c9.8-4.9,21.1-5.8,31.3-10
	c15.1-5.9,29.6-13.2,41.8-23.3c8.9-7.4,10.1-31.6,21-27.8c4.6,1.4,8.7,4.1,12.3,7.5c-9.6-4-9.2,16.4-15.3,39.5
	c-7.5,29.2-17,47.7-33.6,72.4c-5.4,6.1-11,12-16.3,18c19.3,3.3,29.7,15.3,45.9,17.6c13.6,1.9,28.2,0.9,40.3-5.9
	c8.5-16.2,17.8-36.4,32.6-54.5c11.8-14.5,27.9-27.7,45.5-25.2c2.4,0.3,4.9,1,7.4,2.2c-40.7,2.1-72.1,66.8-81,98.7
	c-14-11.6-43.1-4.9-58.3,5c-52.3-37.8-107.6-48.4-152.7-44.7c-84.7,6.8-219.7-13.7-308.5-27.4L-116.1,151.3z"/>
<path class="st6" d="M370.8,448.9c1.2,5.6,2.2,10.5-0.1,14.5c-8.2-8.4-27-12.1-58.5-13.2C322.9,448.2,370.8,448.9,370.8,448.9
	L370.8,448.9z"/>
<path class="st6" d="M433.1,402c0.1,5.1,0.8,10.4,0.9,15.5c-7.6-9.1-55.2-11.4-88.1-12.5C356.7,403.1,433.1,402,433.1,402L433.1,402
	z"/>
<path class="st7" d="M465.5,173.8c-0.9,8.8-7.7,15.2-16.5,22c0.6-6.5-1.8-10.2-1.1-12.4C450.7,175.7,460.9,167.7,465.5,173.8
	L465.5,173.8z"/>
<g>
	<polygon class="st4" points="309.8,82.5 277.5,80.2 291.8,55.3 	"/>
	<path class="st4" d="M291.6,47.8l25.9,39.2l-46.7-3.4L291.6,47.8z M302,77.9l-9.9-15l-8,13.7L302,77.9z"/>
</g>
<g>
	<polygon class="st4" points="207.6,28 212.5,19.4 304.6,74.8 299.8,83.4 	"/>
</g>
<g>
	<polygon class="st4" points="480,179.1 512.3,181.4 497.8,206.1 	"/>
	<path class="st4" d="M472.2,174.4l46.8,3.4l-20.8,35.9L472.2,174.4z M505.6,184.9l-17.9-1.3l9.9,15L505.6,184.9z"/>
</g>
<g>
	<rect x="543.6" y="169.3" transform="matrix(0.505 -0.8631 0.8631 0.505 82.4232 580.8911)" class="st4" width="8" height="98.5"/>
</g>
<path class="st6" d="M427.1,283.7c0,0-5.7,24.7-12.6,46c-4.6,14.5-15.5,28.7-35.3,32.6c33.9,1.7,38.3-42.3,66.6-29
	C425.2,318.4,425.9,303.1,427.1,283.7L427.1,283.7z"/>
</svg>
