<?xml version="1.0" encoding="utf-8"?>
<!-- Generator: Adobe Illustrator 23.0.3, SVG Export Plug-In . SVG Version: 6.00 Build 0)  -->
<svg version="1.1" id="eaae95e9-bf99-4a62-939f-b246d44eba2f"
	 xmlns="http://www.w3.org/2000/svg" xmlns:xlink="http://www.w3.org/1999/xlink" x="0px" y="0px" viewBox="0 0 1027 755"
	 style="enable-background:new 0 0 1027 755;" xml:space="preserve">
<style type="text/css">
	.st0{fill:#F2F2F2;}
	.st1{fill:#3F3D56;}
	.st2{fill:#191819;}
	.st3{fill:#28171B;}
	.st4{fill:none;stroke:#57B894;stroke-width:4;stroke-miterlimit:10;}
	.st5{fill:#F1F1F1;}
	.st6{fill:#2F2E41;}
	.st7{fill:#C6C2C3;}
</style>
<title>adjustments</title>
<rect x="66" y="88.3" class="st0" width="910" height="490"/>
<path class="st1" d="M133,44c-12.2,0-22-9.8-22-22s9.8-22,22-22s22,9.8,22,22l0,0C155,34.1,145.1,44,133,44z M133,2
	c-11,0-20,9-20,20s9,20,20,20s20-9,20-20S144,2,133,2z"/>
<circle class="st1" cx="13" cy="129" r="13"/>
<circle class="st1" cx="1014" cy="224" r="13"/>
<rect x="189.5" y="188.3" class="st1" width="664" height="6"/>
<rect x="189.5" y="242.3" class="st1" width="664" height="6"/>
<rect x="189.5" y="296.3" class="st1" width="664" height="6"/>
<rect x="302.5" y="166.3" class="st2" width="16" height="50"/>
<rect x="484.5" y="220.3" class="st3" width="16" height="50"/>
<rect x="796.5" y="274.3" width="16" height="50"/>
<rect x="189.5" y="420.3" class="st1" width="236" height="6"/>
<rect x="189.5" y="442.3" class="st1" width="118" height="6"/>
<polygon class="st1" points="225.5,500.3 188.5,500.3 188.5,463.3 224.5,463.3 224.5,465.3 190.5,465.3 190.5,498.3 223.5,498.3 
	223.5,479.4 225.5,479.4 "/>
<rect x="617.5" y="420.3" class="st1" width="236" height="6"/>
<rect x="617.5" y="442.3" class="st1" width="76" height="6"/>
<rect x="777.5" y="442.3" class="st1" width="76" height="6"/>
<path class="st1" d="M653.5,500.3h-37v-37h37V500.3z M618.5,498.3h33v-33h-33V498.3z"/>
<polyline class="st4" points="195.6,475.2 206.5,487.5 230.4,464.1 "/>
<ellipse class="st5" cx="203" cy="722" rx="157" ry="23"/>
<circle class="st6" cx="191.2" cy="223.4" r="36.8"/>
<polygon class="st7" points="151.5,684.5 144.5,714.5 161.5,714.5 168.5,680.5 "/>
<polygon class="st7" points="234.5,687.5 234.5,715.5 251.5,717.5 251.5,687.5 "/>
<path class="st7" d="M146.5,366.5c0,0,2,43,4,46s20,46,20,46l9-28c0,0-14-23-12-36s0.7-29,0.7-29L146.5,366.5z"/>
<circle class="st7" cx="203.5" cy="234.5" r="28"/>
<path class="st7" d="M180.5,237.5c0,0,1,40-6,46s40,1,40,1s-10-28-2-34S180.5,237.5,180.5,237.5z"/>
<path class="st6" d="M217.5,282.5c0,0-6-11-14-10s-34,3-35,5s-4,9-6,11s-17,5-18,17s36,85,36,85s-5,17-4,21s-5,16-4,21s-15,35-7,74
	v63c0,0-27,109-19,117s35,3,40,0s26-154,26-154l10-51l1,112c0,0-2,94,5,97s34,4,36-2c1.6-4.7,9.2-129.2,12.5-183.8
	c1.1-18.8-0.3-37.7-4.4-56.2c-4.2-18.9-10.2-41.1-17.1-50.1c-13-17-21-71-21-71l17-31c0,0-10-10-16-10S217.5,282.5,217.5,282.5z"/>
<path class="st6" d="M150.5,298.5l-5.3,3.6c0,0-3.7,64.4-0.7,68.4s23.9,2,25.4-1.5S150.5,298.5,150.5,298.5z"/>
<path class="st7" d="M232.5,358.5c0,0,1,42,7,54s28,62,28,62s-1.3,55,9.9,41.5s4.1-45.5,4.1-45.5l-19-74c0,0-10-33-9-43
	S232.5,358.5,232.5,358.5z"/>
<path class="st6" d="M250.5,696.3c0,0,1-0.8,4,2.2s11,7,10,18s-7,13-7,13v-3h-3v5c0,0-5,16-28,6c0,0-1-8,0-13s1-29,4-28s11,2,13,6
	S251.5,705.1,250.5,696.3z"/>
<path class="st6" d="M147.5,697.3c0,0-1-0.8-4,2.2s-11,7-10,18s7,13,7,13v-3h3v5c0,0,5,16,28,6c0,0,1-8,0-13s-1-29-4-28s-11,2-13,6
	S146.5,706.1,147.5,697.3z"/>
<path class="st6" d="M237.5,293.5l14,3c0,0,0,22,4,31s11,30,8,31s-31,15-33,7S223.5,293.5,237.5,293.5z"/>
<circle class="st6" cx="151.3" cy="174.9" r="36.8"/>
<path class="st6" d="M119.6,205.4c16.5,11.9,39.5,8.2,51.4-8.3c2.4-3.4,4.3-7.1,5.4-11.1c-2.5,20.2-20.9,34.5-41.1,31.9
	c-20.2-2.5-34.5-20.9-31.9-41.1c0.3-2,0.7-4,1.2-5.9C103,184.3,108.7,197.5,119.6,205.4z"/>
<circle class="st6" cx="181.4" cy="229.5" r="27"/>
<ellipse class="st6" cx="204.1" cy="219.4" rx="23.9" ry="18.7"/>
<ellipse class="st7" cx="210.5" cy="238.5" rx="4.5" ry="8"/>
</svg>
