<?xml version="1.0" encoding="utf-8"?>
<!-- Generator: Adobe Illustrator 23.0.3, SVG Export Plug-In . SVG Version: 6.00 Build 0)  -->
<svg version="1.1" id="Layer_1" xmlns="http://www.w3.org/2000/svg" xmlns:xlink="http://www.w3.org/1999/xlink" x="0px" y="0px"
	 viewBox="0 0 1133.5 614" style="enable-background:new 0 0 1133.5 614;" xml:space="preserve">
<style type="text/css">
	.st0{opacity:0.1;fill:#AAA5A7;enable-background:new    ;}
	.st1{fill:none;stroke:#535461;stroke-width:2;stroke-miterlimit:10;}
	.st2{fill:#65617D;}
	.st3{opacity:0.1;enable-background:new    ;}
	.st4{fill:#3F3D56;}
	.st5{fill:#FFFFFF;}
	.st6{fill:#F0667D;}
	.st7{fill:#FABDBD;}
	.st8{fill:#7C5C5C;}
	.st9{opacity:0.1;}
	.st10{fill:url(#SVGID_1_);}
	.st11{fill:#7C7C7C;}
	.st12{fill:#8C8B8B;}
	.st13{fill:#8E8B8C;}
	.st14{fill:#D8D2D2;}
	.st15{fill:#DDD4D4;}
	.st16{fill:#E8E3E3;}
	.st17{fill:#A8A8A8;}
	.st18{opacity:0.2;enable-background:new    ;}
	.st19{opacity:0.1;fill:#969293;enable-background:new    ;}
	.st20{opacity:0.35;}
	.st21{fill:#160B0E;}
	.st22{stroke:#FFFFFF;stroke-miterlimit:10;}
</style>
<path class="st0" d="M1119.5,555.4c-4.3,4.9-9.1,9.3-14.5,13c-24.4,16.8-59.1,23.8-92.7,28.2c-7.5,1-15,1.9-22.5,2.7
	c-46.6,4.9-93.8,6.6-141,7.8c-6.8,0.2-13.5,0.3-20.3,0.5c-47.6,1.2-95.2,2.3-142.8,3.2c-57.2,1-114.3,1.6-171.5,1.1
	c-56.1-0.4-112.1-1.8-168.1-4.7c-5.4-0.3-10.8-0.6-16.1-0.9c-49-2.8-98.8-7-145.7-16.9c-24.3-5-48.1-12.1-71.1-21.2
	c-18-7.3-35.3-16.3-49.1-27.1c-10.8-8.5-19.5-18-25-28.8c-12.5-24.7-5.9-52.5,8.4-76.8s35.9-46,54.4-68.8
	c39.6-48.5,65.4-109.9,28.9-159.6c-10.5-14.3-25.7-26.8-34.2-41.8c-12.3-21.5-9.7-45.7-5.2-68.6c6-30.5,17.1-63.4,51.5-82.4
	C178.6-5.4,229.3-4.4,273.7,2.7c65.9,10.5,127,32,188.3,52l0.6,0.2l7.9,2.6l3.5,1.1c5.1,1.7,10.3,3.3,15.5,4.9l1.9,0.6h0.1l0.8,0.3
	l0.7,0.2l1.3,0.4c6.4,2,12.8,3.9,19.3,5.8h0.1c0.9,0.3,1.8,0.5,2.7,0.8h0.1c3.7,1.1,7.4,2.1,11.1,3.2l1.3,0.4l0.2,0.1h0.1
	c46.3,12.8,94,22.6,143.5,24c62.4,1.8,135.1-11.7,176.5-46.8c40.2-34.1,115.8-36.7,170.3-16.1c52,19.6,85.6,61.2,83.1,102.7
	c-3.7,60.4-73.7,106.8-115.4,159.6c-19.5,24.6-33.2,54.2-19.8,80.8c24.3,48.3,120.5,59.4,155.3,104.4
	C1139.9,505.9,1137.8,534.1,1119.5,555.4z"/>
<title>pedestrian crossing</title>
<path class="st1" d="M123.6,410.3c0,0-10.8-60.9-50.6-91.1c-16.7-12.7-29-29.9-34.3-49.5c-2.5-9.3-4.1-18.8-4.8-28.4"/>
<path d="M8.8,222.2c3.4,6.5,25.6,19.7,25.6,19.7s2.8-24.7-0.6-31.2s-11.7-9.3-18.6-6.1S5.5,215.6,8.8,222.2z"/>
<path d="M6.8,267.8c6.6,3.8,32.8,3.4,32.8,3.4s-11.8-22.1-18.5-25.9c-6.5-3.8-14.9-1.8-19.1,4.4c-3.8,5.9-2,13.8,3.9,17.6
	C6.2,267.5,6.5,267.7,6.8,267.8z"/>
<path d="M39.4,329.2c7.7,0.1,30.2-12.7,30.2-12.7S47.5,303,39.8,302.9s-14,5.7-14.1,12.9S31.7,329.1,39.4,329.2z"/>
<path d="M75.1,370.4c7.6,1.3,32-7.7,32-7.7s-19.3-16.8-26.9-18.1c-7.6-1.3-14.8,3.4-16.2,10.5S67.6,369,75.1,370.4z"/>
<path d="M66.5,260.5c-2.6,6.8-23.3,22.1-23.3,22.1s-5.4-24.3-2.8-31.1c2.6-6.8,10.6-10.3,17.8-7.9S69.1,253.6,66.5,260.5z"/>
<path class="st1" d="M122.3,408.7c0,0,16.3-59.8-7.2-102.6c-9.9-18-13.7-38.4-10.1-58.4c1.7-9.5,4.3-18.8,7.8-27.8"/>
<path d="M98.1,192.8c0.3,7.3,14.9,27.8,14.9,27.8s13.1-21.5,12.9-28.7s-6.7-12.9-14.4-12.7S97.8,185.5,98.1,192.8z"/>
<path d="M76.5,233.7c4.4,6,28.6,15.7,28.6,15.7s-1.3-24.8-5.7-30.7c-4.6-6-13.1-7.4-19.4-3.3c-5.9,3.7-7.7,11.6-4,17.5
	C76.2,233.2,76.3,233.4,76.5,233.7z"/>
<path d="M80,302.3c7,3,33.1-0.1,33.1-0.1s-14.4-20.8-21.4-23.8s-15.2-0.2-18.5,6.4S73.1,299.3,80,302.3z"/>
<path d="M95.1,353.7c6.3,4.1,32.6,5.2,32.6,5.2s-10.5-22.8-16.8-26.9s-14.8-2.6-19.3,3.4c-4.1,5.6-2.9,13.6,2.7,17.7
	C94.5,353.3,94.8,353.5,95.1,353.7z"/>
<path d="M134.3,249.9c-5.3,5.2-30.8,11.3-30.8,11.3s5.4-24.3,10.7-29.5c5.5-5.2,14-5.4,19.7-0.4c5.2,4.6,5.7,12.6,1.1,17.8
	C134.8,249.4,134.6,249.6,134.3,249.9z"/>
<path d="M151.1,310.1c-6.7,3.5-33,2.1-33,2.1s12.9-21.6,19.6-25.1c6.7-3.5,14.9-1.2,18.9,5.2c3.5,6.1,1.4,13.9-4.7,17.4
	C151.7,309.8,151.4,310,151.1,310.1z"/>
<path d="M158.9,370.8c-6,4.5-32.1,7.3-32.1,7.3s8.8-23.4,14.8-27.9c6.1-4.5,14.6-3.6,19.6,2.1c4.5,5.3,3.9,13.3-1.4,17.8
	C159.5,370.4,159.2,370.6,158.9,370.8z"/>
<path class="st2" d="M312.8,431.9L183.4,591.4c-24.3-5-48.1-12.1-71.1-21.2c-18-7.3-35.3-16.3-49.1-27.1l142.1-116.7L312.8,431.9z"
	/>
<path class="st2" d="M1118.5,557.4c-4.3,4.9-9.1,9.3-14.5,13c-24.4,16.8-59.1,23.8-92.7,28.2c-7.5,1-15,1.9-22.5,2.7L851.4,431.9
	l107.6-5.5L1118.5,557.4z"/>
<path class="st2" d="M522.5,435.2l-0.2,4.5l0,0l-0.1,1.2l-4.9,95v0.1l-0.5,11l-0.3,4.9l0,0l-3.2,62c-56.1-0.4-112.1-1.8-168.1-4.7
	l70.8-174H522.5z"/>
<path class="st2" d="M847.9,609c-6.8,0.2-13.5,0.4-20.3,0.5c-47.6,1.2-95.2,2.3-142.8,3.2L629,435.2h104.3L847.9,609z"/>
<path class="st3" d="M312.8,431.9L183.4,591.4c-24.3-5-48.1-12.1-71.1-21.2c-18-7.3-35.3-16.3-49.1-27.1l142.1-116.7L312.8,431.9z"
	/>
<path class="st3" d="M1118.5,557.4c-4.3,4.9-9.1,9.3-14.5,13c-24.4,16.8-59.1,23.8-92.7,28.2c-7.5,1-15,1.9-22.5,2.7L851.4,431.9
	l107.6-5.5L1118.5,557.4z"/>
<path class="st3" d="M522.5,435.2l-0.2,4.5l0,0l-0.1,1.2l-4.9,95v0.1l-0.5,11l-0.3,4.9l0,0l-3.2,62c-56.1-0.4-112.1-1.8-168.1-4.7
	l70.8-174H522.5z"/>
<path class="st3" d="M847.9,609c-6.8,0.2-13.5,0.4-20.3,0.5c-47.6,1.2-95.2,2.3-142.8,3.2L629,435.2h104.3L847.9,609z"/>
<path class="st4" d="M588,533c-2.9-0.1-18.7,6.5-18.7,6.5s-5,2.8-17.8,4.6c-8.3,1.2-9.5-2.8-9.2-5.8c0.1-1,0.3-1.9,0.6-2.8v-17.7
	c0,0,26-15.9,28-16.9c0.3-0.1,0.5-0.2,0.8-0.2c3.2-0.1,12.4,3.1,17.4,6.7c5.5,3.9,12.5,1.5,12.5,1.5s13.6-10.9,17.1-2.9
	c0.2,0.5,0.4,0.9,0.5,1.4C621.8,518,590.9,533.1,588,533z"/>
<path class="st3" d="M543,522.1v-4.3c0,0,26-15.9,28-16.9c0.3-0.1,0.5-0.2,0.8-0.2c1.2,1.2,2.3,2.3,2.9,3
	C576.5,505.7,559.3,527.3,543,522.1z"/>
<path class="st2" d="M539,519l-2.4-10.8l0,0c0,0,0-9.3-3.3-11.1S521,433,521,433s0.3-13.8-2.1-15.6s0-3.8,0-3.8c0-2-0.4-4-1.1-5.8
	c-0.8-2-1.3-4.1-1.6-6.3c0,0,1.2-4.5,0-5.7c-0.8-0.8,0.2-2.4-1.7-5.5c-1.3-1.9-2.8-3.5-4.6-4.9c-6.8-5.7-0.1-70.8,1.8-87.5
	c0.3-2.5,0.5-3.9,0.5-3.9h16l2,7.2l3.2,13.3c0,0,2.1,1.4,2.1,3.2s12.6,39.8,12.6,39.8c0.9,1.5,1.7,3.1,2.4,4.8c0.3,1.2,3,3.3,3,3.3
	c-1,2.3-1,4.9,0,7.2c1.8,3.6,6.9,18.6,5.1,25.8s-3.9,7.8-3.9,7.8s-1.8,5.3,1.2,7.3s0.9,5.6,0.9,5.6l3.9,33.6c0,0-0.3,15,4.2,20.4
	s5.1,18.3,5.1,18.3l-3.4,1.4l-0.6,0.3l-0.2,0.1c0,0,6.9,7.2,9,9.3S556.3,529.8,539,519z"/>
<path class="st3" d="M574.6,502.5c-1.8,5.4-20,25-35.7,15.3l-2.4-10.8c4.3-3.5,17.6-13.6,29.3-15.1l-0.2,0.1l0.8,0.8l-0.6,0.3
	l-0.2,0.1C565.6,493.3,572.5,500.5,574.6,502.5z"/>
<path class="st2" d="M539,519l-2.4-10.8c4.3-3.5,17.6-13.6,29.3-15.1l-0.2,0.1c0,0,6.9,7.2,9,9.3S556.3,529.8,539,519z"/>
<circle class="st5" cx="584.1" cy="509.7" r="0.8"/>
<circle class="st5" cx="579.2" cy="508.9" r="0.8"/>
<circle class="st5" cx="588.3" cy="510.4" r="0.8"/>
<circle class="st5" cx="574" cy="508.2" r="0.8"/>
<path class="st3" d="M588,533c-2.9-0.1-18.7,6.5-18.7,6.5s-5,2.8-17.8,4.6c-8.3,1.2-9.5-2.8-9.2-5.8c2.1,1,4.5,1.1,6.7,0.5
	c5.7-1.5,25.4-4.6,25.4-4.6s13-4.7,13.4-7.4l31-20.7c0.2,0.5,0.4,0.9,0.5,1.4C621.8,518,590.9,533.1,588,533z"/>
<rect x="566.2" y="297.9" class="st6" width="7.2" height="231"/>
<path class="st6" d="M572.8,300.5c0.5-5.3,5.3-9.2,10.7-8.7c4.2,0.4,7.7,3.5,8.6,7.7c0.8,0.6,1.6,1.2,2.4,1.9c1,1,2.6,0.9,3.6-0.1
	c0.5-0.6,0.8-1.3,0.7-2.1c0-0.1,0-0.1,0-0.2c-1.3-8.9-9.5-15.1-18.5-13.9c-8.9,1.3-15.1,9.5-13.9,18.5c0.2,1.6,0.7,3.1,1.3,4.5
	C568.6,305.2,570.4,302.5,572.8,300.5z"/>
<rect x="564" y="520.6" class="st6" width="12.1" height="16.9"/>
<path class="st7" d="M512.5,93.3c-2.5,3.2-4.5,6.8-6,10.7c-4.8,12.6-1.2,22.7-1.2,22.7s-43.3-9.6-39.1-14.4
	c2.5-2.9,4.6-14.1,5.9-22.5c0.8-5.4,1.3-9.7,1.3-9.7S525.5,76.3,512.5,93.3z"/>
<path class="st4" d="M525,543c-0.5,2.9-2.1,5.6-4.4,7.5c-3.3,2.8-34.8,3.8-41.1,1.4s-26.8-3.3-31.9-3.5s-7.1-4.9-8.2-7.2
	c-0.3-0.7-0.1-2.1,0.4-3.8c1.3-4.3,4.2-10.3,4.9-10.9c0.5-0.5,0.9-2.4,1.3-4.2c0.3-1.5,0.5-2.8,0.5-2.8c13.7,9.3,31.6-6.5,31.6-6.5
	c0.7-0.4,1.4-0.5,2.2-0.4c3.4,0.4,7.2,4.9,7.2,6.9c0,2.4,9.5,7,9.5,7c2.7,3.1,14.7,8.9,14.7,8.9s8.2,0.2,11.8,3.3
	C524.6,539.8,525.2,541.4,525,543z"/>
<path class="st3" d="M525,543c-0.5,2.9-2.1,5.6-4.4,7.5c-3.3,2.8-34.8,3.8-41.1,1.4s-26.8-3.3-31.9-3.5s-7.1-4.9-8.2-7.2
	c-0.3-0.7-0.1-2.1,0.4-3.8c4.5,1.1,8.9,2.5,13.3,4c6.4,2.5,19.7,6.1,22,5C475,546.5,506.6,555.3,525,543z"/>
<path class="st3" d="M514.5,390.4c-1.3-1.9-2.8-3.5-4.6-4.9c-6.8-5.7-0.1-70.8,1.8-87.5c7.8-0.4,13.3-0.3,13.8,0.9
	C527.1,302.9,516.6,375.7,514.5,390.4z"/>
<path class="st3" d="M480.3,512.6v3.4c-22,22.6-30.8,14.8-34.3,6.3c0.3-1.5,0.5-2.8,0.5-2.8c13.7,9.3,31.6-6.5,31.6-6.5
	C478.7,512.7,479.5,512.5,480.3,512.6z"/>
<path class="st2" d="M523.8,304.1c-1.3,20.1-11.4,88.8-11.4,88.8s-5.7,25.2-6.9,26.1s-8.7,6-8.7,6s-0.3,11.7-2.7,15
	s-3.3,11.7-3.3,11.7s-3.9,16.8-5.1,25.2s-5.4,19.8-5.4,19.8V515c-27.7,28.4-34.5,8.9-36.1,0.1c-0.2-1.2-0.4-2.4-0.5-3.7l15.6-94.7
	c0,0,3.3-4.5,2.7-6.9s1.2-5.4,1.2-5.4V399c0,0,3.6-4.8,0-7.5s0-23.1,0-23.1s-4.1-11.7-2-15s0-8.7,1.5-11.7s0,0-5.4-8.1
	c-2.8-4.2-5.2-11.9-6.9-18.2c-1.5-5.8-2.4-10.5-2.4-10.5s74-10.5,75.8-6C524,300.6,524,302.4,523.8,304.1z"/>
<path class="st3" d="M512.5,93.3c-2.5,3.2-4.5,6.8-6,10.7c-2.8,0.9-5.8,1.4-8.8,1.4c-10.7,0-16.6-7.9-21.6-16.4
	c-0.2-0.4-3.9,1.3-4.1,0.9c0.8-5.4,1.3-9.7,1.3-9.7S525.5,76.3,512.5,93.3z"/>
<path class="st7" d="M526.7,75.8c0,16-12.9,29-29,29s-29-12.9-29-29c0-16,12.9-29,29-29c8,0,15.7,3.3,21.2,9.2
	C523.9,61.4,526.7,68.4,526.7,75.8z"/>
<path class="st3" d="M523.8,304.1c-9.8,1.7-27.5,5.1-29,7.1c-2,2.8-17,3.6-26,4.8c-5.2,0.7-12.8,0.1-18.5-0.6
	c-1.5-5.8-2.4-10.5-2.4-10.5s74-10.5,75.8-6C523.9,300.6,524,302.4,523.8,304.1z"/>
<path class="st6" d="M530.1,301.2c0,0-33.3,5.4-35.3,8.2c-2,2.8-17,3.6-26,4.8s-25.2-1.4-26.4-2.2c-7-4.7-3.6-59.5-0.6-66.3
	s2-44.7-0.8-59.9s1.4-34.1,1.4-34.1s4.2-13.4,3.4-16.2s4-8.8,4-8.8s7.4-12.2,11.2-14c1.4-0.7,2.4-1.9,2.9-3.4c0.7-2.2,0.6-5,0.7-7.4
	c0.2-4,4.2-4,4.2-4c11.4,1.8,38.1,18.6,38.1,18.6c-1,3.8,5.4,14.6,5.4,14.6c0.1,0.2,0.2,0.4,0.3,0.5c7,13.2,12.1,53.6,12.1,53.6
	s0.3,19.3,0.3,33.5c0,7.1-0.2,12.9-0.5,14.4c-0.6,2.7,0.6,15.4,1.7,27.4c0.8,8.3,1.6,16.3,1.9,20.6
	C528.8,291.4,530.1,301.2,530.1,301.2z"/>
<path class="st3" d="M500.9,246.1c0,0-9,21.6-6.6,24.8S500.9,246.1,500.9,246.1z"/>
<path class="st3" d="M512.1,256.5c0,0-10.2,16-6.4,19.2C509.5,278.8,512.1,256.5,512.1,256.5z"/>
<path class="st3" d="M480.3,508.8v5.4c-27.7,28.4-34.5,8.9-36.1,0.1C449.2,518.6,460.8,524,480.3,508.8z"/>
<path class="st2" d="M480.3,509.4v5.4c-27.7,28.4-34.5,8.9-36.1,0.1C449.2,519.2,460.8,524.6,480.3,509.4z"/>
<circle class="st5" cx="477" cy="524" r="0.8"/>
<circle class="st5" cx="489.2" cy="531.5" r="0.8"/>
<circle class="st5" cx="484.5" cy="528.5" r="0.8"/>
<circle class="st5" cx="493" cy="534.2" r="0.8"/>
<circle class="st5" cx="481" cy="526.2" r="0.8"/>
<path class="st3" d="M485.9,332.8c0,0-7.2,18.1-15.8,18.8S485.9,332.8,485.9,332.8z"/>
<path class="st3" d="M487.1,360.3c0,0-11.4,19.4-14.8,19.6S487.1,360.3,487.1,360.3z"/>
<path class="st3" d="M493,425.5c0,0-14.1,7.4-10.9,8S493,425.5,493,425.5z"/>
<path class="st3" d="M465,425.5c0,0,14.2-5.8,16.7-5.8S465,425.5,465,425.5z"/>
<path class="st3" d="M542.3,401.9c0,0,9.7-2.4,10.1,0S542.3,401.9,542.3,401.9z"/>
<path class="st3" d="M551.7,413.7c0,0-8.6,0.2-7.4,3S551.7,413.7,551.7,413.7z"/>
<path class="st3" d="M512.6,132.8c-7.4-2.9-20.3-8.5-26.1-14.1s-16.5-7.5-22.7-8.2c0.7-2.2,0.6-5,0.7-7.4c0.2-4,4.2-4,4.2-4
	c11.4,1.8,38.1,18.6,38.1,18.6c-1,3.8,5.4,14.6,5.4,14.6C512.4,132.4,512.5,132.6,512.6,132.8z"/>
<path class="st6" d="M512.6,131.6c-7.4-2.9-20.3-8.5-26.1-14.1s-16.5-7.6-22.7-8.2c0.7-2.2,0.6-5,0.7-7.4c0.2-4,4.2-4,4.2-4
	c11.4,1.8,38.1,18.6,38.1,18.6c-1,3.8,5.4,14.6,5.4,14.6C512.4,131.2,512.5,131.4,512.6,131.6z"/>
<path class="st3" d="M526.2,260.5c-11.9-7.7-28.5-20.8-28.5-21.6c0-1-6.8-8.4-6.8-8.4l-13.4-24.3l-4.2-10l12-12.6l26.2,16.8l7,12.8
	c2.3,1.6,4.5,3.5,6.5,5.5c0,7.1-0.2,12.9-0.5,14.4C523.9,235.8,525,248.5,526.2,260.5z"/>
<path class="st7" d="M474,193.8l3.6,12.4l14,21.9c0,0,6.8,7.4,6.8,8.4s25,20.4,35.5,25.8s24,9.8,25,13.7s7,32.8,24,23.5
	c17-9.4-4.8-30.6-4.8-30.6l-14-12.4c0,0-29.9-23.4-32.4-31.2s-12.5-14.6-12.5-14.6l-7-12.8L486,181.2L474,193.8z"/>
<path class="st3" d="M469,127.9c0,0-24.4,11.2-16.8,29s24.2,50.6,24.2,50.6s-2-11.4,2.4-12.4s33.8,3.9,33.8,3.9s-8.1-13.3-6.7-20.9
	S495.3,121.3,469,127.9z"/>
<path class="st3" d="M471.4,126.1c0,0-24.4,11.2-16.8,28.9s24.2,50.6,24.2,50.6s-2-11.4,2.4-12.4s32.2,4.2,32.2,4.2
	s-6.4-13.6-5-21.2S497.8,119.5,471.4,126.1z"/>
<path class="st6" d="M470.2,126.7c0,0-24.4,11.2-16.8,29s24.2,50.6,24.2,50.6s-2-11.4,2.4-12.4s32.1,4.2,32.1,4.2s-6.4-13.6-5-21.2
	S496.5,120.1,470.2,126.7z"/>
<path class="st3" d="M518.8,56c-3.4,1.1-7,1.8-10,0.1c-2.1-1.1-3.6-3.3-6-3.8c-2.1-0.4-4.3,0.8-5.7,2.5c-1.3,1.8-2.3,3.7-3,5.8
	c-1.5,3.6-3.4,7-5.5,10.3c-1.3,2-3.1,4.1-5.5,4.2c-3.3,0.1-5.5-3.5-8.7-4.4c-7.8-2.2-3.3,6.4-2.1,9.6c1.1,3.2,1.5,6.6,1.2,9.9
	c-0.3,0.1-0.5,0.1-0.8,0.1c-8-13.9-3.2-31.6,10.7-39.6C494.9,44.2,509.6,46.3,518.8,56z"/>
<path class="st8" d="M473.9,70.1c3.2,0.9,5.4,4.5,8.7,4.4c2.4-0.1,4.2-2.2,5.5-4.2c2.2-3.2,4-6.7,5.5-10.3c0.7-2.1,1.7-4,3-5.8
	c1.4-1.7,3.5-2.9,5.7-2.5c2.3,0.4,3.9,2.6,6,3.8c3.8,2.1,8.5,0.6,12.5-1c2-0.8,4.2-1.9,4.5-3.9c0.2-1.4-0.6-2.9-0.4-4.4
	s1.3-2.5,2-3.7s1.2-2.9,0.1-3.9c-0.8-0.7-1.9-0.6-2.9-1c-2.4-0.9-3-4.1-5.1-5.6c-2.3-1.6-5.4-0.5-8.2-0.4c-4,0.2-7.7-1.7-11.4-3.1
	s-7.9-2.6-11.6-1.1c-2.2,0.9-3.9,2.7-5.8,4.2c-3.6,2.9-8,4.7-12.6,5.3c-2.3,0.3-4.7,0.4-6.5,1.8c-2.2,1.8-2.6,5.1-2.1,7.9
	s1.4,5.6,1.2,8.4c-0.4,4.5-3.7,8.2-4.9,12.6c-0.5,1.4-0.3,3,0.5,4.3c0.7,0.7,1.4,1.2,2.3,1.6c2.2,1.4,3.6,3.7,3.9,6.3
	c0.1,1.3,0,2.6,0.2,3.9c0.8,4.1,4.8,6.7,8.9,6c0.4-3.4,0-6.8-1.2-9.9C470.6,76.5,466.1,68,473.9,70.1z"/>
<g class="st9">
	<path d="M520.5,33.5C520.5,33.6,520.6,33.6,520.5,33.5L520.5,33.5z"/>
	<path d="M526.8,42.4c0.8-1.2,1.2-2.9,0.1-3.9c-0.2-0.2-0.4-0.3-0.6-0.4c0,0.9-0.2,1.7-0.7,2.5c-0.8,1.2-1.8,2.3-2,3.7
		s0.6,2.9,0.4,4.4c-0.3,2.1-2.6,3.2-4.5,3.9c-4,1.6-8.7,3.1-12.5,1c-2.1-1.2-3.6-3.3-5.9-3.8c-2.1-0.4-4.3,0.8-5.7,2.5
		c-1.3,1.8-2.3,3.7-3,5.8c-1.5,3.6-3.4,7-5.5,10.3c-1.3,2-3.1,4.1-5.5,4.2c-3.3,0.1-5.5-3.5-8.7-4.4c-7.8-2.2-3.3,6.4-2.1,9.6
		c1.1,3.2,1.5,6.6,1.2,10c-2.6,0.5-5.3-0.5-7.1-2.5c1.5,3.1,4.9,4.9,8.3,4.3c0.4-3.4,0-6.8-1.1-9.9c-1.1-3.2-5.6-11.8,2.1-9.6
		c3.2,0.9,5.4,4.5,8.7,4.4c2.4-0.1,4.2-2.2,5.5-4.2c2.2-3.3,4-6.7,5.5-10.3c0.7-2.1,1.7-4,3-5.8s3.5-2.7,5.7-2.5
		c2.3,0.4,3.9,2.6,5.9,3.8c3.8,2.1,8.5,0.6,12.5-1c2-0.8,4.2-1.9,4.5-3.9c0.2-1.4-0.6-2.9-0.4-4.4S526.1,43.5,526.8,42.4z"/>
	<path d="M458.7,71.5c-0.5-0.4-1.1-0.7-1.7-1.1c0.1,0.4,0.3,0.9,0.6,1.2c0.7,0.7,1.4,1.2,2.3,1.6c0.7,0.5,1.3,1,1.9,1.7
		C461.1,73.6,460,72.4,458.7,71.5z"/>
</g>
<path class="st3" d="M529.1,70.6c0,0-8.2-5.7-13,0.4h-2.9c-2.9-8.4-17.4-4.5-17.4-4.5l-19.7,3.2l0.4,1.3l19.3-1.6
	c0,0,0.5,7.9,3.1,10.4s8.3,1.1,8.3,1.1c3.4-0.4,5.1-5.8,5.7-8.5l2.8,0.2c-0.5,2.7-0.8,8,3.8,9.8c6.3,2.5,8.3-3.1,8.3-3.1
	S529.8,72.1,529.1,70.6z"/>
<path class="st4" d="M529.1,70c0,0-8.2-5.7-13,0.4h-2.9c-2.9-8.4-17.4-4.5-17.4-4.5l-19.7,3.2l0.4,1.3l19.3-1.6
	c0,0,0.5,7.9,3.1,10.4s8.3,1.1,8.3,1.1c3.4-0.4,5.1-5.8,5.7-8.5l2.8,0.2c-0.5,2.7-0.8,8,3.8,9.8c6.3,2.5,8.2-3.1,8.2-3.1
	S529.8,71.5,529.1,70z"/>
<linearGradient id="SVGID_1_" gradientUnits="userSpaceOnUse" x1="471.4689" y1="117.7132" x2="653.0164" y2="117.7132" gradientTransform="matrix(1 0 0 1 -33.25 171.01)">
	<stop  offset="0" style="stop-color:#808080;stop-opacity:0.25"/>
	<stop  offset="0.54" style="stop-color:#808080;stop-opacity:0.12"/>
	<stop  offset="1" style="stop-color:#808080;stop-opacity:0.1"/>
</linearGradient>
<path class="st10" d="M619.6,507.2c-0.1-0.5-0.3-1-0.5-1.4c-2.5-5.5-9.8-2-14.1,0.7l-0.6,0.3c-1.6,1-2.6,1.9-2.6,1.9h-0.1l0,0
	c-1,0.3-7.3,2-12.4-1.6c-4.8-3.1-10.1-5.4-15.7-6.5v-201c2.7,0.9,5.8,0.6,9.4-1.4c2.1-1.1,3.8-2.7,5.1-4.7c0.2-0.3,0.4-0.7,0.5-1
	l0.1,0.1c1.8,1.4,3.1,3.4,3.5,5.7c0.9,0.6,1.7,1.2,2.4,1.9c1,1,2.6,1,3.6,0c0.2-0.2,0.3-0.4,0.4-0.6c0.3-0.5,0.4-1,0.3-1.6
	c0-0.1,0-0.1,0-0.2c-0.9-5.6-4.6-10.4-9.8-12.6c-1.9-8.8-10.9-17.7-10.9-17.7l-14-12.4c0,0-29.9-23.5-32.5-31.3
	c-1.2-3.6-4-7.1-6.7-9.7c0-13.8-0.3-30.6-0.3-30.6s-5.1-40.6-12.2-53.9c-0.1-0.2-0.2-0.4-0.3-0.5c0,0-5-8.5-5.5-13.1
	c0-0.1,0-0.2,0.1-0.4h-0.1c0-0.4,0-0.8,0.1-1.1l-2.7-1.7H504c0.2-2.9,0.7-5.8,1.6-8.6c0.1-0.2,0.1-0.4,0.2-0.7
	c0.2-0.5,0.4-1.1,0.6-1.6c0.1-0.2,0.2-0.5,0.3-0.7c0.3-0.1,0.6-0.2,0.9-0.3c8.5-3.1,15.1-10.1,17.7-18.7c0.1-0.3,0.2-0.5,0.2-0.8
	c0.2-0.6,0.3-1.2,0.5-1.8c0.1-0.1,0.2-0.1,0.2-0.2c0.6-0.6,1.1-1.4,1.5-2.2c0,0,0,0,0-0.1c0.1-0.4,0.9-3.2,1.3-5.6l0,0v-0.1
	c0.1-0.8,0.2-1.5,0.2-2.3c0.1-0.5,0-0.9-0.2-1.4c-1.1-0.7-2.2-1.3-3.4-1.7c-1.1-4.2-3.1-8-5.9-11.3l-0.1-0.1
	c-0.3-0.3-0.5-0.6-0.8-0.9s-0.4-0.4-0.6-0.6c0.9-0.3,1.7-0.6,2.5-0.9c1.7-0.6,3.5-1.5,4.3-3.1V49c0.1-0.2,0.2-0.5,0.2-0.8
	c0.1-1-0.1-2-0.3-2.9c0-0.1,0-0.2,0-0.3l0,0c-0.1-0.4-0.1-0.8,0-1.2c0.2-1.4,1.3-2.5,2-3.7c0.2-0.3,0.3-0.5,0.4-0.8l0,0l0,0
	c0.4-0.8,0.4-1.9,0-2.7c-0.1-0.2-0.2-0.4-0.4-0.5c-0.2-0.2-0.4-0.3-0.6-0.4v0.1c-0.7-0.3-1.5-0.4-2.2-0.6c-2.4-0.9-3-4.2-5.1-5.6
	c-2.3-1.6-5.4-0.5-8.2-0.4c-4,0.2-7.8-1.7-11.5-3.1s-8-2.6-11.6-1.1c-2.2,0.9-3.9,2.7-5.8,4.2c-3.6,2.9-8,4.7-12.6,5.3
	c-2.3,0.3-4.7,0.4-6.5,1.8c-2,1.6-2.5,4.3-2.3,6.8c0,0.4,0.1,0.7,0.1,1.1c0.4,2.8,1.4,5.6,1.2,8.5c0,0.1,0,0.3-0.1,0.5
	c-0.2,1.2-0.5,2.4-1,3.5c-1.2,2.9-3,5.6-3.8,8.7c-0.3,0.9-0.3,1.8-0.2,2.8v0.1l0,0c0,0.1,0.1,0.2,0.1,0.4v0.1c0,0.1,0.1,0.1,0.1,0.2
	c0.1,0.2,0.2,0.5,0.4,0.7c0.7,0.7,1.4,1.2,2.3,1.6c2.2,1.4,3.6,3.7,3.9,6.3c0.1,1.3,0,2.6,0.2,3.9c0.1,0.6,0.2,1.1,0.5,1.6l0,0l0,0
	c1.2,2.6,3.8,4.4,6.7,4.5c0.1,0,0.2,0,0.3,0c0.2,0,0.3,0,0.5,0l0,0c-0.1,0.4-0.1,0.9-0.2,1.3c0,0.2-0.1,0.4-0.1,0.7
	c0,0.1,0,0.1,0,0.2c-0.3,2.1-0.7,4.2-1.1,6.4c-0.6-0.2-1.3-0.3-1.9-0.4c0,0-4,0-4.2,4c-0.1,2.4,0,5.2-0.7,7.4
	c-0.4,1.5-1.5,2.8-2.9,3.4c-3.8,1.8-11.2,14-11.2,14s-4.8,6-4,8.8c0,0.1,0,0.1,0,0.2c0.1,0.7,0.1,1.3,0,2l0,0
	c-0.5,4.7-3.4,14.1-3.4,14.1c-1.6,7.7-2.4,15.6-2.4,23.5c0,3.6,0.3,7.2,1,10.8c1.7,9.1,2.7,26.4,2.6,40.2c0,0.8,0,1.5,0,2.3
	c-0.1,8.4-0.7,15.2-1.8,17.7c-1.7,3.9-3.6,23.7-3.5,40.7c0,12.7,1.1,23.9,4.1,25.9c2.3,0.7,4.7,1.2,7.1,1.5h0.3
	c0.1,0.4,0.2,0.8,0.3,1.2s0.1,0.5,0.2,0.7s0.2,0.8,0.3,1.1c1.6,6.1,3.9,13.2,6.6,17.2c4.9,7.3,6.6,5.6,5.8,7.4
	c-0.1,0.2-0.2,0.4-0.4,0.7c-0.4,0.9-0.6,2-0.6,3l0,0c0,1.8,0.2,3.7,0,5.5c-0.1,1.1-0.4,2.2-1,3.1c-0.5,0.9-0.7,1.8-0.6,2.8l0,0
	c0,4.7,2.6,12.2,2.6,12.2l-0.1,0.7c-0.3,1.8-1.1,7-1.4,11.9c0,0,0,0.1,0,0.2c-0.3,4.7-0.1,9.3,1.5,10.4c1.2,0.9,1.8,2.4,1.6,3.8
	c-0.2,1.3-0.8,2.6-1.6,3.7v0.6v4.8l-0.1,0.1c-0.7,1.3-1.1,2.7-1.3,4.1l0,0c0,0.4,0,0.8,0.1,1.2c0.1,0.4,0.1,0.9,0,1.3l0,0
	c-0.4,2.4-2.7,5.6-2.7,5.6l-3.2,19.3L443.8,511v0.1c0.1,1.2,0.2,2.4,0.5,3.6c0,0.1,0,0.1,0,0.2c0.4,2.2,1,4.3,1.9,6.4v0.1l0,0
	c0,0.2-0.1,0.5-0.1,0.7c-0.3,1.7-0.8,3.7-1.3,4.2s-3.6,6.7-4.9,11c-0.1,0.5-0.3,0.9-0.3,1.3c0,0,0,0,0,0.1c-0.1,0.4-0.2,0.7-0.2,1.1
	c0,0.3,0,0.5,0,0.8c0,0.2,0.1,0.4,0.1,0.6c1.1,2.3,3.1,7,8.2,7.2s25.5,1.1,31.9,3.5c0.7,0.2,1.4,0.4,2.1,0.5l0.7,0.1h0.1l0.8,0.1
	c0.3,0,0.7,0.1,1.1,0.1c0.6,0.1,1.3,0.1,2,0.2c0.9,0.1,1.9,0.1,2.9,0.2h1.4c4.3,0.1,9.2,0,13.8-0.2c4-0.2,8-0.6,12-1.2
	c1.5-0.1,3-0.6,4.3-1.3c2.3-1.9,3.8-4.6,4.4-7.6c0.3-1.6-0.3-3.3-1.6-4.4c-1.9-1.4-4-2.3-6.3-2.6c-1.8-0.4-3.7-0.6-5.5-0.7
	c0,0-12-5.8-14.7-8.9c0,0-9.5-4.6-9.5-7c0-2-3.8-6.5-7.2-6.9v-16.1l0.1-0.2c0-0.1,0.1-0.2,0.1-0.3s0.2-0.6,0.3-1c0-0.1,0-0.1,0-0.2
	c0.1-0.2,0.2-0.5,0.3-0.7s0.2-0.5,0.3-0.8s0.2-0.6,0.3-0.9c0.5-1.5,1-3.2,1.5-5c0.1-0.4,0.3-0.9,0.4-1.3c0-0.1,0-0.2,0.1-0.3
	c0.9-3,1.5-6.1,2-9.2c0.7-4.9,2.3-12.6,3.5-18.2l0,0c0.1-0.6,0.3-1.2,0.4-1.7l0,0c0.1-0.3,0.1-0.5,0.2-0.8l0.1-0.4
	c0.1-0.3,0.1-0.6,0.2-0.9c0.4-1.7,0.6-2.8,0.6-2.8l0,0c0.1-0.3,0.1-0.4,0.1-0.4s0.2-2,0.7-4.5c0-0.2,0.1-0.4,0.1-0.6
	c0.4-2.3,1.2-4.6,2.4-6.6c0.7-1.2,1.2-2.5,1.5-3.8c0-0.1,0-0.3,0.1-0.4c0-0.1,0-0.1,0-0.2c0.6-3.3,1-6.7,1.1-10.1c0-0.3,0-0.5,0-0.5
	s7.5-5.1,8.7-6s5.9-22,6.8-25.6l0,0l0.1-0.5c0,0,0.2-1.4,0.5-3.8c0-0.3,0.1-0.5,0.1-0.8c0.5,0.6,1,1.3,1.5,2l0,0
	c2,3.1,0.9,4.7,1.7,5.6c1.1,1.1,0.2,5,0,5.6v0.1l0,0c0.3,2.2,0.8,4.3,1.6,6.3c0.7,1.9,1.1,3.8,1.1,5.8l-0.2,0.2
	c-0.5,0.5-0.8,1-0.9,1.7l0,0c0,0.8,0.3,1.5,1,1.9c2.4,1.8,2.1,15.7,2.1,15.7s0.1,1,0.4,2.7c0.2,1.2,0.4,2.7,0.7,4.5l0,0
	c2.5,16.5,8.6,55.8,11.2,57.2s3.2,7.5,3.3,10c0,0.5,0,0.8,0,1v0.2l2.4,10.8c1.2,0.7,2.5,1.3,3.8,1.8l0.2,0.1v14.7
	c-0.3,0.9-0.6,1.9-0.6,2.8c0,0,0,0.1,0,0.2c-0.2,2.9,1,6.8,9.2,5.6l1.2-0.2c1.8-0.3,3.5-0.6,5-0.9c8.3-1.7,11.7-3.6,11.7-3.6
	s2-0.8,4.6-1.9l0.2-0.1h2v-0.8c2.4-1,5.1-2,7.3-2.7c0.6-0.2,1.2-0.4,1.7-0.5c0.9-0.3,1.9-0.5,2.9-0.6c0.4,0,0.8-0.1,1.1-0.2
	c0.1,0,0.3-0.1,0.5-0.2C597,530.1,622,516.8,619.6,507.2z M550.6,361.5c-0.7-1.7-1.5-3.3-2.4-4.8c0,0-12.6-38.2-12.6-40
	s-2.1-3.2-2.1-3.2l-3.2-13.3c0,0-1.4-9.8-2-20.3c-0.3-4.3-1.1-12.3-1.9-20.7c0-0.5-0.1-0.9-0.1-1.4c-0.1-0.5-0.1-1.1-0.2-1.6
	c2.6,1.7,5.3,3.3,8,4.8c10.6,5.4,24,9.9,25,13.8c0.6,2.3,3,13.5,8.3,20.2c-0.1,0.4-0.2,0.7-0.3,1.1c-0.1,0.2-0.1,0.5-0.2,0.7h-0.4
	v178.4c-0.1-0.2-0.2-0.3-0.3-0.5c-0.3-0.6-0.7-1.2-1.2-1.8c-4.5-5.4-4.2-20.5-4.2-20.5l-3.9-33.6v-0.1c0.1-0.1,0.2-0.3,0.2-0.4l0,0
	c0.5-1,1.2-3.6-1.1-5.1s-1.8-5.2-1.4-6.7c0-0.2,0.1-0.4,0.2-0.7c0,0,1.5-0.4,3-4.7c0-0.1,0-0.1,0.1-0.2c0.3-0.8,0.6-1.8,0.9-2.9
	c1.8-7.2-3.3-22.3-5.1-25.9c-0.8-1.7-1-3.6-0.6-5.4c0.1-0.4,0.2-0.7,0.3-1c0.2-0.5,0.3-0.8,0.3-0.8S550.9,362.7,550.6,361.5
	L550.6,361.5z M565.9,493l0.2-0.1h0.1l0.1-0.1h0.1v0.8l-0.3-0.3L565.9,493L565.9,493z"/>
<path class="st4" d="M588,533c-2.9-0.1-18.7,6.5-18.7,6.5s-5,2.8-17.8,4.6c-8.3,1.2-9.5-2.8-9.2-5.8c0.1-1,0.3-1.9,0.6-2.8v-17.7
	c0,0,26-15.9,28-16.9c0.3-0.1,0.5-0.2,0.8-0.2c3.2-0.1,12.4,3.1,17.4,6.7c5.5,3.9,12.5,1.5,12.5,1.5s13.6-10.9,17.1-2.9
	c0.2,0.5,0.4,0.9,0.5,1.4C621.8,518,590.9,533.1,588,533z"/>
<path class="st3" d="M543,522.1v-4.3c0,0,26-15.9,28-16.9c0.3-0.1,0.5-0.2,0.8-0.2c1.2,1.2,2.3,2.3,2.9,3
	C576.5,505.7,559.3,527.3,543,522.1z"/>
<path class="st2" d="M539,519l-2.4-10.8l0,0c0,0,0-9.3-3.3-11.1S521,433,521,433s0.3-13.8-2.1-15.6s0-3.8,0-3.8c0-2-0.4-4-1.1-5.8
	c-0.8-2-1.3-4.1-1.6-6.3c0,0,1.2-4.5,0-5.7c-0.8-0.8,0.2-2.4-1.7-5.5c-1.3-1.9-2.8-3.5-4.6-4.9c-6.8-5.7-0.1-70.8,1.8-87.5
	c0.3-2.5,0.5-3.9,0.5-3.9h16l2,7.2l3.2,13.3c0,0,2.1,1.4,2.1,3.2s12.6,39.8,12.6,39.8c0.9,1.5,1.7,3.1,2.4,4.8c0.3,1.2,3,3.3,3,3.3
	c-1,2.3-1,4.9,0,7.2c1.8,3.6,6.9,18.6,5.1,25.8s-3.9,7.8-3.9,7.8s-1.8,5.3,1.2,7.3s0.9,5.6,0.9,5.6l3.9,33.6c0,0-0.3,15,4.2,20.4
	s5.1,18.3,5.1,18.3l-3.4,1.4l-0.6,0.3l-0.2,0.1c0,0,6.9,7.2,9,9.3S556.3,529.8,539,519z"/>
<path class="st3" d="M574.6,502.5c-1.8,5.4-20,25-35.7,15.3l-2.4-10.8c4.3-3.5,17.6-13.6,29.3-15.1l-0.2,0.1l0.8,0.8l-0.6,0.3
	l-0.2,0.1C565.6,493.3,572.5,500.5,574.6,502.5z"/>
<path class="st2" d="M539,519l-2.4-10.8c4.3-3.5,17.6-13.6,29.3-15.1l-0.2,0.1c0,0,6.9,7.2,9,9.3S556.3,529.8,539,519z"/>
<circle class="st5" cx="584.1" cy="509.7" r="0.8"/>
<circle class="st5" cx="579.2" cy="508.9" r="0.8"/>
<circle class="st5" cx="588.3" cy="510.4" r="0.8"/>
<circle class="st5" cx="574" cy="508.2" r="0.8"/>
<path class="st3" d="M588,533c-2.9-0.1-18.7,6.5-18.7,6.5s-5,2.8-17.8,4.6c-8.3,1.2-9.5-2.8-9.2-5.8c2.1,1,4.5,1.1,6.7,0.5
	c5.7-1.5,25.4-4.6,25.4-4.6s13-4.7,13.4-7.4l31-20.7c0.2,0.5,0.4,0.9,0.5,1.4C621.8,518,590.9,533.1,588,533z"/>
<rect x="566.2" y="297.9" class="st11" width="7.2" height="231"/>
<path class="st12" d="M572.8,300.5c0.5-5.3,5.3-9.2,10.7-8.7c4.2,0.4,7.7,3.5,8.6,7.7c0.8,0.6,1.6,1.2,2.4,1.9c1,1,2.6,0.9,3.6-0.1
	c0.5-0.6,0.8-1.3,0.7-2.1c0-0.1,0-0.1,0-0.2c-1.3-8.9-9.5-15.1-18.5-13.9c-8.9,1.3-15.1,9.5-13.9,18.5c0.2,1.6,0.7,3.1,1.3,4.5
	C568.6,305.2,570.4,302.5,572.8,300.5z"/>
<rect x="564" y="520.6" class="st13" width="12.1" height="16.9"/>
<path class="st14" d="M512.5,93.3c-2.5,3.2-4.5,6.8-6,10.7c-4.8,12.6-1.2,22.7-1.2,22.7s-43.3-9.6-39.1-14.4
	c2.5-2.9,4.6-14.1,5.9-22.5c0.8-5.4,1.3-9.7,1.3-9.7S525.5,76.3,512.5,93.3z"/>
<path class="st4" d="M525,543c-0.5,2.9-2.1,5.6-4.4,7.5c-3.3,2.8-34.8,3.8-41.1,1.4s-26.8-3.3-31.9-3.5s-7.1-4.9-8.2-7.2
	c-0.3-0.7-0.1-2.1,0.4-3.8c1.3-4.3,4.2-10.3,4.9-10.9c0.5-0.5,0.9-2.4,1.3-4.2c0.3-1.5,0.5-2.8,0.5-2.8c13.7,9.3,31.6-6.5,31.6-6.5
	c0.7-0.4,1.4-0.5,2.2-0.4c3.4,0.4,7.2,4.9,7.2,6.9c0,2.4,9.5,7,9.5,7c2.7,3.1,14.7,8.9,14.7,8.9s8.2,0.2,11.8,3.3
	C524.6,539.8,525.2,541.4,525,543z"/>
<path class="st3" d="M525,543c-0.5,2.9-2.1,5.6-4.4,7.5c-3.3,2.8-34.8,3.8-41.1,1.4s-26.8-3.3-31.9-3.5s-7.1-4.9-8.2-7.2
	c-0.3-0.7-0.1-2.1,0.4-3.8c4.5,1.1,8.9,2.5,13.3,4c6.4,2.5,19.7,6.1,22,5C475,546.5,506.6,555.3,525,543z"/>
<path class="st3" d="M514.5,390.4c-1.3-1.9-2.8-3.5-4.6-4.9c-6.8-5.7-0.1-70.8,1.8-87.5c7.8-0.4,13.3-0.3,13.8,0.9
	C527.1,302.9,516.6,375.7,514.5,390.4z"/>
<path class="st3" d="M480.3,512.6v3.4c-22,22.6-30.8,14.8-34.3,6.3c0.3-1.5,0.5-2.8,0.5-2.8c13.7,9.3,31.6-6.5,31.6-6.5
	C478.7,512.7,479.5,512.5,480.3,512.6z"/>
<path class="st2" d="M523.8,304.1c-1.3,20.1-11.4,88.8-11.4,88.8s-5.7,25.2-6.9,26.1s-8.7,6-8.7,6s-0.3,11.7-2.7,15
	s-3.3,11.7-3.3,11.7s-3.9,16.8-5.1,25.2s-5.4,19.8-5.4,19.8V515c-27.7,28.4-34.5,8.9-36.1,0.1c-0.2-1.2-0.4-2.4-0.5-3.7l15.6-94.7
	c0,0,3.3-4.5,2.7-6.9s1.2-5.4,1.2-5.4V399c0,0,3.6-4.8,0-7.5s0-23.1,0-23.1s-4.1-11.7-2-15s0-8.7,1.5-11.7s0,0-5.4-8.1
	c-2.8-4.2-5.2-11.9-6.9-18.2c-1.5-5.8-2.4-10.5-2.4-10.5s74-10.5,75.8-6C524,300.6,524,302.4,523.8,304.1z"/>
<path class="st3" d="M512.5,93.3c-2.5,3.2-4.5,6.8-6,10.7c-2.8,0.9-5.8,1.4-8.8,1.4c-10.7,0-16.6-7.9-21.6-16.4
	c-0.2-0.4-3.9,1.3-4.1,0.9c0.8-5.4,1.3-9.7,1.3-9.7S525.5,76.3,512.5,93.3z"/>
<path class="st15" d="M526.7,75.8c0,16-12.9,29-29,29s-29-12.9-29-29c0-16,12.9-29,29-29c8,0,15.7,3.3,21.2,9.2
	C523.9,61.4,526.7,68.4,526.7,75.8z"/>
<path class="st3" d="M523.8,304.1c-9.8,1.7-27.5,5.1-29,7.1c-2,2.8-17,3.6-26,4.8c-5.2,0.7-12.8,0.1-18.5-0.6
	c-1.5-5.8-2.4-10.5-2.4-10.5s74-10.5,75.8-6C523.9,300.6,524,302.4,523.8,304.1z"/>
<path class="st5" d="M530.1,301.2c0,0-33.3,5.4-35.3,8.2c-2,2.8-17,3.6-26,4.8s-25.2-1.4-26.4-2.2c-7-4.7-3.6-59.5-0.6-66.3
	s2-44.7-0.8-59.9s1.4-34.1,1.4-34.1s4.2-13.4,3.4-16.2s4-8.8,4-8.8s7.4-12.2,11.2-14c1.4-0.7,2.4-1.9,2.9-3.4c0.7-2.2,0.6-5,0.7-7.4
	c0.2-4,4.2-4,4.2-4c11.4,1.8,38.1,18.6,38.1,18.6c-1,3.8,5.4,14.6,5.4,14.6c0.1,0.2,0.2,0.4,0.3,0.5c7,13.2,12.1,53.6,12.1,53.6
	s0.3,19.3,0.3,33.5c0,7.1-0.2,12.9-0.5,14.4c-0.6,2.7,0.6,15.4,1.7,27.4c0.8,8.3,1.6,16.3,1.9,20.6
	C528.8,291.4,530.1,301.2,530.1,301.2z"/>
<path class="st3" d="M500.9,246.1c0,0-9,21.6-6.6,24.8S500.9,246.1,500.9,246.1z"/>
<path class="st3" d="M512.1,256.5c0,0-10.2,16-6.4,19.2C509.5,278.8,512.1,256.5,512.1,256.5z"/>
<path class="st3" d="M480.3,508.8v5.4c-27.7,28.4-34.5,8.9-36.1,0.1C449.2,518.6,460.8,524,480.3,508.8z"/>
<path class="st2" d="M480.3,509.4v5.4c-27.7,28.4-34.5,8.9-36.1,0.1C449.2,519.2,460.8,524.6,480.3,509.4z"/>
<circle class="st5" cx="477" cy="524" r="0.8"/>
<circle class="st5" cx="489.2" cy="531.5" r="0.8"/>
<circle class="st5" cx="484.5" cy="528.5" r="0.8"/>
<circle class="st5" cx="493" cy="534.2" r="0.8"/>
<circle class="st5" cx="481" cy="526.2" r="0.8"/>
<path class="st3" d="M485.9,332.8c0,0-7.2,18.1-15.8,18.8S485.9,332.8,485.9,332.8z"/>
<path class="st3" d="M487.1,360.3c0,0-11.4,19.4-14.8,19.6S487.1,360.3,487.1,360.3z"/>
<path class="st3" d="M493,425.5c0,0-14.1,7.4-10.9,8S493,425.5,493,425.5z"/>
<path class="st3" d="M465,425.5c0,0,14.2-5.8,16.7-5.8S465,425.5,465,425.5z"/>
<path class="st3" d="M542.3,401.9c0,0,9.7-2.4,10.1,0S542.3,401.9,542.3,401.9z"/>
<path class="st3" d="M551.7,413.7c0,0-8.6,0.2-7.4,3S551.7,413.7,551.7,413.7z"/>
<path class="st3" d="M512.6,132.8c-7.4-2.9-20.3-8.5-26.1-14.1s-16.5-7.5-22.7-8.2c0.7-2.2,0.6-5,0.7-7.4c0.2-4,4.2-4,4.2-4
	c11.4,1.8,38.1,18.6,38.1,18.6c-1,3.8,5.4,14.6,5.4,14.6C512.4,132.4,512.5,132.6,512.6,132.8z"/>
<path class="st5" d="M512.6,131.6c-7.4-2.9-20.3-8.5-26.1-14.1s-16.5-7.6-22.7-8.2c0.7-2.2,0.6-5,0.7-7.4c0.2-4,4.2-4,4.2-4
	c11.4,1.8,38.1,18.6,38.1,18.6c-1,3.8,5.4,14.6,5.4,14.6C512.4,131.2,512.5,131.4,512.6,131.6z"/>
<path class="st3" d="M526.2,260.5c-11.9-7.7-28.5-20.8-28.5-21.6c0-1-6.8-8.4-6.8-8.4l-13.4-24.3l-4.2-10l12-12.6l26.2,16.8l7,12.8
	c2.3,1.6,4.5,3.5,6.5,5.5c0,7.1-0.2,12.9-0.5,14.4C523.9,235.8,525,248.5,526.2,260.5z"/>
<path class="st16" d="M474,193.8l3.6,12.4l14,21.9c0,0,6.8,7.4,6.8,8.4s25,20.4,35.5,25.8s24,9.8,25,13.7s7,32.8,24,23.5
	c17-9.4-4.8-30.6-4.8-30.6l-14-12.4c0,0-29.9-23.4-32.4-31.2s-12.5-14.6-12.5-14.6l-7-12.8L486,181.2L474,193.8z"/>
<path class="st3" d="M469,127.9c0,0-24.4,11.2-16.8,29s24.2,50.6,24.2,50.6s-2-11.4,2.4-12.4s33.8,3.9,33.8,3.9s-8.1-13.3-6.7-20.9
	S495.3,121.3,469,127.9z"/>
<path class="st3" d="M471.4,126.1c0,0-24.4,11.2-16.8,28.9s24.2,50.6,24.2,50.6s-2-11.4,2.4-12.4s32.2,4.2,32.2,4.2
	s-6.4-13.6-5-21.2S497.8,119.5,471.4,126.1z"/>
<path class="st5" d="M470.2,126.7c0,0-24.4,11.2-16.8,29s24.2,50.6,24.2,50.6s-2-11.4,2.4-12.4s32.1,4.2,32.1,4.2s-6.4-13.6-5-21.2
	S496.5,120.1,470.2,126.7z"/>
<path class="st3" d="M518.8,56c-3.4,1.1-7,1.8-10,0.1c-2.1-1.1-3.6-3.3-6-3.8c-2.1-0.4-4.3,0.8-5.7,2.5c-1.3,1.8-2.3,3.7-3,5.8
	c-1.5,3.6-3.4,7-5.5,10.3c-1.3,2-3.1,4.1-5.5,4.2c-3.3,0.1-5.5-3.5-8.7-4.4c-7.8-2.2-3.3,6.4-2.1,9.6c1.1,3.2,1.5,6.6,1.2,9.9
	c-0.3,0.1-0.5,0.1-0.8,0.1c-8-13.9-3.2-31.6,10.7-39.6C494.9,44.2,509.6,46.3,518.8,56z"/>
<path d="M473.9,70.1c3.2,0.9,5.4,4.5,8.7,4.4c2.4-0.1,4.2-2.2,5.5-4.2c2.2-3.2,4-6.7,5.5-10.3c0.7-2.1,1.7-4,3-5.8
	c1.4-1.7,3.5-2.9,5.7-2.5c2.3,0.4,3.9,2.6,6,3.8c3.8,2.1,8.5,0.6,12.5-1c2-0.8,4.2-1.9,4.5-3.9c0.2-1.4-0.6-2.9-0.4-4.4
	s1.3-2.5,2-3.7s1.2-2.9,0.1-3.9c-0.8-0.7-1.9-0.6-2.9-1c-2.4-0.9-3-4.1-5.1-5.6c-2.3-1.6-5.4-0.5-8.2-0.4c-4,0.2-7.7-1.7-11.4-3.1
	s-7.9-2.6-11.6-1.1c-2.2,0.9-3.9,2.7-5.8,4.2c-3.6,2.9-8,4.7-12.6,5.3c-2.3,0.3-4.7,0.4-6.5,1.8c-2.2,1.8-2.6,5.1-2.1,7.9
	s1.4,5.6,1.2,8.4c-0.4,4.5-3.7,8.2-4.9,12.6c-0.5,1.4-0.3,3,0.5,4.3c0.7,0.7,1.4,1.2,2.3,1.6c2.2,1.4,3.6,3.7,3.9,6.3
	c0.1,1.3,0,2.6,0.2,3.9c0.8,4.1,4.8,6.7,8.9,6c0.4-3.4,0-6.8-1.2-9.9C470.6,76.5,466.1,68,473.9,70.1z"/>
<g class="st9">
	<path d="M520.5,33.5C520.5,33.6,520.6,33.6,520.5,33.5L520.5,33.5z"/>
	<path d="M526.8,42.4c0.8-1.2,1.2-2.9,0.1-3.9c-0.2-0.2-0.4-0.3-0.6-0.4c0,0.9-0.2,1.7-0.7,2.5c-0.8,1.2-1.8,2.3-2,3.7
		s0.6,2.9,0.4,4.4c-0.3,2.1-2.6,3.2-4.5,3.9c-4,1.6-8.7,3.1-12.5,1c-2.1-1.2-3.6-3.3-5.9-3.8c-2.1-0.4-4.3,0.8-5.7,2.5
		c-1.3,1.8-2.3,3.7-3,5.8c-1.5,3.6-3.4,7-5.5,10.3c-1.3,2-3.1,4.1-5.5,4.2c-3.3,0.1-5.5-3.5-8.7-4.4c-7.8-2.2-3.3,6.4-2.1,9.6
		c1.1,3.2,1.5,6.6,1.2,10c-2.6,0.5-5.3-0.5-7.1-2.5c1.5,3.1,4.9,4.9,8.3,4.3c0.4-3.4,0-6.8-1.1-9.9c-1.1-3.2-5.6-11.8,2.1-9.6
		c3.2,0.9,5.4,4.5,8.7,4.4c2.4-0.1,4.2-2.2,5.5-4.2c2.2-3.3,4-6.7,5.5-10.3c0.7-2.1,1.7-4,3-5.8s3.5-2.7,5.7-2.5
		c2.3,0.4,3.9,2.6,5.9,3.8c3.8,2.1,8.5,0.6,12.5-1c2-0.8,4.2-1.9,4.5-3.9c0.2-1.4-0.6-2.9-0.4-4.4S526.1,43.5,526.8,42.4z"/>
	<path d="M458.7,71.5c-0.5-0.4-1.1-0.7-1.7-1.1c0.1,0.4,0.3,0.9,0.6,1.2c0.7,0.7,1.4,1.2,2.3,1.6c0.7,0.5,1.3,1,1.9,1.7
		C461.1,73.6,460,72.4,458.7,71.5z"/>
</g>
<path class="st3" d="M529.1,70.6c0,0-8.2-5.7-13,0.4h-2.9c-2.9-8.4-17.4-4.5-17.4-4.5l-19.7,3.2l0.4,1.3l19.3-1.6
	c0,0,0.5,7.9,3.1,10.4s8.3,1.1,8.3,1.1c3.4-0.4,5.1-5.8,5.7-8.5l2.8,0.2c-0.5,2.7-0.8,8,3.8,9.8c6.3,2.5,8.3-3.1,8.3-3.1
	S529.8,72.1,529.1,70.6z"/>
<path class="st4" d="M529.1,70c0,0-8.2-5.7-13,0.4h-2.9c-2.9-8.4-17.4-4.5-17.4-4.5l-19.7,3.2l0.4,1.3l19.3-1.6
	c0,0,0.5,7.9,3.1,10.4s8.3,1.1,8.3,1.1c3.4-0.4,5.1-5.8,5.7-8.5l2.8,0.2c-0.5,2.7-0.8,8,3.8,9.8c6.3,2.5,8.2-3.1,8.2-3.1
	S529.8,71.5,529.1,70z"/>
<path class="st17" d="M969.1,402.4c0,0,9.6-0.3,12.5-2.3s14.8-4.5,15.5-1.2s14.4,16.4,3.6,16.5s-25.2-1.7-28-3.4
	S969.1,402.4,969.1,402.4z"/>
<path class="st18" d="M1000.8,414.2c-10.8,0.1-25.2-1.7-28-3.4c-2.2-1.3-3.1-6.1-3.4-8.4h-0.3c0,0,0.6,7.7,3.5,9.5s17.2,3.5,28,3.4
	c3.1,0,4.2-1.1,4.2-2.8C1004.4,413.6,1003.2,414.2,1000.8,414.2z"/>
<ellipse class="st19" cx="112.7" cy="440.7" rx="30.9" ry="5.2"/>
<path class="st17" d="M91.9,416.4c0,0,17.6-0.5,22.9-4.3s27.1-8.3,28.4-2.2s26.4,30.1,6.6,30.3s-46.2-3.1-51.5-6.3
	S91.9,416.4,91.9,416.4z"/>
<path class="st18" d="M150.2,438.1c-19.9,0.2-46.2-3.1-51.5-6.3c-4-2.5-5.7-11.3-6.2-15.3h-0.6c0,0,1.1,14.2,6.4,17.4
	c5.3,3.2,31.6,6.5,51.5,6.3c5.7,0,7.7-2.1,7.6-5.1C156.8,436.9,154.5,438,150.2,438.1z"/>
<g class="st20">
	<path d="M514,73.6c-0.1,0.6-0.3,1.3-0.3,1.9c0,0.1,0,0.3,0,0.4s0,0.3,0.1,0.4c0.1,0.3,0.2,0.6,0.3,0.8c0.5,1.1,1.1,2.2,1.7,3.3
		c0.6,1.2,1.2,2.3,1.3,3.7c0,0.2,0,0.4,0,0.5v0.3c0,0.1-0.1,0.3-0.1,0.3c-0.2,0.4-0.4,0.6-0.7,0.8c-0.5,0.4-1,0.8-1.6,1.1
		c0.4-0.5,0.8-1,1.1-1.5c0.2-0.2,0.3-0.5,0.4-0.7c0-0.1,0-0.1,0-0.1v-0.2c0-0.1,0-0.3-0.1-0.4c-0.3-1.1-0.9-2.2-1.4-3.3
		c-0.6-1.1-1.2-2.3-1.5-3.6c-0.1-0.3-0.2-0.7-0.2-1c0-0.2,0-0.4,0-0.6s0.1-0.3,0.1-0.5C513.4,74.7,513.7,74.1,514,73.6z"/>
</g>
<g class="st20">
	<path class="st21" d="M515.7,92.2c0,0-1.3-1-1.9-1c-0.3,0-1.1,0.4-1.1,0.4s-1.2-0.5-1.6-0.6c-0.9-0.1-2.3,0.6-3.2,0.7
		c-0.5,0.1-2-0.4-2-0.4s2.1,2.7,3.1,3.1c1.2,0.5,3.9,0.7,5,0.1C514.7,94.2,515.7,92.2,515.7,92.2z"/>
	<path class="st21" d="M515.7,92.2c-0.2-0.1-0.5-0.2-0.8-0.3c-0.3-0.1-0.5-0.2-0.8-0.3c-0.1,0-0.2-0.1-0.3-0.1c0,0-0.1,0-0.3,0.1
		s-0.5,0.2-0.7,0.3l-0.1,0.1l-0.2-0.1c-0.5-0.2-1.1-0.4-1.5-0.5c-0.4,0-1,0.1-1.6,0.2s-1.1,0.3-1.8,0.3c-0.6-0.1-1.2-0.2-1.7-0.4
		l0.2-0.3c0.7,0.8,1.5,1.5,2.2,2.1c0.4,0.3,0.7,0.6,1.1,0.7s0.9,0.2,1.4,0.3c1,0.1,2,0.2,2.8-0.1c0.3-0.1,0.7-0.5,1-0.9
		C515,93,515.3,92.6,515.7,92.2z M515.8,92.2c-0.2,0.6-0.4,1-0.6,1.5c-0.1,0.2-0.2,0.5-0.4,0.7c-0.1,0.1-0.2,0.2-0.3,0.4
		c-0.1,0.1-0.3,0.2-0.4,0.3c-1.1,0.5-2.2,0.5-3.3,0.4c-0.5-0.1-1.1-0.2-1.6-0.4c-0.3-0.1-0.6-0.3-0.8-0.5c-0.2-0.2-0.4-0.4-0.6-0.6
		c-0.7-0.8-1.3-1.7-1.9-2.5l-0.3-0.5l0.5,0.2c0.5,0.2,1.1,0.4,1.7,0.4c0.5,0,1-0.3,1.6-0.5c0.5-0.2,1.1-0.5,1.8-0.5
		c0.4,0,0.7,0.2,1,0.3c0.3,0.1,0.5,0.2,0.8,0.4h-0.3c0.3-0.1,0.5-0.2,0.9-0.3c0.2,0,0.3-0.1,0.6,0c0.2,0,0.3,0.1,0.5,0.2
		c0.3,0.2,0.5,0.3,0.7,0.5C515.3,91.8,515.5,91.9,515.8,92.2z"/>
</g>
<g class="st20">
	<path d="M515.3,92.7c-0.7,0-1.4-0.1-2.1,0.2c-0.3,0.1-0.7,0.2-1.1,0.2c-0.4,0-0.7,0-1.1-0.1c-0.2,0-0.4-0.1-0.6-0.1
		c-0.2-0.1-0.3-0.1-0.5-0.1c-0.3-0.1-0.7-0.1-1-0.2c-0.7-0.1-1.4-0.2-2.1-0.4c0.7-0.1,1.4,0,2.2,0c0.4,0,0.7,0.1,1.1,0.1
		c0.2,0,0.4,0.1,0.5,0.1s0.3,0.1,0.5,0.1c0.3,0.1,0.7,0.1,1,0.1s0.7,0,1-0.1c0.3,0,0.7-0.1,1.1,0C514.6,92.5,515,92.6,515.3,92.7z"
		/>
</g>
<g class="st20">
	<path d="M514,86.6c-0.3,0.4-0.7,0.5-1.1,0.6c-0.4,0-0.7,0-1.1-0.4c0.3-0.4,0.7-0.5,1.1-0.6C513.2,86.1,513.6,86.2,514,86.6z"/>
</g>
<path class="st22" d="M107.8,309.1c-4.7,5.8-29.3,14.5-29.3,14.5s2.5-24.7,7.1-30.5c4.9-5.8,13.4-6.9,19.5-2.5
	c5.8,4,7.2,11.9,3.2,17.6C108.2,308.6,108,308.9,107.8,309.1z"/>
<path class="st22" d="M140.9,361.6c-3.6,6.4-26.2,19-26.2,19s-2-24.7,1.6-31.2c3.8-6.5,12-8.9,18.8-5.5c6.4,3,9.2,10.6,6.2,17
	C141.1,361.2,141,361.4,140.9,361.6z"/>
</svg>
