<?xml version="1.0" encoding="utf-8"?>
<!-- Generator: Adobe Illustrator 23.0.3, SVG Export Plug-In . SVG Version: 6.00 Build 0)  -->
<svg version="1.1" id="Arrow_1_" xmlns="http://www.w3.org/2000/svg" xmlns:xlink="http://www.w3.org/1999/xlink" x="0px" y="0px"
	 viewBox="0 0 500 500" style="enable-background:new 0 0 500 500;" xml:space="preserve">
<g>
	<g>
		<g>
			<path d="M251.1,138.5c-49.9,0-90.5,40.6-90.5,90.5c0,31.6,25.2,59.4,26.2,60.6c4.7,5.1,10,16,11,22.8l3.4,24.3
				c2.2,14.4,15.9,29.9,32.6,29.9h34.5c16.8,0,30.5-15.4,32.6-30l3.4-23.1c1-7,6.4-18.4,11.2-23.5c1-1.2,26.1-29.4,26.1-60.9
				C341.6,179.1,301,138.5,251.1,138.5z M315.7,229c-0.2,7-5.9,12.5-13,12.5c-7.2,0-13-5.8-13-13c0-21.4-17.4-38.8-38.8-38.8
				c-7.2,0-13-5.8-13-13c0-5.8,3.9-10.8,9.2-12.4c1.2-0.1,2.5-0.1,3.7-0.1c33.5,0,61,25.5,64.3,58c0.2,2.1,0.4,4.1,0.4,6.2
				L315.7,229L315.7,229z"/>
		</g>
	</g>
	<g>
		<g>
			<path d="M274.8,371.5l-51.7,8.6c-7,1.2-11.8,7.9-10.6,14.9c1,6.3,6.5,10.8,12.7,10.8c0.7,0,1.4-0.1,2.2-0.1l51.7-8.6
				c7-1.2,11.8-7.9,10.6-14.9C288.5,375.1,281.8,370.3,274.8,371.5z"/>
		</g>
	</g>
	<g>
		<g>
			<path d="M274.8,406l-51.7,8.6c-7,1.2-11.8,7.9-10.6,14.9c1,6.3,6.5,10.8,12.7,10.8c0.7,0,1.4-0.1,2.2-0.1l51.7-8.6
				c7-1.2,11.8-7.9,10.6-14.9C288.5,409.5,281.8,404.8,274.8,406z"/>
		</g>
	</g>
	<g>
		<g>
			<path d="M239.4,107.8c0.6,2.8,2.8,5.2,5.8,5.8c4,0.9,8.1-1.7,9-5.8l5.5-25.9c0.4-1.7,0.4-3.7,0-5.5c-1.6-7.1-8.5-11.7-15.7-10.2
				c-7.2,1.6-11.7,8.6-10.2,15.7L239.4,107.8z"/>
		</g>
	</g>
	<g>
		<g>
			<path d="M168.1,148c3.4-2.3,4.3-7,1.9-10.4l-16.9-24.8c-0.9-1.3-2.1-2.5-3.4-3.4c-6-4.1-14.2-2.5-18.3,3.4
				c-4.1,6-2.5,14.2,3.4,18.3l24.8,16.9C162.1,149.7,165.5,149.8,168.1,148z"/>
		</g>
	</g>
	<g>
		<g>
			<path d="M367.3,109.4c-6-4.1-14.2-2.5-18.3,3.4l-16.9,24.8c-1.6,2.5-1.8,5.8,0,8.5c2.3,3.4,7,4.3,10.4,1.9l24.8-16.9
				c1.3-0.9,2.5-2.1,3.4-3.4C374.8,121.7,373.2,113.5,367.3,109.4z"/>
		</g>
	</g>
</g>
</svg>
