<?xml version="1.0" encoding="utf-8"?>
<!-- Generator: Adobe Illustrator 23.0.3, SVG Export Plug-In . SVG Version: 6.00 Build 0)  -->
<svg version="1.1" id="baed4b18-14ee-447f-bd84-b0265ca0ad8a"
	 xmlns="http://www.w3.org/2000/svg" xmlns:xlink="http://www.w3.org/1999/xlink" x="0px" y="0px" viewBox="0 0 1049.6 678.6"
	 style="enable-background:new 0 0 1049.6 678.6;" xml:space="preserve">
<style type="text/css">
	.st0{fill:#85848B;}
	.st1{fill:#504F60;}
	.st2{opacity:0.2;enable-background:new    ;}
	.st3{fill:#6C63FF;}
	.st4{fill:#514E7F;}
	.st5{fill:#464353;}
	.st6{fill:#7A7A7A;}
	.st7{opacity:0.1;enable-background:new    ;}
	.st8{fill:#FBFCFA;}
	.st9{fill:#70726F;}
	.st10{opacity:0.1;fill:#70756E;enable-background:new    ;}
	.st11{fill:#F8F9F7;}
	.st12{fill:#33323D;}
	.st13{fill:#F7F5F5;}
	.st14{fill:#E8DFDF;}
	.st15{fill:#3F3D56;}
	.st16{opacity:5.000000e-02;enable-background:new    ;}
	.st17{fill:url(#SVGID_1_);}
	.st18{fill:#2D293D;}
	.st19{opacity:5.000000e-02;}
	.st20{fill:#4D4D4F;}
	.st21{fill:#676768;}
	.st22{fill:#000005;}
	.st23{fill:#575988;}
	.st24{fill:#F9F4F5;}
	.st25{fill:#F9F7F7;}
</style>
<title>wallet</title>
<rect y="670.9" class="st0" width="1049.6" height="7.7"/>
<path class="st1" d="M831.5,535.5c0,5.9-34.4,23.1-75.2,23.1s-72.7-17.2-72.7-23.1s33.1-4,74-4S831.5,529.6,831.5,535.5z"/>
<path class="st2" d="M831.5,535.5c0,5.9-34.4,23.1-75.2,23.1s-72.7-17.2-72.7-23.1"/>
<path class="st3" d="M420.1,427.2c6.6,0.8,13.5,1.4,19.9-0.7c1-0.3,2.1-1,2-2c-0.1-0.4-0.2-0.7-0.5-1c-2.4-3.6-4.4-7.4-6-11.4
	c-0.1-0.2-0.2-0.4-0.4-0.5c-0.2-0.1-0.4-0.1-0.6,0c-2.9,0.8-5.5,2.7-8.4,3.5c-1.5,0.4-3,0.5-4.6,0.3c-1.3-0.2-3.1-1.2-4.3-1.1
	C418,418.7,419.6,422.8,420.1,427.2z"/>
<path class="st3" d="M545.5,416.2c4.4-3,8.9-6.2,11.5-10.8c0.2-0.3,0.3-0.6,0.3-0.9s-0.2-0.6-0.4-0.9c-2.5-3.9-5.6-7.3-9.3-10.1
	c-1.9,1.4-3.7,3-5.2,4.8c-1.1,1.2-4.1,3-4.2,4.8c0,1,1.2,2.2,1.7,3c0.7,1.1,1.4,2.2,2.1,3.3C542.4,409.9,545.9,415.9,545.5,416.2z"
	/>
<path class="st4" d="M446.1,440.6c0.1,1-0.2,2.1-0.8,2.9c-0.5,0.5-1,0.8-1.7,1c-9.3,3.3-20-0.8-29.3,2.5c-1.9,0.7-3.7,1.6-5.6,2.3
	c-2.3,0.7-4.6,1.1-7,1.2c-3.3,0.3-6.6,0.5-9.8,0.6c-2.5,0.2-5,0-7.4-0.7c-2.5-0.6-4.5-2.3-5.7-4.5c-0.5-1-0.6-2.1-0.3-3.2
	c0.1-0.4,0.4-0.7,0.6-1c0.6-0.7,1.4-1.3,2.2-1.8l3.4-2.2c1.6-1.1,3.3-2.1,5.2-2.7c1.4-0.4,2.8-0.6,4.1-1c4.8-1.4,8.5-5.2,11.9-8.8
	l4.6-5c0.4-0.5,1-1,1.6-1.3c0.6-0.2,1.3-0.3,2-0.2c4.5,0.3,8.9,1.8,12.6,4.2c1,0.7,2,1.3,3.1,1.8c2.7,1.1,6.2,0.3,8.7-1.1
	c1.2-0.6,0.9-1,1.4-2.1s1.7-1.9,2.8-0.8c0.3,0.4,0.5,0.8,0.7,1.3c1,3.3,0.6,6.8,0.6,10.3c0,0.5,0,1.1,0.2,1.6c0.3,0.5,0.6,1,0.9,1.5
	c0.1,0.1,0.1,0.2,0.2,0.4C446.1,437.3,446.3,439,446.1,440.6z"/>
<path class="st5" d="M446.1,440.6c0.1,1-0.2,2.1-0.8,2.9c-0.5,0.5-1,0.8-1.7,1c-9.3,3.3-20-0.8-29.3,2.5c-1.9,0.7-3.7,1.6-5.6,2.3
	c-2.3,0.7-4.6,1.1-7,1.2c-3.3,0.3-6.6,0.5-9.8,0.6c-2.5,0.2-5,0-7.4-0.7c-2.5-0.6-4.5-2.3-5.7-4.5c-0.5-1-0.6-2.1-0.3-3.2
	c0.1-0.4,0.4-0.7,0.6-1c0.5,1.1,0.9,2.6,1.3,3.2c0.9,1.6,2.5,2.8,4.3,3.1c1.4,0.1,2.7-0.1,4-0.5c8.4-2.1,17.3-2.1,25.4-5.3
	c2.8-1.1,5.4-2.5,8.3-3.2s6-0.5,9-0.7c4.7-0.4,9.3-1.8,14-2.6C446.1,437.3,446.3,439,446.1,440.6z"/>
<path class="st4" d="M566.8,415.6c-0.4,3.5-2.7,6.5-5.1,9.1s-5.2,4.9-7.2,7.8c-2.4,3.7-3.5,8.2-6.6,11.3c-1.2,1.1-2.5,2.1-4,2.8
	c-1.6,1-3.4,1.8-5.2,2.4c-4.7,1.5-9.7,1.2-14.5,0.8c-1.6,0-3.1-0.3-4.6-0.9c-0.7-0.3-1.3-0.7-1.9-1.2c-1.2-0.8-2.2-1.8-3-3
	c-0.4-0.7-0.5-1.4-0.3-2.2c0.3-0.8,0.8-1.5,1.4-2.1c1.1-1.1,2.3-2.2,3.5-3.2c1.7-1.1,3.3-2.5,4.6-4c0.8-1.2,1.4-2.6,1.8-4
	c0.7-2.5,1.1-5.1,1.3-7.7c0-1.7,0.2-3.4,0.5-5.1c0.7-2.6,2.7-5,2.5-7.7c-0.1-0.4-0.1-0.8,0.1-1.2c0.2-0.3,0.6-0.5,0.9-0.6
	c1.5-0.6,3.1-1,4.8-1.1s3.3,0.5,4.4,1.7c0.7,0.8,1.1,2,2.1,2.3c0.5,0.1,1,0.2,1.5,0.1c2.5-0.3,5.1-0.6,7-2.2
	c1.8-1.6,2.9-3.9,2.9-6.4c0-0.9-0.4-1.9,1-2c1.1-0.1,1.9,1,2.4,1.7c2,2.6,4,5.3,4.7,8.5c0.3-0.1,0.6-0.2,0.9-0.2
	c1.3,0,2.5,0.6,3.2,1.6C566.7,412.5,567,414.1,566.8,415.6z"/>
<path class="st5" d="M566.8,415.6c-0.4,3.5-2.7,6.5-5.1,9.1s-5.2,4.9-7.2,7.8c-2.4,3.7-3.5,8.2-6.6,11.3c-1.2,1.1-2.5,2.1-4,2.8
	c-1.6,1-3.4,1.8-5.2,2.4c-4.7,1.5-9.7,1.2-14.5,0.8c-1.6,0-3.1-0.3-4.6-0.9c-0.7-0.3-1.3-0.7-1.9-1.2c-1.2-0.8-2.2-1.8-3-3
	c0.9-0.5,2-0.7,3-0.7c2.2,0.1,3.7,2.2,5.8,2.8c3,0.9,5.9-1.2,8.9-1.9c2-0.5,4-0.3,5.9-1c1.6-0.6,3.1-1.5,4.4-2.7
	c1.8-1.3,3.4-2.8,4.7-4.5c1.1-1.7,2-3.6,2.8-5.5c1.6-3.7,3.4-7.2,5.6-10.6c0.3-0.5,0.7-1,1.1-1.5c0.5-0.4,1-0.7,1.5-1.1
	c2-1.5,2.8-4,3.5-6.4c0.2-0.7,0.5-1.5,0.8-2.2c1.3,0,2.5,0.6,3.2,1.6C566.7,412.4,567,414,566.8,415.6z"/>
<path class="st5" d="M472.2,202.6"/>
<path class="st5" d="M403.8,255.5c1.3,5-0.6,10.3-2.1,15.2c-2.3,7.5-3.9,15.1-4.8,22.9c-0.1,2-0.5,3.9-1.2,5.8
	c-0.7,1.7-2,3.1-2.9,4.7c-2.4,4.2-2.3,9.3-1.8,14.1c0.3,3.1,0.9,6.3,1.5,9.4c0.8,3.8,1.7,7.8,0.6,11.5c1.9-0.4,3.1,2,3,3.9
	s-0.7,4,0.2,5.6c2.3,0.8,2.3,4,2.3,6.5c0,4.2,0.6,8.5,1.6,12.6c3.5,16.7,7.2,33.4,11.1,50.1c8.5,2.6,18.3,5.3,26.4,1.7
	c1.5-0.7,3-1.7,3.3-3.4c0.1-0.9,0-1.8-0.3-2.6l-3.8-13.9c-0.9-3.4-1.9-6.8-1.4-10.3c0.4-2.6,1.5-5.3,0.2-7.6
	c-0.4-0.8-1.1-1.4-1.6-2.1c-2-2.9-1-6.9-0.8-10.4c0.1-0.8,0-1.6-0.2-2.4c-0.3-0.9-0.7-1.8-1.1-2.6c-3.2-6.1-4.7-13-4.4-19.9
	c0.1-0.9,0-1.8-0.4-2.6c-0.2-0.3-0.5-0.7-0.6-1.1c-0.1-0.6-0.1-1.3,0.2-1.9c-1.1-0.9-2.2-1.9-3.1-3c2-1.3,2.6-3.9,1.4-5.9
	c-0.2-0.3-0.4-0.6-0.6-0.8c1.2-0.2,2-1.4,1.8-2.6c-0.1-0.5-0.3-0.9-0.7-1.2c-0.5-0.3-1.1-0.5-1.5-1c-0.5-0.7-0.1-1.8,0.3-2.6
	l2.3-4.2c1.7-3.1,2.1-7,4-10c2.7-4.4,4.4-9.2,6.2-14.1l6.7-18.6l4.5,3.9c1.5,1.2,2.8,2.6,3.7,4.2c0.6,1.6,1.1,3.3,1.2,5.1
	c1.7,10.1,8,18.8,10.3,28.8c0.5,2.2,0.9,4.5,2.1,6.4c0.5,0.6,0.9,1.2,1.2,1.8c0.3,1,0.5,2,0.5,3c0.4,4.1,2.6,7.8,6,10.2
	c2.2,1.5,5,2.6,6.2,5c0.2,0.7,0.6,1.5,1,2.1c1.1,1.3,3.4,1.5,3.9,3.1c0.3,0.9-0.2,2,0.3,2.8c0.3,0.4,0.7,0.7,1.1,0.8l6.5,3.3
	c7.3,3.6,11,12,16.4,18.1c1.9,2,3.5,4.2,4.9,6.5c2.3,4.1,3.4,9.4,7.3,12c1.1,0.5,2,1.3,2.8,2.1c1.2,1.6,0.8,3.9,0.9,5.9
	s1.7,4.5,3.6,3.8c-0.7,2.5-0.7,5.1,0,7.5c8.5-0.4,16.6-3.7,23.1-9.3c1.9-1.7,3.7-3.8,3.8-6.3c0-0.4-0.1-0.9-0.3-1.3
	c-0.4-0.5-0.9-0.9-1.5-1.1c-6.1-3.3-7.9-11-11-17.2c-2.7-5.5-6.7-10.2-10-15.3c-7.2-11-12.2-24.2-23.1-31.4c-2.4-1.6-5.2-3-6.4-5.6
	c-0.7-1.5-0.8-3.1-1.3-4.7s-1.8-3-3.4-3c0.9-2.2,0.7-4.9,0.8-7.3c0.1-1.1-0.1-2.1-0.4-3.1c-0.4-1.1-1-2.1-1.6-3.1
	c-2.9-4.8-4.3-10.4-4.1-16c0.1-2.9,0.6-5.9-0.3-8.6c-0.4-1.4-1.2-2.7-1.7-4c-0.8-2.4-1.2-5-1.3-7.5l-0.6-9.6
	c-0.1-3.2-0.5-6.4-1.2-9.5c-2-7.5-4-38.7-10.8-42.2s-18.6,20.5-26.3,21c-3.4,0.1-6.8,0.8-10,1.9c-5.1,1.9-9.4,5.5-13.6,9l-14.2,11.9
	C409.5,251.4,407.1,253.8,403.8,255.5z"/>
<path d="M627.4,281.6v-12.4c0-19-15.4-34.5-34.5-34.5H102.5c-19,0-34.5,15.4-34.5,34.5v22.9L627.4,281.6z"/>
<path class="st6" d="M238.9,220.1c0,0-1.4,86.9,14,115.4s22,152.9,22,152.9s161.4,16.7,273.9-20s351.9-51.7,351.9-51.7l-40.3-271.9
	c0,0-199.3-12.8-312.7,41.3S238.9,220.1,238.9,220.1z"/>
<path class="st7" d="M238.9,219.1c0,0-1.4,86.9,14,115.4s22,152.9,22,152.9s161.4,16.7,273.9-20s351.9-51.7,351.9-51.7l-40.3-271.9
	c0,0-199.3-12.8-312.7,41.3S238.9,219.1,238.9,219.1z"/>
<path class="st8" d="M274.7,251.9c0,0-5,71.7,7.6,94.6s13.3,125.1,13.3,125.1s145.3,6.7,248.6-28.4s320.5-58,320.5-58L840,162.8
	c0,0-179.7-1.9-284.6,47.7S274.7,251.9,274.7,251.9z"/>
<ellipse transform="matrix(0.9923 -0.1236 0.1236 0.9923 -35.6408 69.696)" class="st7" cx="543.9" cy="322.1" rx="37.7" ry="80.9"/>
<path class="st2" d="M751.1,12.4c0,0-193.6,49-284.9,135.3S182.7,274.8,182.7,274.8s25.3,83.1,48.7,105.6s67.8,138.8,67.8,138.8
	S458.1,485.5,553.9,416S873,258.8,873,258.8L751.1,12.4z"/>
<path class="st9" d="M179.8,262.3c0,0,25.3,83.1,48.7,105.6s67.8,138.8,67.8,138.8S455.2,473.1,551,403.6s319-157.2,319-157.2
	L748.2,0c0,0-193.6,49-284.9,135.3S179.8,262.3,179.8,262.3z"/>
<path class="st10" d="M181.8,261.3c0,0,25.3,83.1,48.7,105.6s67.8,138.8,67.8,138.8S457.2,472.1,553,402.6s319-157.2,319-157.2
	L750.2-1c0,0-193.6,49-284.9,135.3S181.8,261.3,181.8,261.3z"/>
<path class="st11" d="M223.5,281.6c0,0,17.2,69.8,36.3,87.7s51,115,51,115s140.3-38.2,227.9-103.4S826,227.4,826,227.4L734.3,23.3
	c0,0-171.6,53.4-256.2,132.7S223.5,281.6,223.5,281.6z"/>
<ellipse transform="matrix(0.9065 -0.4221 0.4221 0.9065 -65.3459 236.4298)" class="st7" cx="501.3" cy="265.8" rx="37.7" ry="80.9"/>
<path class="st7" d="M640.7,293.8v345c0,16.5-13.4,29.8-29.8,29.8l0,0h-513c-16.5,0-29.8-13.4-29.8-29.8V259
	c14.7,5.5,14.7,5.5,29.8,5h513C627.3,264,640.7,277.3,640.7,293.8z"/>
<path d="M640.7,298.2v345c0,16.5-13.4,29.8-29.8,29.8h-513C81.4,673,68,659.6,68,643.2V263.4c14.7,5.5,14.7,5.5,29.8,5h513
	C627.3,268.4,640.7,281.7,640.7,298.2z"/>
<path class="st7" d="M639.2,425.7V536h-107c-30.5-0.4-54.8-25.4-54.4-55.9c0.4-29.9,24.5-54,54.4-54.4H639.2z"/>
<path class="st12" d="M640.7,422.8v110.4h-107c-30.5-0.4-54.8-25.4-54.4-55.9c0.4-29.9,24.5-54,54.4-54.4L640.7,422.8z"/>
<circle class="st7" cx="538.8" cy="480.9" r="21.5"/>
<circle class="st13" cx="540.3" cy="478" r="21.5"/>
<path class="st14" d="M826.4,421.8c0.8,9.2-6.1,18.2-4.1,27.2c0.4,1.9,1.3,3.8,1.6,5.7c0.8,5.4-2.3,10.4-5.4,14.9L792.3,508
	c-1,1.7-2.3,3.2-3.7,4.6c-5,4.5-12.5,4-19.1,5.3c-4.6,0.9-9,2.9-12.8,5.7c-0.3,0.3-0.4,0.8-0.1,1.1c2.2,3,5.8,4.7,9.5,4.5
	c0.7,0.9,0,2.2-1,2.9c-1.4,1-3.3,1.2-3.6,3.6c-0.1,0.8,0.1,1.7,0.5,2.4c1.1,1.6,2.7,2.8,4.6,3.2c9.1,2.8,18.9-2.1,25.7-8.7
	s11.7-15,18.3-21.8c3.7-3.7,7.9-6.9,11.7-10.5c7.6-7.2,13.5-16,19.2-24.8c1.7-2.7,3.4-5.4,4.2-8.4s0.4-6.2,1.2-9.1
	c1.1-3.9,3.9-7,6.3-10.3c4.7-6.4,7.8-14.2,7.1-22.1s-5.5-15.7-12.9-18.3c-2.3-0.9-4.8-1.1-7.3-0.4c-3,0.9-5.3,3.5-7.4,5.9l-5,5.8
	c-1.2,1.3-2.2,2.8-2.9,4.4c-0.7,1.7-0.3,3.6,1,4.9"/>
<path class="st15" d="M846.3,658.9c-5.7,3.5-12.8,3.7-19.5,2.9c-1.1-0.1-2.3-0.2-3,0.6c-1,1.2,0.2,3,1.4,3.9
	c3.9,2.9,8.5,4.8,13.4,5.5c4.3,0.6,8.7,0.9,13.1,0.9c12,0.2,24,0.4,35.8-1.3c0.7-0.1,1.4-0.3,2-0.6c0.8-0.5,1.3-1.3,1.5-2.3
	c0.8-3.1-0.8-6.4-3.1-8.5s-5.4-3.3-8.3-4.5l-10.4-4c-2.4-1-6.3-3.5-9-3.3C855.1,648.6,850.4,656.5,846.3,658.9z"/>
<path class="st16" d="M846.3,658.9c-5.7,3.5-12.8,3.7-19.5,2.9c-1.1-0.1-2.3-0.2-3,0.6c-1,1.2,0.2,3,1.4,3.9
	c3.9,2.9,8.5,4.8,13.4,5.5c4.3,0.6,8.7,0.9,13.1,0.9c12,0.2,24,0.4,35.8-1.3c0.7-0.1,1.4-0.3,2-0.6c0.8-0.5,1.3-1.3,1.5-2.3
	c0.8-3.1-0.8-6.4-3.1-8.5s-5.4-3.3-8.3-4.5l-10.4-4c-2.4-1-6.3-3.5-9-3.3C855.1,648.6,850.4,656.5,846.3,658.9z"/>
<path class="st5" d="M853.5,520.9c-4.3,5.8-8.8,12.4-7.7,19.5c0.6,3.8,2.7,7.2,4.3,10.8c2.1,4.8,3.3,10,4.4,15.2
	c1.6,7.5,3.3,15.1,4.2,22.8c1.1,8.7-4.2,33.7-4.7,42.4c-0.1,2.1-0.4,4.4-1.8,5.9c-0.6,0.6-1.3,1.1-1.6,1.9c-0.2,0.8,0,1.5,0.3,2.2
	c2.4,5.5,7.4,9.6,13,11.9s19,6.4,25.1,6.6c0.8,0.1,1.6,0,2.4-0.3c0.8-0.5,1.4-1.2,1.8-2.1c4.3-8.3,0.2-37.9,0.2-47.3
	c0.1-7.8,1.9-15.6,1.6-23.4c-0.3-6.3-2-12.4-2.6-18.7c-1-10.3,0.9-20.6,2.8-30.7c1.4-7.8,2.9-15.6,4.7-23.2c1.1-4.7,2.4-9.4,5-13.5
	c2-3.2,4.8-5.9,7.1-9c6.5-8.5,9.3-19.2,8-29.7c-0.1-1-15,3.8-16.3,4.3c-5.3,2.3-10.3,5.4-14.5,9.3c-3.4,3.3-6.2,7.7-9.2,11.3
	c-4.3,5.2-8.5,10.4-12.6,15.7C862.7,508.7,858.1,514.8,853.5,520.9z"/>
<path class="st16" d="M853.5,520.5c-4.3,5.8-8.8,12.4-7.7,19.5c0.6,3.8,2.7,7.2,4.3,10.8c2.1,4.8,3.3,10,4.4,15.2
	c1.6,7.5,3.3,15.1,4.2,22.8c1.1,8.7-4.2,33.7-4.7,42.4c-0.1,2.1-0.4,4.4-1.8,5.9c-0.6,0.6-1.3,1.1-1.6,1.8c-0.2,0.8,0,1.5,0.3,2.2
	c2.4,5.5,7.4,9.6,13,12s19,4.5,25.1,4.7c0.8,0.1,1.6,0,2.4-0.3c0.8-0.5,1.4-1.2,1.8-2.1c4.3-8.3,0.2-36,0.2-45.4
	c0.1-7.8,1.9-15.6,1.6-23.4c-0.3-6.3-2-12.4-2.6-18.7c-1-10.3,0.9-20.6,2.8-30.7c1.4-7.8,2.9-15.5,4.7-23.2c1.1-4.7,2.4-9.4,5-13.5
	c2-3.2,4.8-5.9,7.1-9c6.5-8.5,9.3-19.2,8-29.7c-0.1-1-15,3.8-16.3,4.3c-5.3,2.3-10.3,5.4-14.5,9.4c-3.4,3.3-6.2,7.7-9.2,11.3
	c-4.3,5.2-8.5,10.4-12.6,15.7C862.7,508.4,858.1,514.4,853.5,520.5z"/>
<circle class="st14" cx="805.4" cy="369.7" r="24.3"/>
<path class="st14" d="M827.2,368.7c4.5,7.2,11.8,12.3,20.2,14.1l-1.8,6.6c-3.2,11.4-6.7,23.5-15.5,31.4c1-3.9-0.3-8-2.5-11.4
	s-5.2-6-8.2-8.6l-14-12.1c-0.4-0.3-0.7-0.7-1-1.2c-0.3-0.9-0.3-1.8,0-2.7c1.8-5.5,6.9-9,11-12.7c2.1-1.9,3.9-4.1,5.5-6.4
	C823.7,361.8,825.4,365.8,827.2,368.7z"/>
<path class="st5" d="M773.4,345.3l-0.5-4.6c3.8,1,7.5-2.3,9.9-5.6s4.7-7.3,8.5-8.8c4.5-1.7,9.3,1,13.7,3.3
	c4.8,2.7,10.2,4.4,15.7,5.1c0.9,0,1.7,0.2,2.6,0.4c2.8,1,4.2,4.5,4.6,7.8s0.3,6.6,1.7,9.5c1,2.2,2.9,3.8,4,5.9
	c3,5.7,0.1,13.6,3.2,19.2l-7.8-7.1c-0.7-0.6-1.7-1.3-2.5-0.8c-0.6,0.4-0.7,1.4-0.9,2.1c-0.8,2.2-3.5,2.9-5.5,2s-3.5-2.8-5-4.5
	c-3.4-4.1-7.5-7.6-12.3-9.4c-4.3-1.6-9-1.3-13,0.9c-3.6,2-6.3,6.8-10.7,7c-6.1,0.2-8.6-11.1-11.5-15.6c2.1-1.6,2.8-4.5,1.6-6.9
	C769.3,345.1,773.3,344.6,773.4,345.3z"/>
<ellipse class="st1" cx="757.6" cy="535.5" rx="74" ry="10.7"/>
<linearGradient id="SVGID_1_" gradientUnits="userSpaceOnUse" x1="790.6093" y1="661.6445" x2="790.6093" y2="1150.2987" gradientTransform="matrix(1 0 0 -1 -84.46 1207.77)">
	<stop  offset="0" style="stop-color:#808080;stop-opacity:0.25"/>
	<stop  offset="0.54" style="stop-color:#808080;stop-opacity:0.12"/>
	<stop  offset="1" style="stop-color:#808080;stop-opacity:0.1"/>
</linearGradient>
<path class="st17" d="M821.2,536c-1.3-5.6-2.1-10.5-2.1-10.5s0.3-6.1-2.4-10.6v-1.5l0,0v-11.2c0.8-2,1.7-4,2.8-5.9
	c2-3.5,0-16.4,0-16.4s-7.5-18.2-5.7-29.7S798.5,399,798.5,399c0.1-3.8,0.6-7.6,1.6-11.3c0.2-0.8,0.3-1.6,0.2-2.4c0-0.1,0-0.2,0-0.3
	s0,0.1,0,0.1c-0.3-7.6-6.3-21.9-6.3-21.9l0.8-27.2c0,0,3.8-16-2.4-37.5c-2.2-7.5-3.6-13.5-4.5-18.2c-0.1-0.5-0.2-1-0.3-1.5
	c12.9-2,22.7-3.6,22.7-3.6s-7.5-31.3-12.5-36.8s-9.1-22.7-9.1-22.7s-2.6-22.1,1.6-28.5s4.8-17.6,4.8-17.6s9.7-7,10.9-10.2
	s3.2-10.2,3.2-13.9s-1.2-7-0.8-9s-2.8-9.4-1.2-12.9c0.4-1.1,0.6-2.2,0.6-3.4v-0.1l0,0c0-3.1-0.3-6.2-0.8-9.2
	c-2.8-2.4-6.1-4.1-9.6-5.1l-0.2-0.8l-0.5-2.2c-0.3-0.2-0.6-0.4-1-0.6v-0.8l-0.1-3.2l1.5-7.1c3-12.4-13.6-14.3-13.6-14.3
	c-1-1.9-2.7-3.4-4.7-4.1c-3.3-1.2-0.5,18.7,1,20c1.2,1,4.8,7.2,6.5,10.2l0,0l0.3,0.5c-0.3,0.2-0.5,0.5-0.8,0.8l0.6,4.3l0.1,0.7
	c-1.1,1.4-2,2.9-2.7,4.5c0,0,3,3.3,2.4,7s0.9,8.4,1,8.6c-0.2-0.2-2.3-2.5-4.4-2s-8.1,2.3-8.1,2.3s-4.4,0.8-4,1.8s-3,5.3-3,5.3
	l-11.9-11.3c-0.1-0.3-0.3-0.7-0.3-1c-0.5-1.6-0.8-3.3-1-5c1.3-0.3,2.6-0.7,3.8-1.2c1.3-0.4,2.4-1.2,3.3-2.1c1.2-1.4,1.4-3.4,1.9-5.1
	c0.9-3.5,3-6.6,4.4-9.9c2.4-5.6,3.2-11.8,2.3-17.8c-0.2-1.9-0.8-3.6-1.8-5.2c-2-2.7-5.5-3.8-8.1-5.9s-4.2-5.4-7.2-7
	c-2.7-1.4-6-1.3-9.1-0.8c-6,1-11.7,3.1-16.9,6.2c-1.7,1-3.7,2.2-5.7,1.9c-1.7-0.3-3-1.7-4.1-3c0-0.1,0-0.1,0-0.2
	c0,0-0.1-0.1-0.1-0.2c-1.3,2.8-1.9,5.9-1.9,8.9c0,0.5,0,1,0.1,1.4V80c0,0.1,0,0.3,0,0.4l0,0c0,0.2,0,0.4-0.1,0.6
	c-0.3,0.6-0.6,1.2-1.1,1.6c-0.4,0.4-0.7,0.9-1,1.3c0-0.2,0.1-0.3,0.2-0.5c-0.8,1.1-1.2,2.4-1.2,3.8c-0.1,1,0.3,1.9,0.9,2.7
	c0.6,0.6,1.3,1.1,2,1.6c-0.2,1.3-0.4,2.7-0.4,4c0,8.1,4.3,15.6,11.3,19.7c0.1,0.3,0.3,0.7,0.4,1c1.5,4,2.7,8.7,2.2,13
	c0,0.3-0.1,0.6-0.1,0.9s-0.3,0.3-0.4,0.5l0,0c0,0-19.7,0.2-24.4-4c-4.6-4.2-11.7,10.3-11.7,10.3s-7.1,1.4-8.5,0s-9.7-0.2-9.7-0.2
	c-3.4-3-7.8-4.6-12.3-4.5c-2.7-2.1-5.8-3.8-9-5l0,0l-0.2-0.1l0,0c-1.4-0.5-2.9-0.7-4.5-0.6c0,0-9.7-8-12.5-12.3S619.2,94,619.1,93.9
	v-0.8l-0.2-2.3c-0.4,0.1-0.8,0.1-1.2,0.1c-0.1-0.2-0.2-0.5-0.3-0.8c-0.8-2.3-1.7-4.5-2.9-6.6c0,0,0-2.9,0.8-3.7S615,68.3,615,68.3
	s-8.7-20.4-16.6-5.2c0,0-14.8,9.9-2.4,21.4c0,0,5,2.4,5.7,4.3c0.5,1.2,2.1,4.7,3.3,7l0.5,1l-0.1,0.1l0.2,1.9l0.1,0.7
	c-2.3,1.3-3.9,2.6-3.5,3.6c0.7,1.7,1.2,3.5,1.4,5.3c0,0,17.2,21.5,19.4,30.7c0,0,46.1,27.4,61.2,29.3l-2.7,13.7
	c-0.4,3.7-0.6,7.4-0.6,11.1c0.2,2.9-1.8,16.2-1.8,16.2s-2.6,19.6-4.8,22.3s-1.8,14.5-1.8,14.5c-0.5,5.6-1.5,11.2-3,16.6
	c-2.2,7.4-0.6,16.6-0.6,16.6s-7.7,17.6,10.7,5.7c0,0,9-0.6,19.4-0.9c0,0.3,0,0.7,0,1c0,1.3,0,2.8-0.1,4.3c-0.1,10.1-0.2,24,0.3,34.5
	c0.8,18.6,6.5,55.4,6.5,55.4v18.5c-0.4,1.7-0.5,3.5-0.5,5.3c-0.1,6.5,1.6,12.9,5,18.5l1.4,12.3c0,0,3.3,8.1,3.4,13
	c0,0.4-0.1,0.8-0.1,1.2c-0.1,0.6-0.2,1.3-0.2,1.9c-0.2,5.6,3.2,19,3.2,19s0.2,13.5,2.2,14.3c1.7,0.7-2.3,7.8-3.5,9.8
	c0-0.1-0.1-0.3-0.1-0.4l-0.3,0.4c-0.4,1.1-0.6,2.3-0.6,3.4c-0.2,1.9,0.6,3.7,2.2,4.7c3.8,2.3,5.9,4.3,2.6,5.1
	c-1.2,0.2-2.4,0.4-3.6,0.8c0-0.2-0.1-0.3-0.2-0.5c-0.9,0.4-1.5,1.4-1.3,2.4c0,1.6,0.4,3.1,1.2,4.5c3.2,7.2,5.5,10,5.5,10l1.5-0.2
	c-0.2,0.6-0.5,1.2-0.9,1.7c-0.6,0.8-1.4,1.5-2.3,2c-0.8,0.5-1.8,0.8-2.8,1c-2.2,0.1-4.3,1.1-5.7,2.8c-2,2.6-3.3,6.2,0.7,9.3l14.5,5
	c0,0,24.9,3.2,23.5-2.3s-2.1-10.5-2.1-10.5c0.1-3.4-0.6-6.8-2-9.9c-0.3-0.5-0.6-1-0.9-1.5l0.9-0.1c0,0,1.8-12.3,4.2-14.7
	c0.6-0.5,0.7-1,0.6-1.3c0.3-0.7-0.4-1.1-1.2-1.3l-0.2,0.5c-0.8-0.2-1.6-0.3-2.4-0.3c0,0-0.8-6.5,1.8-8.8c0.4-0.5,0.6-1.2,0.5-1.9
	c0-0.9-0.1-1.8-0.3-2.6c0,0.1-0.1,0.1-0.1,0.2c-1.3-5.9-5.8-15.2-5.8-15.2s-0.2-5.9,1.4-8.2s-0.2-31.9-0.2-31.9s0.6-14.3-1.2-20.9
	s2.2-14.5,2.2-14.5s0-0.2,0-0.4v-0.1l-0.2-2.3v0.1c-0.4-3.8-1.2-10.6-1.8-13.8c-0.8-4.5,0.2-26,0.2-26l3.6-9.2l6.5,15.9l6.9,21.1
	c0,0,3.4,4.5,3.5,9c0,0.2,0,0.4,0,0.7c-0.1,0.5-0.1,0.9-0.1,1.4c-0.1,2.7,0.6,5.3,2.1,7.5c0,0,1.8,10,4.7,12.5s2.8,7.4,2.8,7.4
	s3.4,14.5,5,17c1.4,2.1,1.4,8,1.4,9.8l0,0c0,0.3,0,0.5,0,0.5s0.5,5.2,0.5,9.5c0,0.5,0,1.1,0,1.5V462c0,1.2-0.1,2.4-0.4,3.5l-0.1,0.2
	c0-0.3,0-0.5,0.1-0.7c-0.7,2.9-1,6-1,9c-0.1,5.2,0.7,11.4,3.8,15c5.5,6.3,8.9,5.5,8.9,5.5s-2.6,7.8-5.9,9.4
	c-0.1,0.1-0.2,0.1-0.3,0.2c0-0.2-0.1-0.3-0.1-0.5c-0.7,0.8-1.1,1.8-1,2.9c-0.2,3.4,1.9,9,4,11.6c0.8,0.7,1.7,1.3,2.7,1.6
	c-0.2,0.1-0.3,0.2-0.5,0.3c-0.4,0.2-0.7,0.4-1.1,0.5c-0.5,0.2-1.1,0.4-1.7,0.4c-2.2,0.1-4.3,1.1-5.7,2.8c-2,2.6-3.3,6.2,0.7,9.3
	l14.5,5C797.8,538.4,822.5,541.6,821.2,536z"/>
<path class="st18" d="M726.3,545.3l-14-5c-3.9-3.1-2.6-6.7-0.7-9.3c1.4-1.7,3.4-2.7,5.5-2.8c0.9-0.1,1.9-0.4,2.7-1
	c0.9-0.5,1.6-1.2,2.2-2c1-1.6,1.6-3.5,1.6-5.4c0,0,15.4-4.5,19.6,0c0.7,0.8,1.4,1.7,1.9,2.7c1.4,3.1,2.1,6.5,2,9.9
	c0,0,0.8,4.9,2,10.5S726.3,545.3,726.3,545.3z"/>
<path class="st18" d="M794.8,538.4l-14-5c-3.9-3.1-2.6-6.7-0.7-9.3c1.3-1.7,3.4-2.7,5.5-2.8c0.6-0.1,1.1-0.2,1.6-0.4
	c0.4-0.2,0.7-0.3,1.1-0.5c3.9-2.2,3.8-7.4,3.8-7.4s15.3-4.5,19.6,0c0.6,0.6,1.1,1.3,1.5,2c2.6,4.5,2.3,10.6,2.3,10.6s0.8,4.9,2,10.5
	S794.8,538.4,794.8,538.4z"/>
<path class="st7" d="M743.2,519.8c0.7,0.8,1.4,1.7,1.9,2.7l0,0l-23,2.7c1-1.6,1.6-3.5,1.6-5.4C723.7,519.8,739,515.3,743.2,519.8z"
	/>
<path class="st7" d="M813.2,514.9v4.3c-3.6,5.9-20.9,4.6-25.9,1.7c0.4-0.2,0.7-0.3,1.1-0.5c3.9-2.2,3.8-7.4,3.8-7.4s15.3-4.5,19.6,0
	C812.3,513.5,812.7,514.2,813.2,514.9z"/>
<path class="st5" d="M815.9,496.4c-1.1,1.9-2,3.8-2.7,5.9v15.5c-3.9,6.5-24.3,4.3-27,0.8s-5.6-12.7-2.5-14.3s5.7-9.4,5.7-9.4
	s-3.3,0.8-8.6-5.5s-3.7-20.1-2.7-23.5s0-14.5,0-14.5s0.2-7.8-1.4-10.4s-4.9-17-4.9-17s0-4.9-2.7-7.4s-4.5-12.5-4.5-12.5
	c-1.6-2.5-2.3-5.5-2-8.4c0.6-4.9-3.3-10.2-3.3-10.2l-6.7-21.1l-6.3-15.8l-3.5,9.2c0,0-1,21.5-0.2,26s2,16.4,2,16.4
	s-3.9,7.8-2.2,14.5s1.1,20.9,1.1,20.9s1.8,29.5,0.2,31.9s-1.4,8.2-1.4,8.2s8,17.2,5.5,19.5S746,504,746,504s5.5,0,3.1,2.3
	S745,521,745,521l-23.7,2.8c0,0-2.2-2.7-5.3-10s0.6-6.5,3.7-7.2s1.2-2.7-2.6-5.1s-1.6-7.6-1.6-7.6s5.7-9.6,3.7-10.4
	s-2.2-14.3-2.2-14.3s-3.9-16-2.9-20.3s-3.1-14.7-3.1-14.7l-1.4-12.3c-4.2-7-5.7-15.3-4.3-23.3v-19c0,0-5.5-36.8-6.3-55.3
	c-0.5-11.9-0.4-28.1-0.2-38.3c0.1-5.7,0.2-9.5,0.2-9.5l84.5-8.8c0,0-0.1,3.9,1.5,12.5c0.9,4.6,2.2,10.6,4.3,18.2
	c6.1,21.5,2.3,37.5,2.3,37.5l-0.8,27.2c0,0,7.4,18.2,5.9,24.4c-0.9,3.7-1.5,7.5-1.6,11.4c0,0,16.6,39.7,14.9,51.2s5.5,29.7,5.5,29.7
	S817.8,492.8,815.9,496.4z"/>
<path class="st16" d="M767.6,394.5l25.7-3.4C793.3,391,778.7,405.9,767.6,394.5z"/>
<path class="st7" d="M789.6,365.9c0,0,0.9,9.1-4.7,12.5C784.9,378.4,794.9,376.9,789.6,365.9z"/>
<path class="st7" d="M788,337c0,0-21.5,17.7-29.3,16.2S788,337,788,337z"/>
<path class="st7" d="M735.7,402.8c0,0-16.3,3.7-16.8,10.3S735.7,402.8,735.7,402.8z"/>
<path class="st16" d="M739.3,484.3c0,0-23.1,4.3-16.5,7.2s17.3,5.3,17.3,5.3S747.5,497.2,739.3,484.3z"/>
<g class="st19">
	<path d="M718.1,496.2c-1.2-0.7-2-2-2.1-3.3l-0.2,0.4c0,0-2.2,5.3,1.6,7.6c0.4,0.3,0.8,0.5,1.2,0.8c0.7-0.1,1.4-0.2,2.1-0.4
		C723.8,500.5,721.8,498.6,718.1,496.2z"/>
	<path d="M747.8,494.6c0.6-0.6,0.6-2.1,0.2-4c-1,1.5-1.3,3.9-1.3,5.7C747,495.7,747.4,495.1,747.8,494.6z"/>
	<path d="M744.3,397.4c-0.8,2.3-1.4,4.7-1.6,7.2c0.4-1.7,1-3.4,1.8-4.9L744.3,397.4z"/>
	<path d="M797.1,387.1c0.2-0.7,0.2-1.4,0.2-2.1c-0.3,1.5-0.5,2.8-0.6,4C796.8,388.3,797,387.8,797.1,387.1z"/>
	<path d="M743.7,466.9c0.3-0.5,0.5-2.1,0.6-4.3c-0.7,1.7-1.1,3.6-1.1,5.5C743.3,467.6,743.5,467.2,743.7,466.9z"/>
	<path d="M748.5,503.8c-1.2,3.9-2.1,7.9-2.7,12l-23.7,2.7c0,0-2.2-2.7-5.3-10c-0.3-0.6-0.5-1.1-0.7-1.7c-1.4,0.7-2,2.1-0.1,6.4
		c3.1,7.2,5.3,10,5.3,10l23.7-2.7c0,0,1.8-12.3,4.1-14.7C750.4,504.6,749.6,504.1,748.5,503.8z"/>
	<path d="M717.3,468.6c0,0,0.2,13.5,2.2,14.3l0,0c1-2.2,1.7-4.3,0.8-4.7c-2-0.8-2.2-14.3-2.2-14.3s-3.9-16-2.9-20.3
		s-3.1-14.7-3.1-14.7l-1.4-12.3c-4.2-7-5.7-15.3-4.3-23.3v-19c0,0-5.5-36.8-6.3-55.3c-0.5-11.9-0.4-28.1-0.2-38.3
		c0-1.8,0.1-3.5,0.1-4.8l-0.7,0.1c0,0-0.1,3.8-0.2,9.5c-0.2,10.1-0.3,26.4,0.2,38.3c0.8,18.6,6.3,55.4,6.3,55.4v19
		c-1.4,8,0.1,16.3,4.3,23.3l1.4,12.3c0,0,4.1,10.4,3.1,14.7S717.3,468.6,717.3,468.6z"/>
	<path d="M787,513.2c-1.9-2.8-3.2-6-3.8-9.3c-2.4,2.2,0.4,10.6,3,14c2.7,3.5,23.1,5.7,27-0.8v-3.7
		C807.9,518.7,789.5,516.6,787,513.2z"/>
	<path d="M816.7,491.1c-1.1,1.9-2,3.8-2.7,5.9v2.8c0.5-1,1.1-2.3,2-3.9c0.6-1.5,0.9-3.2,0.9-4.8C816.8,491,816.7,491.1,816.7,491.1z
		"/>
	<path d="M788.2,494.2c0.7-1.5,1.4-3.1,1.9-4.7c0,0-3.3,0.8-8.6-5.5c-3.8-4.5-4.1-13.2-3.5-18.8c-1,3.3-2.5,17.2,2.7,23.5
		C784.1,492.9,786.8,494,788.2,494.2z"/>
	<path d="M778,450.9c0.3,3.9,0.5,7.7,0.4,11.6c0.1-0.6,0.2-1.2,0.4-1.8c1-3.3,0-14.5,0-14.5s0.2-7.8-1.4-10.4s-4.8-17-4.8-17
		s0-4.9-2.7-7.4s-4.5-12.5-4.5-12.5c-1.6-2.5-2.3-5.5-2-8.4c0.6-4.9-3.3-10.2-3.3-10.2l-6.7-21.1l-6.3-15.8l-3.5,9.2
		c0,0,0,1.2-0.1,3l2.9-7.5l6.3,15.8l6.7,21.1c0,0,3.9,5.3,3.3,10.2c-0.3,3,0.4,5.9,2,8.4c0,0,1.8,10,4.5,12.5s2.7,7.4,2.7,7.4
		s3.3,14.5,4.9,17S778,450.9,778,450.9z"/>
</g>
<path class="st14" d="M794.4,91l-1.5,7.1l0.1,3.2l0.1,2.3l-8.2,0.8l-0.9-1.7l0,0c-1.7-3.1-5.2-9.3-6.3-10.2
	c-1.5-1.3-4.2-21.1-1-19.9c2,0.8,3.6,2.2,4.5,4.1C781.2,76.8,797.3,78.6,794.4,91z"/>
<path class="st7" d="M793.1,103.7l-8.2,0.8l-0.9-1.7l0,0c2.3-2.6,6-3.2,9-1.5L793.1,103.7z"/>
<path class="st20" d="M795.1,107.6l-10.8,2.5l-0.2-1.6l-0.6-4.3c0,0,4.3-5.7,10.4-1.4l0.5,2.2L795.1,107.6z"/>
<path class="st14" d="M620.8,91.8L609.3,98l-1-2.2c-1.1-2.3-2.7-5.7-3.2-7c-0.7-1.9-5.5-4.3-5.5-4.3c-12-11.5,2.3-21.4,2.3-21.4
	c7.6-15.3,16,5.2,16,5.2s1.2,10.8,0.3,11.5s-0.8,3.7-0.8,3.7c1.1,2.1,2,4.3,2.8,6.6C620.6,91.2,620.8,91.8,620.8,91.8z"/>
<path class="st7" d="M620.8,91.8L609.3,98l-1-2.2c1.6-1.4,7.4-6,9.3-5.8c0.9,0.1,1.8,0.1,2.7,0.1C620.6,91.2,620.8,91.8,620.8,91.8z
	"/>
<path class="st21" d="M622,95.3l-12.9,6.4l-0.3-2.8l-0.2-1.9c0,0,7.5-6.4,9.7-6.2c1.1,0.2,2.3,0.2,3.4,0l0.2,2.3L622,95.3z"/>
<path class="st14" d="M763.1,138.5c0,0-56.3,6.4-45.8,2.9c7.3-2.4,10.2-7,10.8-12.2c0.5-4.3-0.6-9-2.1-13c-1.3-3.5-3-7-5-10.2
	c0,0,43-23.7,34.4-2.1c-1.3,3.3-2.1,6.7-2.4,10.2c-0.3,3.5,0.1,7,1.1,10.3C755.8,129.8,758.9,134.7,763.1,138.5z"/>
<path class="st7" d="M755.5,103.9c-1.3,3.3-2.1,6.7-2.4,10.2c-4,3.4-8.5,3.2-14.2,3.2c-4.4,0-9.2,1.1-12.7-1.1c-1.3-3.5-3-7-5-10.2
	C721.1,106,764.1,82.3,755.5,103.9z"/>
<circle class="st14" cx="738.1" cy="95.5" r="23.3"/>
<path class="st7" d="M763.1,138.5c0,0-56.3,6.4-45.8,2.9c7.3-2.4,10.2-7,10.8-12.2c2.8-3,8.4-5.2,12-6.4c3.3-1.1,6.9-1.2,10.2-0.2
	c1.3,0.4,2.6,1,3.7,1.7C755.7,129.8,758.8,134.7,763.1,138.5z"/>
<path class="st7" d="M795.1,107.6l-10.8,2.5l-0.2-1.6c2.4-3.2,6.5-4.7,10.3-3.5L795.1,107.6z"/>
<path class="st7" d="M622,95.3l-12.9,6.4l-0.3-2.8c4.2-2.2,8.5-4.2,13-5.8L622,95.3z"/>
<path class="st7" d="M785.3,280.3c-21.8,3.5-52.8,7.9-57.7,6.4c-4.1-1.2-17.1-1.1-28.5-0.7c0.1-5.7,0.2-9.5,0.2-9.5l84.5-8.8
	C783.8,267.7,783.7,271.6,785.3,280.3z"/>
<path class="st22" d="M807.1,275.2c0,0-71.8,12.3-79.5,10s-47.3,0.2-47.3,0.2c-17.8,11.9-10.4-5.7-10.4-5.7s-1.6-9.2,0.6-16.6
	c1.4-5.5,2.4-11,3-16.6c0,0-0.4-11.7,1.8-14.5s4.7-22.3,4.7-22.3s2-13.3,1.8-16.2s0.6-11.1,0.6-11.1l2.5-13.7
	c-14.7-2-59.3-29.3-59.3-29.3c-2.2-9.2-18.8-30.7-18.8-30.7c-0.2-1.8-0.7-3.6-1.4-5.3c-1.2-3.1,16.4-9.4,16.4-9.4s13.1,16,15.8,20.3
	s12.1,12.3,12.1,12.3c1.5-0.1,2.9,0,4.3,0.6l0.2,0.1l0,0c3.1,1.2,6.1,2.9,8.8,5c4.4-0.1,8.7,1.5,11.9,4.5c0,0,8-1.2,9.4,0.2
	s8.2,0,8.2,0s6.8-14.5,11.3-10.3s23.6,4,23.6,4c2.5-3.4,8.7-5.8,12.6-7c3.3-1.1,6.9-1.2,10.2-0.2c1.4,0.4,2.8,1.1,4,2l11.6,11.3
	c0,0,3.3-4.3,2.9-5.3s3.9-1.8,3.9-1.8s5.7-1.8,7.8-2.4s4.1,1.7,4.3,1.9c-0.1-0.3-1.5-5-1-8.6s-2.3-7-2.3-7
	c6.8-16.8,22.3-2.7,22.3-2.7s1.8,9.2,0.2,12.7s1.6,11,1.2,12.9s0.8,5.3,0.8,9s-2,10.8-3.1,13.9s-10.6,10.2-10.6,10.2
	s-0.6,11.1-4.7,17.6s-1.5,28.5-1.5,28.5s3.9,17.2,8.8,22.7S807.1,275.2,807.1,275.2z"/>
<path class="st7" d="M702.5,146.5c0,0-2.2-6.5-4.1-7c-1.9-0.7-3.8-1.6-5.7-2.5l1.3-2.4c0,0,7.3,2,8.5,4.2S702.5,146.5,702.5,146.5z"
	/>
<path class="st7" d="M663.2,132.2c-0.4,2-17.8,3.7-17.8,3.7l8.8-8.8l0,0l0.2,0.1l0,0C657.5,128.4,660.5,130.1,663.2,132.2z"/>
<circle class="st23" cx="612.8" cy="105.4" r="1.6"/>
<circle class="st23" cx="614.8" cy="108.5" r="1.6"/>
<circle class="st23" cx="616.8" cy="111.4" r="1.6"/>
<circle class="st23" cx="618.8" cy="114.5" r="1.6"/>
<circle class="st23" cx="803.2" cy="114.3" r="1.3"/>
<circle class="st23" cx="803.3" cy="117.2" r="1.3"/>
<circle class="st23" cx="803.5" cy="120.1" r="1.3"/>
<path class="st7" d="M702.5,199.5c-0.2-0.2,43.9,55.4,78.1,23.3C780.7,222.8,726.6,230.1,702.5,199.5z"/>
<path class="st7" d="M677.2,228.4c0,0,26.4,0.7,29.1,8.3v7.9c-1.5,0.8-3.4,0.8-4.9,0c-2.7-1.4-18.6-9.5-24.2-5.6L677.2,228.4z"/>
<path class="st15" d="M677.7,228.4c0,0,25.2,0.7,27.9,7.9v7.5c-1.5,0.8-3.2,0.8-4.7,0c-2.5-1.4-17.8-9.1-23.2-5.4V228.4z"/>
<path class="st7" d="M691.6,171.1c2.7,6.2,6.1,12.1,10.2,17.5c4.5,6,9.9,11.2,16,15.5C717.9,204.2,692.1,174.8,691.6,171.1z"/>
<path class="st7" d="M683,140.5c0,0,4.4,19,15.7,25.5L683,140.5z"/>
<path class="st7" d="M676.3,142.4c-0.1-0.4-3.9,15,14.6,23.5C690.9,165.9,683,163.3,676.3,142.4z"/>
<path class="st7" d="M791.4,129.7c-0.3,0,9.1,6,11.7,8.8C803.2,138.5,797,129.3,791.4,129.7z"/>
<path class="st18" d="M731.8,116.5c0,2,1.7,3.7,3.7,3.6c0.1,0,0.2,0,0.3,0c7.1,0.4,14.5,0.8,21-2c1.2-0.4,2.3-1.2,3.2-2.1
	c1.2-1.4,1.4-3.4,1.9-5.1c0.9-3.5,2.9-6.6,4.3-9.9c2.4-5.6,3.2-11.7,2.3-17.8c-0.2-1.8-0.8-3.6-1.8-5.2c-1.9-2.7-5.3-3.8-7.8-5.9
	s-4.1-5.4-7-7c-2.6-1.5-5.8-1.3-8.8-0.8c-5.8,1-11.4,3.1-16.4,6.1c-1.7,1-3.5,2.2-5.5,1.9c-1.7-0.3-2.9-1.8-4-3.1
	c-1.4,3.2-1.9,6.7-1.7,10.1c0.1,0.5,0.1,1,0,1.5c-0.2,0.6-0.6,1.2-1.1,1.6c-1.8,2-2.8,5.3-1.1,7.3c0.8,0.9,1.9,1.4,2.6,2.3
	c1.3,1.6,0.9,4,0.8,6.1c-0.1,0.7,0.1,1.5,0.5,2.1c0.8,0.7,1.9,1,2.9,0.7s2-0.4,3.1-0.3c1.1,0.4,2,1.1,2.7,2
	C729.1,106.9,730.4,111.5,731.8,116.5z"/>
<path class="st7" d="M727.6,130.6c0,0,29.1,3.9,31.7-0.5"/>
<path class="st7" d="M784.1,118.6c0,0,16.2,0,19.7,6.1"/>
<path class="st15" d="M874.5,658.8c-4.8,4.3-11,6.6-17.5,6.5c-1.6,0-3.9,0.3-3.9,2c0,0.5,0.2,0.9,0.5,1.3c2,3.4,5.2,5.9,9,7.1
	c3.5,1.1,7.2,0.9,10.9,0.7l10.7-0.5c2-0.1,4-0.2,6-0.5s4.2-0.7,6.3-1c5.1-0.7,10.3-1,15.5-0.7c1.4,0,3,0,3.8-1s0.4-2.9,0.1-4.4
	c-0.6-3.1,0-6.3-0.6-9.4c-1-5.4-5.7-9.6-10.9-11.6c-4.8-1.8-13.3-3.9-17.8-0.9C881.8,649.5,878.9,654.8,874.5,658.8z"/>
<path class="st5" d="M885.1,476.5c0.9,4.5,5.3,7.9,5.4,12.5c0.1,3.7-2.5,6.7-4.4,9.9c-1.8,3.2-3.3,6.6-4.5,10.1
	c-3.5,9.1-7.9,17.8-13.1,26.1c-2.5,4-5.3,8.3-4.7,12.9c0.4,2.2,1.2,4.3,2.3,6.2l7.5,14.9c1.6,3,2.9,6.1,3.8,9.4
	c0.7,2.8,0.7,5.8,1.1,8.6c1.2,9.1,5.5,18.3,2.9,27.2c-0.2,0.8-1,1.7-1.6,1.2c2.5,4.6,4.5,9.3,4.3,14.5c-0.1,2.8-0.9,5.6,0.1,8.2
	c0.4,1.1,1.2,2.1,1.2,3.2c0,0.8-0.3,1.5-0.4,2.2c-0.2,2.1,1.7,3.9,3.7,4.5s4.2,0.6,6.2,1.2c3.9,1.2,6.7,4.5,10,6.9
	c3.4,2.3,7.4,3.6,11.5,3.8c0.6,0.1,1.2-0.1,1.7-0.3c0.6-0.5,0.9-1.3,0.9-2.1c0.4-3.8-1.2-7.5-4.1-9.9c-0.6-0.4-1.2-0.9-1.5-1.6
	c-0.2-0.6-0.2-1.2-0.1-1.8c0.6-8.2,0.5-16.4-0.4-24.6c-0.4-2.6-0.5-5.2-0.4-7.8c0.2-2.2,0.9-4.3,0.6-6.5s-1.3-4.2-2-6.2
	c-1.2-3.7-0.8-7.7-1-11.6c-0.2-6.8-1.8-13.4-3.3-20c-0.6-2.6-1.3-5.3-3.1-7.2c-1.6-1.6-4.1-3.2-3.5-5.4c0.3-0.8,0.8-1.5,1.4-2.1
	c1.5-1.8,2.1-4.2,1.8-6.5c1.4,0.3,2.8-0.3,3.4-1.6c12.2-5.8,22-17.3,26.4-30c0.3-0.9,0.7-1.9,1.2-2.7c1.1-1.6,3.1-2.3,4.8-3.1
	c5.5-2.8,9.2-7.9,12.7-12.9c2-2.9,4-5.9,4.9-9.4c0.5-2.2,0.7-4.5,0.7-6.8l0.3-11.8c0.1-0.8,0-1.6-0.2-2.3c-0.3-0.7-0.7-1.3-1.3-1.9
	c-3.3-3.5-7.7-5.9-12.5-6.7c-3.2-0.6-6.5-0.5-9.7-0.7c-6.3-0.5-12.5-2.5-18.8-2c-9.9,0.7-18.7,7.6-23.3,16.3
	C890.3,473.8,888.6,476.4,885.1,476.5z"/>
<path class="st24" d="M830.3,400.1c0.1,1.8-0.1,3.6-0.7,5.3c-0.8,1.6-2.7,2.9-4.4,2.3c0.5-1.2-0.8-2.5-2.1-2.3
	c-1.3,0.3-2.3,1.2-2.8,2.4c-0.8,1.7-1.1,3.6-0.8,5.4c0.4,2.3,1.7,4.5,1.4,6.8c-0.3,1.9-1.7,3.8-0.9,5.6c0.5,0.8,1.1,1.5,1.8,2.2
	c2.1,2.5,1.8,6.2-0.7,8.4l18.9,0.4c-0.7,3.2,0.7,6.4,2.3,9.2c9.2,15.7,25.2,26.1,43.2,28.2c-1.8,1-2.4,3.3-1.4,5.1
	c0.1,0.2,0.3,0.4,0.4,0.6c1.5,1.5,4.2,1.3,6.1,0.3s3.4-2.6,5.2-3.9c3.1-2.2,6.9-3.2,10.7-2.9c2.4,0.2,4.7,1,7,1.1
	c7,0.4,13-4.7,19.7-6.7c4.9-1.5,10.5-1.5,14.6-4.6c1.8-1.3,3.2-3.5,2.7-5.6c-0.4-1.2-1.1-2.4-2-3.3c-2.4-3.1-3.8-6.8-5.5-10.3
	c-3.4-6.9-8-13.1-13.7-18.3c-4.3-3.7-8.8-7.2-13.6-10.3c-1.1-0.8-2.4-1.6-3.7-2.2c-1.7-0.7-3.5-1.1-5-2c-2.2-1.4-3.5-3.9-5.2-5.9
	c-3.8-4.4-9.5-6.4-14.1-9.8c-3.1-2.3-5.8-5.4-9.5-6.5c-1.8-0.5-3.7-0.6-5.5-1.1c-4.1-1.2-7.1-4.9-11.1-6.3c-3.2-1.2-6.7-0.9-10-1.3
	c-3.8-0.5-7.3-1.8-10.4-4c-1-0.8-2.1-1.5-3.3-1.9c-5.1-1.5-5.5,7.9-6,11.2C831.5,390.4,830.3,395.2,830.3,400.1z"/>
<path class="st14" d="M835.3,431.8c0.8,9.2-6.1,18.2-4.1,27.2c0.4,1.9,1.3,3.8,1.6,5.7c0.8,5.3-2.3,10.4-5.4,14.9L801.1,518
	c-1.1,1.7-2.3,3.2-3.7,4.6c-5,4.5-12.5,4-19.1,5.3c-4.6,0.9-9,2.9-12.8,5.7c-0.4,0.3-0.4,0.8-0.2,1.2c2.2,3,5.8,4.7,9.5,4.5
	c0.7,0.9,0,2.2-1,2.9c-1.4,1-3.3,1.2-3.6,3.6c-0.1,0.8,0.1,1.7,0.5,2.4c1.1,1.6,2.7,2.8,4.6,3.2c9.1,2.8,18.9-2.1,25.7-8.7
	s11.7-15,18.3-21.7c3.7-3.7,7.9-6.9,11.7-10.6c7.6-7.2,13.5-16,19.2-24.8c1.7-2.7,3.4-5.4,4.2-8.4s0.4-6.2,1.2-9.2
	c1.1-3.9,3.9-7,6.3-10.3c4.7-6.4,7.8-14.2,7.1-22.1s-5.5-15.7-12.9-18.3c-2.3-0.9-4.8-1.1-7.3-0.4c-3,0.9-5.3,3.5-7.4,5.9l-5,5.7
	c-1.2,1.3-2.2,2.8-2.8,4.4c-0.7,1.7-0.3,3.6,1,4.9"/>
<path class="st25" d="M848.5,393.9c-3.4,0.2-7.2,0.5-9.7,3c-1,1.1-1.8,2.4-2.4,3.8c-2.4,4.8-4.7,9.8-4.8,15.2
	c-0.1,4.3,1.1,8.5,1.8,12.7c0.5,3.5-0.8,7.1-1.1,10.7c4.3-1.3,9.9-3.1,13.8-5.3c2.6-1.5,5.2-3.2,8.1-4.2c4.1-1.4,11,1,14.9,2.9
	c0.2-2.7-1.8-7.5-1.6-10.3c0-1.2,0.2-2.3,0.6-3.4c0.6-1.2,1.3-2.3,2.1-3.3c3.1-5,2.6-11.3-1.2-15.8c-3.5-3.9-8.9-5.4-14.1-6
	c-3.3-0.4-6.5-0.5-9.8-0.3"/>
</svg>
